%TF.GenerationSoftware,KiCad,Pcbnew,6.0.11-2627ca5db0~126~ubuntu22.04.1*%
%TF.CreationDate,2024-02-09T08:46:32-05:00*%
%TF.ProjectId,HP8656B_fractional-n_microprocessor,48503836-3536-4425-9f66-72616374696f,rev?*%
%TF.SameCoordinates,Original*%
%TF.FileFunction,Copper,L2,Bot*%
%TF.FilePolarity,Positive*%
%FSLAX46Y46*%
G04 Gerber Fmt 4.6, Leading zero omitted, Abs format (unit mm)*
G04 Created by KiCad (PCBNEW 6.0.11-2627ca5db0~126~ubuntu22.04.1) date 2024-02-09 08:46:32*
%MOMM*%
%LPD*%
G01*
G04 APERTURE LIST*
G04 Aperture macros list*
%AMRoundRect*
0 Rectangle with rounded corners*
0 $1 Rounding radius*
0 $2 $3 $4 $5 $6 $7 $8 $9 X,Y pos of 4 corners*
0 Add a 4 corners polygon primitive as box body*
4,1,4,$2,$3,$4,$5,$6,$7,$8,$9,$2,$3,0*
0 Add four circle primitives for the rounded corners*
1,1,$1+$1,$2,$3*
1,1,$1+$1,$4,$5*
1,1,$1+$1,$6,$7*
1,1,$1+$1,$8,$9*
0 Add four rect primitives between the rounded corners*
20,1,$1+$1,$2,$3,$4,$5,0*
20,1,$1+$1,$4,$5,$6,$7,0*
20,1,$1+$1,$6,$7,$8,$9,0*
20,1,$1+$1,$8,$9,$2,$3,0*%
G04 Aperture macros list end*
%TA.AperFunction,ComponentPad*%
%ADD10R,1.600000X1.600000*%
%TD*%
%TA.AperFunction,ComponentPad*%
%ADD11O,1.600000X1.600000*%
%TD*%
%TA.AperFunction,ComponentPad*%
%ADD12R,1.700000X1.700000*%
%TD*%
%TA.AperFunction,ComponentPad*%
%ADD13O,1.700000X1.700000*%
%TD*%
%TA.AperFunction,SMDPad,CuDef*%
%ADD14C,1.000000*%
%TD*%
%TA.AperFunction,SMDPad,CuDef*%
%ADD15RoundRect,0.225000X0.250000X-0.225000X0.250000X0.225000X-0.250000X0.225000X-0.250000X-0.225000X0*%
%TD*%
%TA.AperFunction,SMDPad,CuDef*%
%ADD16RoundRect,0.225000X0.225000X0.250000X-0.225000X0.250000X-0.225000X-0.250000X0.225000X-0.250000X0*%
%TD*%
%TA.AperFunction,SMDPad,CuDef*%
%ADD17RoundRect,0.225000X-0.250000X0.225000X-0.250000X-0.225000X0.250000X-0.225000X0.250000X0.225000X0*%
%TD*%
%TA.AperFunction,ViaPad*%
%ADD18C,0.508000*%
%TD*%
%TA.AperFunction,Conductor*%
%ADD19C,0.152400*%
%TD*%
%TA.AperFunction,Conductor*%
%ADD20C,0.381000*%
%TD*%
%TA.AperFunction,Conductor*%
%ADD21C,0.254000*%
%TD*%
G04 APERTURE END LIST*
D10*
%TO.P,U2,1,GND*%
%TO.N,GND*%
X129336800Y-32842200D03*
D11*
%TO.P,U2,2,INT*%
%TO.N,/SERIAL_CLK*%
X129336800Y-35382200D03*
%TO.P,U2,3,VCC*%
%TO.N,+5V*%
X129336800Y-37922200D03*
%TO.P,U2,4,EXTAL*%
%TO.N,/EXTAL*%
X129336800Y-40462200D03*
%TO.P,U2,5,XTAL*%
%TO.N,/XTAL*%
X129336800Y-43002200D03*
%TO.P,U2,6,VPROG*%
%TO.N,unconnected-(U2-Pad6)*%
X129336800Y-45542200D03*
%TO.P,U2,7,TIMER*%
%TO.N,+5V*%
X129336800Y-48082200D03*
%TO.P,U2,8,PC0*%
%TO.N,/PC0*%
X129336800Y-50622200D03*
%TO.P,U2,9,PC1*%
%TO.N,/SERIAL_DATA*%
X129336800Y-53162200D03*
%TO.P,U2,10,PC2*%
%TO.N,/T26*%
X129336800Y-55702200D03*
%TO.P,U2,11,PC3*%
%TO.N,/OUT_OF_LOCK*%
X129336800Y-58242200D03*
%TO.P,U2,12,PB0*%
%TO.N,/FM_ENABLE*%
X129336800Y-60782200D03*
%TO.P,U2,13,PB1*%
%TO.N,/B+C (H)*%
X129336800Y-63322200D03*
%TO.P,U2,14,PB2*%
%TO.N,/S (L)*%
X129336800Y-65862200D03*
%TO.P,U2,15,PB3*%
%TO.N,/FM_CAL_ADD_CYCL*%
X144576800Y-65862200D03*
%TO.P,U2,16,PB4*%
%TO.N,/TEST_NO_FM_CAL*%
X144576800Y-63322200D03*
%TO.P,U2,17,PB5*%
%TO.N,/TEST_LF_LOOP_FIXED*%
X144576800Y-60782200D03*
%TO.P,U2,18,PB6*%
%TO.N,/TEST_SIG_ANALYSIS*%
X144576800Y-58242200D03*
%TO.P,U2,19,PB7*%
%TO.N,/TEST_UNUSED*%
X144576800Y-55702200D03*
%TO.P,U2,20,PA0*%
%TO.N,/DATA_BIT1*%
X144576800Y-53162200D03*
%TO.P,U2,21,PA1*%
%TO.N,/DATA_BIT2*%
X144576800Y-50622200D03*
%TO.P,U2,22,PA2*%
%TO.N,/DATA_BIT4*%
X144576800Y-48082200D03*
%TO.P,U2,23,PA3*%
%TO.N,/DATA_BIT8*%
X144576800Y-45542200D03*
%TO.P,U2,24,PA4*%
%TO.N,/DATA_CLK*%
X144576800Y-43002200D03*
%TO.P,U2,25,PA5*%
%TO.N,/DATA_VALID*%
X144576800Y-40462200D03*
%TO.P,U2,26,PA6*%
%TO.N,/FM_DC_ENABLE*%
X144576800Y-37922200D03*
%TO.P,U2,27,PA7*%
%TO.N,/FM_OFF*%
X144576800Y-35382200D03*
%TO.P,U2,28,RESET*%
%TO.N,/RESET*%
X144576800Y-32842200D03*
%TD*%
D12*
%TO.P,J1,1,Pin_1*%
%TO.N,/FM_CAL_ADD_CYCL*%
X135758000Y-33543000D03*
D13*
%TO.P,J1,2,Pin_2*%
%TO.N,+5V*%
X138298000Y-33543000D03*
%TO.P,J1,3,Pin_3*%
%TO.N,/B+C (H)*%
X135758000Y-36083000D03*
%TO.P,J1,4,Pin_4*%
%TO.N,/S (L)*%
X138298000Y-36083000D03*
%TO.P,J1,5,Pin_5*%
%TO.N,/RESET*%
X135758000Y-38623000D03*
%TO.P,J1,6,Pin_6*%
%TO.N,GND*%
X138298000Y-38623000D03*
%TD*%
D14*
%TO.P,TP3,1,1*%
%TO.N,/PF0*%
X137160000Y-63119000D03*
%TD*%
D15*
%TO.P,C3,1*%
%TO.N,+5V*%
X135763000Y-42177000D03*
%TO.P,C3,2*%
%TO.N,GND*%
X135763000Y-40627000D03*
%TD*%
D14*
%TO.P,TP4,1,1*%
%TO.N,/PF1*%
X137160000Y-65913000D03*
%TD*%
%TO.P,TP2,1,1*%
%TO.N,/PE2*%
X139700000Y-65913000D03*
%TD*%
D16*
%TO.P,C1,1*%
%TO.N,+5V*%
X141618000Y-45466000D03*
%TO.P,C1,2*%
%TO.N,GND*%
X140068000Y-45466000D03*
%TD*%
D14*
%TO.P,TP1,1,1*%
%TO.N,/PC6*%
X139700000Y-63119000D03*
%TD*%
D17*
%TO.P,C2,1*%
%TO.N,+5V*%
X132969000Y-47739000D03*
%TO.P,C2,2*%
%TO.N,GND*%
X132969000Y-49289000D03*
%TD*%
D18*
%TO.N,/SERIAL_CLK*%
X131521890Y-41732390D03*
X128270000Y-36703000D03*
%TO.N,/SERIAL_DATA*%
X131572000Y-54229000D03*
X130175000Y-54356000D03*
%TO.N,/B+C (H)*%
X140957800Y-49403000D03*
X145772603Y-48744603D03*
%TO.N,/S (L)*%
X133985000Y-34163000D03*
%TO.N,/TEST_NO_FM_CAL*%
X133836856Y-44017680D03*
X141441903Y-60187303D03*
X135267891Y-53758698D03*
%TO.N,/TEST_LF_LOOP_FIXED*%
X141459718Y-55850476D03*
X132935841Y-43883184D03*
X135894485Y-53551692D03*
%TO.N,/TEST_SIG_ANALYSIS*%
X132080000Y-43942000D03*
X136534823Y-53711177D03*
X141528800Y-55194200D03*
%TO.N,/DATA_BIT1*%
X139743818Y-43362814D03*
%TO.N,/DATA_BIT2*%
X139827000Y-42696900D03*
%TO.N,/DATA_CLK*%
X133350000Y-41783000D03*
X132855140Y-38848860D03*
%TO.N,/DATA_VALID*%
X138303000Y-41910000D03*
%TO.N,/FM_DC_ENABLE*%
X130556000Y-37211000D03*
X132620089Y-41762901D03*
X139954000Y-35433000D03*
X133985000Y-35306000D03*
%TO.N,/FM_OFF*%
X132060834Y-42113193D03*
%TO.N,GND*%
X132310603Y-48998603D03*
X136271000Y-51943000D03*
X140714522Y-44566775D03*
X139573000Y-50292000D03*
X136553437Y-41536495D03*
%TO.N,+5V*%
X132302112Y-47879000D03*
X141640932Y-44485932D03*
X135178735Y-42175599D03*
X141503900Y-51181000D03*
X132842000Y-35306000D03*
%TO.N,/DATA_BIT8*%
X138978103Y-42123897D03*
X142417800Y-41524994D03*
%TO.N,/DATA_BIT4*%
X138958821Y-42783517D03*
%TO.N,/PC6*%
X132825116Y-44847884D03*
X135174794Y-59389206D03*
X134638691Y-53559754D03*
%TO.N,/PE2*%
X133959600Y-53746400D03*
X131064000Y-45085000D03*
X135278397Y-60174603D03*
%TO.N,/PF0*%
X133451100Y-58166000D03*
%TO.N,/PF1*%
X132715000Y-58801000D03*
%TD*%
D19*
%TO.N,/SERIAL_CLK*%
X128143000Y-36830000D02*
X128143000Y-38735000D01*
X130048000Y-39243000D02*
X131521890Y-40716890D01*
X128270000Y-36703000D02*
X128143000Y-36830000D01*
X131521890Y-40716890D02*
X131521890Y-41732390D01*
X128143000Y-38735000D02*
X128651000Y-39243000D01*
X128651000Y-39243000D02*
X130048000Y-39243000D01*
%TO.N,/SERIAL_DATA*%
X131572000Y-54229000D02*
X131445000Y-54356000D01*
X131445000Y-54356000D02*
X130175000Y-54356000D01*
%TO.N,/B+C (H)*%
X140957800Y-51422800D02*
X143891000Y-54356000D01*
X145288000Y-54356000D02*
X145772603Y-53871397D01*
X140957800Y-49403000D02*
X140957800Y-51422800D01*
X143891000Y-54356000D02*
X145288000Y-54356000D01*
X145772603Y-53871397D02*
X145772603Y-48744603D01*
%TO.N,/S (L)*%
X134620000Y-34798000D02*
X137414000Y-34798000D01*
X133985000Y-34163000D02*
X134620000Y-34798000D01*
X137414000Y-34798000D02*
X138298000Y-35682000D01*
X138298000Y-35682000D02*
X138298000Y-36083000D01*
%TO.N,/TEST_NO_FM_CAL*%
X135267891Y-53479891D02*
X134747000Y-52959000D01*
X135267891Y-53758698D02*
X135267891Y-53479891D01*
X141441903Y-60187303D02*
X144576800Y-63322200D01*
X134747000Y-52959000D02*
X132434104Y-52959000D01*
X130937000Y-47434500D02*
X133836856Y-44534644D01*
X130937000Y-51461896D02*
X130937000Y-47434500D01*
X133836856Y-44534644D02*
X133836856Y-44017680D01*
X132434104Y-52959000D02*
X130937000Y-51461896D01*
%TO.N,/TEST_LF_LOOP_FIXED*%
X135077200Y-52654200D02*
X132560356Y-52654200D01*
X133283945Y-43535080D02*
X132935841Y-43883184D01*
X144576800Y-60388500D02*
X144576800Y-60782200D01*
X143383000Y-57785000D02*
X143383000Y-59194700D01*
X141459718Y-55861718D02*
X143383000Y-57785000D01*
X143383000Y-59194700D02*
X144576800Y-60388500D01*
X134319456Y-44483096D02*
X134319456Y-43817780D01*
X134036756Y-43535080D02*
X133283945Y-43535080D01*
X135894485Y-53551692D02*
X135894485Y-53471485D01*
X132560356Y-52654200D02*
X131267200Y-51361044D01*
X134319456Y-43817780D02*
X134036756Y-43535080D01*
X131267200Y-51361044D02*
X131267200Y-47535352D01*
X131267200Y-47535352D02*
X134319456Y-44483096D01*
X141459718Y-55850476D02*
X141459718Y-55861718D01*
X135894485Y-53471485D02*
X135077200Y-52654200D01*
%TO.N,/TEST_SIG_ANALYSIS*%
X135349293Y-52324000D02*
X136534823Y-53509530D01*
X131572000Y-47661604D02*
X131572000Y-51234792D01*
X132080000Y-43942000D02*
X132791720Y-43230280D01*
X134624256Y-44609348D02*
X131572000Y-47661604D01*
X136534823Y-53509530D02*
X136534823Y-53711177D01*
X134289280Y-43230280D02*
X134624256Y-43565256D01*
X132791720Y-43230280D02*
X134289280Y-43230280D01*
X132661208Y-52324000D02*
X135349293Y-52324000D01*
X141528800Y-55194200D02*
X144576800Y-58242200D01*
X134624256Y-43565256D02*
X134624256Y-44609348D01*
X131572000Y-51234792D02*
X132661208Y-52324000D01*
%TO.N,/DATA_BIT1*%
X139743818Y-43362814D02*
X139898186Y-43362814D01*
X142417800Y-42849800D02*
X142748000Y-43180000D01*
X140411200Y-42849800D02*
X142417800Y-42849800D01*
X139898186Y-43362814D02*
X140411200Y-42849800D01*
X142748000Y-43180000D02*
X142748000Y-51333400D01*
X142748000Y-51333400D02*
X144576800Y-53162200D01*
%TO.N,/DATA_BIT2*%
X144576800Y-50622200D02*
X143129000Y-49174400D01*
X142748000Y-42545000D02*
X139978900Y-42545000D01*
X139978900Y-42545000D02*
X139827000Y-42696900D01*
X143129000Y-49174400D02*
X143129000Y-42926000D01*
X143129000Y-42926000D02*
X142748000Y-42545000D01*
%TO.N,/DATA_CLK*%
X132842000Y-40843948D02*
X132842000Y-38862000D01*
X132842000Y-38862000D02*
X132855140Y-38848860D01*
X133350000Y-41783000D02*
X133350000Y-41351948D01*
X133350000Y-41351948D02*
X132842000Y-40843948D01*
%TO.N,/DATA_VALID*%
X141401800Y-41605200D02*
X142544800Y-40462200D01*
X142544800Y-40462200D02*
X144576800Y-40462200D01*
X138607800Y-41605200D02*
X141401800Y-41605200D01*
X138303000Y-41910000D02*
X138607800Y-41605200D01*
%TO.N,/FM_DC_ENABLE*%
X130556000Y-38989000D02*
X130556000Y-37211000D01*
X135255000Y-37338000D02*
X139319000Y-37338000D01*
X132620089Y-41053089D02*
X130556000Y-38989000D01*
X139954000Y-36703000D02*
X139954000Y-35433000D01*
X134493000Y-35814000D02*
X134493000Y-36576000D01*
X139319000Y-37338000D02*
X139954000Y-36703000D01*
X132620089Y-41762901D02*
X132620089Y-41053089D01*
X133985000Y-35306000D02*
X134493000Y-35814000D01*
X134493000Y-36576000D02*
X135255000Y-37338000D01*
%TO.N,/FM_OFF*%
X132060834Y-42113193D02*
X131883027Y-42291000D01*
X128016000Y-30988000D02*
X145669000Y-30988000D01*
X145669000Y-30988000D02*
X146304000Y-31623000D01*
X127508000Y-31496000D02*
X128016000Y-30988000D01*
X128016000Y-39903026D02*
X127508000Y-39395026D01*
X146304000Y-33655000D02*
X144576800Y-35382200D01*
X131883027Y-42291000D02*
X130937000Y-42291000D01*
X146304000Y-31623000D02*
X146304000Y-33655000D01*
X128016000Y-41275000D02*
X128016000Y-39903026D01*
X130302000Y-41656000D02*
X128397000Y-41656000D01*
X128397000Y-41656000D02*
X128016000Y-41275000D01*
X130937000Y-42291000D02*
X130302000Y-41656000D01*
X127508000Y-39395026D02*
X127508000Y-31496000D01*
D20*
%TO.N,+5V*%
X133604000Y-32131000D02*
X136886000Y-32131000D01*
X135763000Y-42177000D02*
X135180136Y-42177000D01*
D21*
X141605000Y-44521864D02*
X141640932Y-44485932D01*
X132829000Y-47879000D02*
X132969000Y-47739000D01*
D20*
X141605000Y-51079900D02*
X141605000Y-44521864D01*
X136886000Y-32131000D02*
X138298000Y-33543000D01*
X132842000Y-32893000D02*
X133604000Y-32131000D01*
D21*
X141503900Y-51181000D02*
X141605000Y-51079900D01*
D20*
X132302112Y-47879000D02*
X132829000Y-47879000D01*
D21*
X135180136Y-42177000D02*
X135178735Y-42175599D01*
D20*
X132842000Y-35306000D02*
X132842000Y-32893000D01*
D19*
%TO.N,/DATA_BIT8*%
X142417800Y-41524994D02*
X142032794Y-41910000D01*
X139192000Y-41910000D02*
X138978103Y-42123897D01*
X142032794Y-41910000D02*
X139192000Y-41910000D01*
%TO.N,/DATA_BIT4*%
X146177000Y-42545000D02*
X146177000Y-46863000D01*
X143256000Y-41783000D02*
X145415000Y-41783000D01*
X145415000Y-41783000D02*
X146177000Y-42545000D01*
X139135841Y-42606497D02*
X139178003Y-42606497D01*
X142824200Y-42214800D02*
X143256000Y-41783000D01*
X138958821Y-42783517D02*
X139135841Y-42606497D01*
X144957800Y-48082200D02*
X144576800Y-48082200D01*
X146177000Y-46863000D02*
X144957800Y-48082200D01*
X139569700Y-42214800D02*
X142824200Y-42214800D01*
X139178003Y-42606497D02*
X139569700Y-42214800D01*
%TO.N,/PC6*%
X139700000Y-63119000D02*
X139175294Y-63119000D01*
X134342737Y-53263800D02*
X132307852Y-53263800D01*
X132825116Y-44974884D02*
X132825116Y-44847884D01*
X130632200Y-47167800D02*
X132825116Y-44974884D01*
X132307852Y-53263800D02*
X130632200Y-51588148D01*
X134638691Y-53559754D02*
X134342737Y-53263800D01*
X139175294Y-63119000D02*
X135445500Y-59389206D01*
X130632200Y-51588148D02*
X130632200Y-47167800D01*
X135445500Y-59389206D02*
X135174794Y-59389206D01*
%TO.N,/PE2*%
X131064000Y-45085000D02*
X131064000Y-45847000D01*
X131064000Y-45847000D02*
X130048000Y-46863000D01*
X130429000Y-51816000D02*
X132207000Y-53594000D01*
X130048000Y-46863000D02*
X128778000Y-46863000D01*
X132207000Y-53594000D02*
X133807200Y-53594000D01*
X128397000Y-51816000D02*
X130429000Y-51816000D01*
X135529139Y-60174603D02*
X138430000Y-63075464D01*
X128143000Y-47498000D02*
X128143000Y-51562000D01*
X135278397Y-60174603D02*
X135529139Y-60174603D01*
X133807200Y-53594000D02*
X133959600Y-53746400D01*
X138430000Y-64643000D02*
X139700000Y-65913000D01*
X128143000Y-51562000D02*
X128397000Y-51816000D01*
X138430000Y-63075464D02*
X138430000Y-64643000D01*
X128778000Y-46863000D02*
X128143000Y-47498000D01*
%TO.N,/PF0*%
X137160000Y-62738000D02*
X137160000Y-63119000D01*
X133451100Y-58166000D02*
X133451100Y-59029100D01*
X133451100Y-59029100D02*
X137160000Y-62738000D01*
%TO.N,/PF1*%
X132715000Y-58801000D02*
X132715000Y-59055000D01*
X136144000Y-62484000D02*
X136144000Y-64897000D01*
X132715000Y-59055000D02*
X136144000Y-62484000D01*
X136144000Y-64897000D02*
X137160000Y-65913000D01*
%TD*%
%TA.AperFunction,Conductor*%
%TO.N,GND*%
G36*
X147007621Y-30754502D02*
G01*
X147054114Y-30808158D01*
X147065500Y-30860500D01*
X147065500Y-68199500D01*
X147045498Y-68267621D01*
X146991842Y-68314114D01*
X146939500Y-68325500D01*
X127380500Y-68325500D01*
X127312379Y-68305498D01*
X127265886Y-68251842D01*
X127254500Y-68199500D01*
X127254500Y-65847406D01*
X128277301Y-65847406D01*
X128294606Y-66053478D01*
X128351607Y-66252266D01*
X128354425Y-66257748D01*
X128354426Y-66257752D01*
X128443314Y-66430709D01*
X128443317Y-66430713D01*
X128446134Y-66436195D01*
X128574586Y-66598261D01*
X128579279Y-66602255D01*
X128579280Y-66602256D01*
X128632166Y-66647265D01*
X128732071Y-66732291D01*
X128912589Y-66833180D01*
X129109266Y-66897084D01*
X129314609Y-66921570D01*
X129320744Y-66921098D01*
X129320746Y-66921098D01*
X129514656Y-66906177D01*
X129514660Y-66906176D01*
X129520798Y-66905704D01*
X129719978Y-66850092D01*
X129725482Y-66847312D01*
X129725484Y-66847311D01*
X129899062Y-66759631D01*
X129899064Y-66759630D01*
X129904563Y-66756852D01*
X130067522Y-66629534D01*
X130071548Y-66624870D01*
X130071551Y-66624867D01*
X130198619Y-66477657D01*
X130198620Y-66477655D01*
X130202648Y-66472989D01*
X130304795Y-66293179D01*
X130370070Y-66096953D01*
X130395989Y-65891786D01*
X130396402Y-65862200D01*
X130376222Y-65656389D01*
X130316451Y-65458417D01*
X130219365Y-65275825D01*
X130215474Y-65271055D01*
X130215472Y-65271051D01*
X130092558Y-65120343D01*
X130092555Y-65120340D01*
X130088663Y-65115568D01*
X130081766Y-65109862D01*
X129934071Y-64987678D01*
X129934066Y-64987675D01*
X129929322Y-64983750D01*
X129923903Y-64980820D01*
X129923900Y-64980818D01*
X129752832Y-64888322D01*
X129752827Y-64888320D01*
X129747412Y-64885392D01*
X129549863Y-64824240D01*
X129543738Y-64823596D01*
X129543737Y-64823596D01*
X129350326Y-64803268D01*
X129350324Y-64803268D01*
X129344197Y-64802624D01*
X129218029Y-64814106D01*
X129144391Y-64820807D01*
X129144390Y-64820807D01*
X129138250Y-64821366D01*
X128939866Y-64879754D01*
X128934401Y-64882611D01*
X128762061Y-64972708D01*
X128762057Y-64972711D01*
X128756601Y-64975563D01*
X128595435Y-65105143D01*
X128462508Y-65263560D01*
X128362882Y-65444778D01*
X128300353Y-65641896D01*
X128299667Y-65648013D01*
X128299666Y-65648017D01*
X128296804Y-65673536D01*
X128277301Y-65847406D01*
X127254500Y-65847406D01*
X127254500Y-63307406D01*
X128277301Y-63307406D01*
X128280259Y-63342627D01*
X128285838Y-63409061D01*
X128294606Y-63513478D01*
X128351607Y-63712266D01*
X128354425Y-63717748D01*
X128354426Y-63717752D01*
X128443314Y-63890709D01*
X128443317Y-63890713D01*
X128446134Y-63896195D01*
X128574586Y-64058261D01*
X128732071Y-64192291D01*
X128912589Y-64293180D01*
X129109266Y-64357084D01*
X129314609Y-64381570D01*
X129320744Y-64381098D01*
X129320746Y-64381098D01*
X129514656Y-64366177D01*
X129514660Y-64366176D01*
X129520798Y-64365704D01*
X129719978Y-64310092D01*
X129725482Y-64307312D01*
X129725484Y-64307311D01*
X129899062Y-64219631D01*
X129899064Y-64219630D01*
X129904563Y-64216852D01*
X130067522Y-64089534D01*
X130071548Y-64084870D01*
X130071551Y-64084867D01*
X130198619Y-63937657D01*
X130198620Y-63937655D01*
X130202648Y-63932989D01*
X130304795Y-63753179D01*
X130351788Y-63611911D01*
X130368125Y-63562801D01*
X130368126Y-63562798D01*
X130370070Y-63556953D01*
X130395989Y-63351786D01*
X130396402Y-63322200D01*
X130376222Y-63116389D01*
X130316451Y-62918417D01*
X130251208Y-62795712D01*
X130222259Y-62741267D01*
X130222257Y-62741264D01*
X130219365Y-62735825D01*
X130215474Y-62731055D01*
X130215472Y-62731051D01*
X130092558Y-62580343D01*
X130092555Y-62580340D01*
X130088663Y-62575568D01*
X130081766Y-62569862D01*
X129934071Y-62447678D01*
X129934066Y-62447675D01*
X129929322Y-62443750D01*
X129923903Y-62440820D01*
X129923900Y-62440818D01*
X129752832Y-62348322D01*
X129752827Y-62348320D01*
X129747412Y-62345392D01*
X129549863Y-62284240D01*
X129543738Y-62283596D01*
X129543737Y-62283596D01*
X129350326Y-62263268D01*
X129350324Y-62263268D01*
X129344197Y-62262624D01*
X129218029Y-62274106D01*
X129144391Y-62280807D01*
X129144390Y-62280807D01*
X129138250Y-62281366D01*
X128939866Y-62339754D01*
X128934401Y-62342611D01*
X128762061Y-62432708D01*
X128762057Y-62432711D01*
X128756601Y-62435563D01*
X128595435Y-62565143D01*
X128462508Y-62723560D01*
X128362882Y-62904778D01*
X128300353Y-63101896D01*
X128299667Y-63108013D01*
X128299666Y-63108017D01*
X128296056Y-63140200D01*
X128277301Y-63307406D01*
X127254500Y-63307406D01*
X127254500Y-60767406D01*
X128277301Y-60767406D01*
X128294606Y-60973478D01*
X128351607Y-61172266D01*
X128354425Y-61177748D01*
X128354426Y-61177752D01*
X128443314Y-61350709D01*
X128443317Y-61350713D01*
X128446134Y-61356195D01*
X128574586Y-61518261D01*
X128732071Y-61652291D01*
X128912589Y-61753180D01*
X129109266Y-61817084D01*
X129314609Y-61841570D01*
X129320744Y-61841098D01*
X129320746Y-61841098D01*
X129514656Y-61826177D01*
X129514660Y-61826176D01*
X129520798Y-61825704D01*
X129719978Y-61770092D01*
X129725482Y-61767312D01*
X129725484Y-61767311D01*
X129899062Y-61679631D01*
X129899064Y-61679630D01*
X129904563Y-61676852D01*
X130067522Y-61549534D01*
X130071548Y-61544870D01*
X130071551Y-61544867D01*
X130198619Y-61397657D01*
X130198620Y-61397655D01*
X130202648Y-61392989D01*
X130304795Y-61213179D01*
X130370070Y-61016953D01*
X130395989Y-60811786D01*
X130396402Y-60782200D01*
X130376222Y-60576389D01*
X130316451Y-60378417D01*
X130267908Y-60287121D01*
X130222259Y-60201267D01*
X130222257Y-60201264D01*
X130219365Y-60195825D01*
X130215474Y-60191055D01*
X130215472Y-60191051D01*
X130092558Y-60040343D01*
X130092555Y-60040340D01*
X130088663Y-60035568D01*
X130081766Y-60029862D01*
X129934071Y-59907678D01*
X129934066Y-59907675D01*
X129929322Y-59903750D01*
X129923903Y-59900820D01*
X129923900Y-59900818D01*
X129752832Y-59808322D01*
X129752827Y-59808320D01*
X129747412Y-59805392D01*
X129549863Y-59744240D01*
X129543738Y-59743596D01*
X129543737Y-59743596D01*
X129350326Y-59723268D01*
X129350324Y-59723268D01*
X129344197Y-59722624D01*
X129218029Y-59734106D01*
X129144391Y-59740807D01*
X129144390Y-59740807D01*
X129138250Y-59741366D01*
X128939866Y-59799754D01*
X128934401Y-59802611D01*
X128762061Y-59892708D01*
X128762057Y-59892711D01*
X128756601Y-59895563D01*
X128595435Y-60025143D01*
X128462508Y-60183560D01*
X128362882Y-60364778D01*
X128300353Y-60561896D01*
X128299667Y-60568013D01*
X128299666Y-60568017D01*
X128285487Y-60694424D01*
X128277301Y-60767406D01*
X127254500Y-60767406D01*
X127254500Y-58227406D01*
X128277301Y-58227406D01*
X128282948Y-58294647D01*
X128293181Y-58416504D01*
X128294606Y-58433478D01*
X128351607Y-58632266D01*
X128354425Y-58637748D01*
X128354426Y-58637752D01*
X128443314Y-58810709D01*
X128443317Y-58810713D01*
X128446134Y-58816195D01*
X128574586Y-58978261D01*
X128579279Y-58982255D01*
X128579280Y-58982256D01*
X128726039Y-59107157D01*
X128732071Y-59112291D01*
X128912589Y-59213180D01*
X129109266Y-59277084D01*
X129314609Y-59301570D01*
X129320744Y-59301098D01*
X129320746Y-59301098D01*
X129514656Y-59286177D01*
X129514660Y-59286176D01*
X129520798Y-59285704D01*
X129719978Y-59230092D01*
X129725482Y-59227312D01*
X129725484Y-59227311D01*
X129899062Y-59139631D01*
X129899064Y-59139630D01*
X129904563Y-59136852D01*
X130067522Y-59009534D01*
X130071548Y-59004870D01*
X130071551Y-59004867D01*
X130198619Y-58857657D01*
X130198620Y-58857655D01*
X130202648Y-58852989D01*
X130235747Y-58794724D01*
X132201309Y-58794724D01*
X132202473Y-58803626D01*
X132202473Y-58803629D01*
X132212490Y-58880230D01*
X132220195Y-58939152D01*
X132223809Y-58947365D01*
X132223810Y-58947369D01*
X132249111Y-59004867D01*
X132278859Y-59072474D01*
X132284634Y-59079344D01*
X132284635Y-59079346D01*
X132314854Y-59115296D01*
X132372583Y-59183973D01*
X132380053Y-59188945D01*
X132380057Y-59188949D01*
X132404909Y-59205491D01*
X132444209Y-59247377D01*
X132457761Y-59270849D01*
X132466204Y-59277933D01*
X132466206Y-59277936D01*
X132487164Y-59295522D01*
X132495268Y-59302948D01*
X135776395Y-62584075D01*
X135810421Y-62646387D01*
X135813300Y-62673170D01*
X135813300Y-64877051D01*
X135812821Y-64888032D01*
X135809476Y-64926267D01*
X135819409Y-64963339D01*
X135821784Y-64974053D01*
X135828449Y-65011851D01*
X135833960Y-65021396D01*
X135835231Y-65024889D01*
X135836806Y-65028267D01*
X135839660Y-65038916D01*
X135845984Y-65047947D01*
X135845985Y-65047950D01*
X135861673Y-65070355D01*
X135867578Y-65079624D01*
X135886761Y-65112849D01*
X135895204Y-65119933D01*
X135895206Y-65119936D01*
X135916164Y-65137522D01*
X135924268Y-65144948D01*
X136390544Y-65611224D01*
X136424570Y-65673536D01*
X136423924Y-65729217D01*
X136422015Y-65734463D01*
X136400800Y-65902399D01*
X136417318Y-66070862D01*
X136470748Y-66231479D01*
X136558435Y-66376267D01*
X136563326Y-66381332D01*
X136563327Y-66381333D01*
X136587062Y-66405911D01*
X136676021Y-66498031D01*
X136817660Y-66590717D01*
X136976315Y-66649720D01*
X136983296Y-66650651D01*
X136983298Y-66650652D01*
X137137118Y-66671176D01*
X137137122Y-66671176D01*
X137144099Y-66672107D01*
X137151110Y-66671469D01*
X137151114Y-66671469D01*
X137305652Y-66657405D01*
X137312673Y-66656766D01*
X137473659Y-66604458D01*
X137619056Y-66517784D01*
X137741638Y-66401052D01*
X137745539Y-66395181D01*
X137831410Y-66265935D01*
X137831411Y-66265933D01*
X137835311Y-66260063D01*
X137895420Y-66101824D01*
X137918978Y-65934200D01*
X137919274Y-65913000D01*
X137900406Y-65744784D01*
X137844738Y-65584929D01*
X137755038Y-65441379D01*
X137635764Y-65321269D01*
X137492844Y-65230569D01*
X137465442Y-65220812D01*
X137340016Y-65176149D01*
X137340011Y-65176148D01*
X137333381Y-65173787D01*
X137326395Y-65172954D01*
X137326391Y-65172953D01*
X137207287Y-65158751D01*
X137165301Y-65153745D01*
X137158298Y-65154481D01*
X137158297Y-65154481D01*
X137116796Y-65158843D01*
X136996957Y-65171438D01*
X136990288Y-65173708D01*
X136990285Y-65173709D01*
X136988507Y-65174314D01*
X136987299Y-65174365D01*
X136983407Y-65175221D01*
X136983257Y-65174537D01*
X136917575Y-65177330D01*
X136858810Y-65144130D01*
X136511605Y-64796925D01*
X136477579Y-64734613D01*
X136474700Y-64707830D01*
X136474700Y-63804228D01*
X136494702Y-63736107D01*
X136548358Y-63689614D01*
X136618632Y-63679510D01*
X136675564Y-63704729D01*
X136676021Y-63704031D01*
X136681914Y-63707887D01*
X136681916Y-63707889D01*
X136711720Y-63727392D01*
X136817660Y-63796717D01*
X136976315Y-63855720D01*
X136983296Y-63856651D01*
X136983298Y-63856652D01*
X137137118Y-63877176D01*
X137137122Y-63877176D01*
X137144099Y-63878107D01*
X137151110Y-63877469D01*
X137151114Y-63877469D01*
X137305652Y-63863405D01*
X137312673Y-63862766D01*
X137473659Y-63810458D01*
X137619056Y-63723784D01*
X137741638Y-63607052D01*
X137745539Y-63601181D01*
X137831410Y-63471935D01*
X137831411Y-63471933D01*
X137835311Y-63466063D01*
X137855512Y-63412883D01*
X137898400Y-63356305D01*
X137965069Y-63331895D01*
X138034351Y-63347404D01*
X138084249Y-63397908D01*
X138099300Y-63457626D01*
X138099300Y-64623051D01*
X138098821Y-64634032D01*
X138095476Y-64672267D01*
X138105409Y-64709339D01*
X138107784Y-64720053D01*
X138114449Y-64757851D01*
X138119960Y-64767396D01*
X138121231Y-64770889D01*
X138122806Y-64774267D01*
X138125660Y-64784916D01*
X138131984Y-64793947D01*
X138131985Y-64793950D01*
X138147673Y-64816355D01*
X138153578Y-64825624D01*
X138172761Y-64858849D01*
X138181204Y-64865933D01*
X138181206Y-64865936D01*
X138202164Y-64883522D01*
X138210268Y-64890948D01*
X138930544Y-65611224D01*
X138964570Y-65673536D01*
X138963924Y-65729217D01*
X138962015Y-65734463D01*
X138940800Y-65902399D01*
X138957318Y-66070862D01*
X139010748Y-66231479D01*
X139098435Y-66376267D01*
X139103326Y-66381332D01*
X139103327Y-66381333D01*
X139127062Y-66405911D01*
X139216021Y-66498031D01*
X139357660Y-66590717D01*
X139516315Y-66649720D01*
X139523296Y-66650651D01*
X139523298Y-66650652D01*
X139677118Y-66671176D01*
X139677122Y-66671176D01*
X139684099Y-66672107D01*
X139691110Y-66671469D01*
X139691114Y-66671469D01*
X139845652Y-66657405D01*
X139852673Y-66656766D01*
X140013659Y-66604458D01*
X140159056Y-66517784D01*
X140281638Y-66401052D01*
X140285539Y-66395181D01*
X140371410Y-66265935D01*
X140371411Y-66265933D01*
X140375311Y-66260063D01*
X140435420Y-66101824D01*
X140458978Y-65934200D01*
X140459274Y-65913000D01*
X140451917Y-65847406D01*
X143517301Y-65847406D01*
X143534606Y-66053478D01*
X143591607Y-66252266D01*
X143594425Y-66257748D01*
X143594426Y-66257752D01*
X143683314Y-66430709D01*
X143683317Y-66430713D01*
X143686134Y-66436195D01*
X143814586Y-66598261D01*
X143819279Y-66602255D01*
X143819280Y-66602256D01*
X143872166Y-66647265D01*
X143972071Y-66732291D01*
X144152589Y-66833180D01*
X144349266Y-66897084D01*
X144554609Y-66921570D01*
X144560744Y-66921098D01*
X144560746Y-66921098D01*
X144754656Y-66906177D01*
X144754660Y-66906176D01*
X144760798Y-66905704D01*
X144959978Y-66850092D01*
X144965482Y-66847312D01*
X144965484Y-66847311D01*
X145139062Y-66759631D01*
X145139064Y-66759630D01*
X145144563Y-66756852D01*
X145307522Y-66629534D01*
X145311548Y-66624870D01*
X145311551Y-66624867D01*
X145438619Y-66477657D01*
X145438620Y-66477655D01*
X145442648Y-66472989D01*
X145544795Y-66293179D01*
X145610070Y-66096953D01*
X145635989Y-65891786D01*
X145636402Y-65862200D01*
X145616222Y-65656389D01*
X145556451Y-65458417D01*
X145459365Y-65275825D01*
X145455474Y-65271055D01*
X145455472Y-65271051D01*
X145332558Y-65120343D01*
X145332555Y-65120340D01*
X145328663Y-65115568D01*
X145321766Y-65109862D01*
X145174071Y-64987678D01*
X145174066Y-64987675D01*
X145169322Y-64983750D01*
X145163903Y-64980820D01*
X145163900Y-64980818D01*
X144992832Y-64888322D01*
X144992827Y-64888320D01*
X144987412Y-64885392D01*
X144789863Y-64824240D01*
X144783738Y-64823596D01*
X144783737Y-64823596D01*
X144590326Y-64803268D01*
X144590324Y-64803268D01*
X144584197Y-64802624D01*
X144458029Y-64814106D01*
X144384391Y-64820807D01*
X144384390Y-64820807D01*
X144378250Y-64821366D01*
X144179866Y-64879754D01*
X144174401Y-64882611D01*
X144002061Y-64972708D01*
X144002057Y-64972711D01*
X143996601Y-64975563D01*
X143835435Y-65105143D01*
X143702508Y-65263560D01*
X143602882Y-65444778D01*
X143540353Y-65641896D01*
X143539667Y-65648013D01*
X143539666Y-65648017D01*
X143536804Y-65673536D01*
X143517301Y-65847406D01*
X140451917Y-65847406D01*
X140440406Y-65744784D01*
X140384738Y-65584929D01*
X140295038Y-65441379D01*
X140175764Y-65321269D01*
X140032844Y-65230569D01*
X140005442Y-65220812D01*
X139880016Y-65176149D01*
X139880011Y-65176148D01*
X139873381Y-65173787D01*
X139866395Y-65172954D01*
X139866391Y-65172953D01*
X139747287Y-65158751D01*
X139705301Y-65153745D01*
X139698298Y-65154481D01*
X139698297Y-65154481D01*
X139656796Y-65158843D01*
X139536957Y-65171438D01*
X139530288Y-65173708D01*
X139530285Y-65173709D01*
X139528507Y-65174314D01*
X139527299Y-65174365D01*
X139523407Y-65175221D01*
X139523257Y-65174537D01*
X139457575Y-65177330D01*
X139398810Y-65144130D01*
X138797605Y-64542925D01*
X138763579Y-64480613D01*
X138760700Y-64453830D01*
X138760700Y-63477182D01*
X138780702Y-63409061D01*
X138834358Y-63362568D01*
X138904632Y-63352464D01*
X138965072Y-63379488D01*
X138968989Y-63381749D01*
X138974968Y-63386766D01*
X139008363Y-63430444D01*
X139008523Y-63430791D01*
X139010748Y-63437479D01*
X139098435Y-63582267D01*
X139103326Y-63587332D01*
X139103327Y-63587333D01*
X139127062Y-63611911D01*
X139216021Y-63704031D01*
X139357660Y-63796717D01*
X139516315Y-63855720D01*
X139523296Y-63856651D01*
X139523298Y-63856652D01*
X139677118Y-63877176D01*
X139677122Y-63877176D01*
X139684099Y-63878107D01*
X139691110Y-63877469D01*
X139691114Y-63877469D01*
X139845652Y-63863405D01*
X139852673Y-63862766D01*
X140013659Y-63810458D01*
X140159056Y-63723784D01*
X140281638Y-63607052D01*
X140285539Y-63601181D01*
X140371410Y-63471935D01*
X140371411Y-63471933D01*
X140375311Y-63466063D01*
X140435420Y-63307824D01*
X140458978Y-63140200D01*
X140459274Y-63119000D01*
X140440406Y-62950784D01*
X140384738Y-62790929D01*
X140295038Y-62647379D01*
X140175764Y-62527269D01*
X140164911Y-62520381D01*
X140121245Y-62492670D01*
X140032844Y-62436569D01*
X140005442Y-62426812D01*
X139880016Y-62382149D01*
X139880011Y-62382148D01*
X139873381Y-62379787D01*
X139866395Y-62378954D01*
X139866391Y-62378953D01*
X139747287Y-62364751D01*
X139705301Y-62359745D01*
X139698298Y-62360481D01*
X139698297Y-62360481D01*
X139543965Y-62376701D01*
X139543961Y-62376702D01*
X139536957Y-62377438D01*
X139530286Y-62379709D01*
X139383387Y-62429717D01*
X139383384Y-62429718D01*
X139376717Y-62431988D01*
X139370719Y-62435678D01*
X139370717Y-62435679D01*
X139238543Y-62516993D01*
X139238541Y-62516995D01*
X139232544Y-62520684D01*
X139227511Y-62525613D01*
X139226703Y-62526404D01*
X139226060Y-62526746D01*
X139221961Y-62529949D01*
X139221398Y-62529229D01*
X139164038Y-62559775D01*
X139093279Y-62553969D01*
X139049450Y-62525476D01*
X136705001Y-60181027D01*
X140928212Y-60181027D01*
X140929376Y-60189929D01*
X140929376Y-60189932D01*
X140934406Y-60228397D01*
X140947098Y-60325455D01*
X140950712Y-60333668D01*
X140950713Y-60333672D01*
X140970402Y-60378417D01*
X141005762Y-60458777D01*
X141099486Y-60570276D01*
X141117883Y-60582522D01*
X141213264Y-60646013D01*
X141213266Y-60646014D01*
X141220737Y-60650987D01*
X141359767Y-60694424D01*
X141432781Y-60695762D01*
X141500522Y-60717009D01*
X141519566Y-60732646D01*
X143570100Y-62783180D01*
X143604126Y-62845492D01*
X143601107Y-62910373D01*
X143588288Y-62950784D01*
X143540353Y-63101896D01*
X143539667Y-63108013D01*
X143539666Y-63108017D01*
X143536056Y-63140200D01*
X143517301Y-63307406D01*
X143520259Y-63342627D01*
X143525838Y-63409061D01*
X143534606Y-63513478D01*
X143591607Y-63712266D01*
X143594425Y-63717748D01*
X143594426Y-63717752D01*
X143683314Y-63890709D01*
X143683317Y-63890713D01*
X143686134Y-63896195D01*
X143814586Y-64058261D01*
X143972071Y-64192291D01*
X144152589Y-64293180D01*
X144349266Y-64357084D01*
X144554609Y-64381570D01*
X144560744Y-64381098D01*
X144560746Y-64381098D01*
X144754656Y-64366177D01*
X144754660Y-64366176D01*
X144760798Y-64365704D01*
X144959978Y-64310092D01*
X144965482Y-64307312D01*
X144965484Y-64307311D01*
X145139062Y-64219631D01*
X145139064Y-64219630D01*
X145144563Y-64216852D01*
X145307522Y-64089534D01*
X145311548Y-64084870D01*
X145311551Y-64084867D01*
X145438619Y-63937657D01*
X145438620Y-63937655D01*
X145442648Y-63932989D01*
X145544795Y-63753179D01*
X145591788Y-63611911D01*
X145608125Y-63562801D01*
X145608126Y-63562798D01*
X145610070Y-63556953D01*
X145635989Y-63351786D01*
X145636402Y-63322200D01*
X145616222Y-63116389D01*
X145556451Y-62918417D01*
X145491208Y-62795712D01*
X145462259Y-62741267D01*
X145462257Y-62741264D01*
X145459365Y-62735825D01*
X145455474Y-62731055D01*
X145455472Y-62731051D01*
X145332558Y-62580343D01*
X145332555Y-62580340D01*
X145328663Y-62575568D01*
X145321766Y-62569862D01*
X145174071Y-62447678D01*
X145174066Y-62447675D01*
X145169322Y-62443750D01*
X145163903Y-62440820D01*
X145163900Y-62440818D01*
X144992832Y-62348322D01*
X144992827Y-62348320D01*
X144987412Y-62345392D01*
X144789863Y-62284240D01*
X144783738Y-62283596D01*
X144783737Y-62283596D01*
X144590326Y-62263268D01*
X144590324Y-62263268D01*
X144584197Y-62262624D01*
X144458029Y-62274106D01*
X144384391Y-62280807D01*
X144384390Y-62280807D01*
X144378250Y-62281366D01*
X144179866Y-62339754D01*
X144174407Y-62342608D01*
X144173721Y-62342885D01*
X144103067Y-62349854D01*
X144037432Y-62315152D01*
X141991992Y-60269712D01*
X141957966Y-60207400D01*
X141955593Y-60190514D01*
X141955632Y-60187303D01*
X141934983Y-60043116D01*
X141928957Y-60029862D01*
X141878411Y-59918693D01*
X141878410Y-59918691D01*
X141874695Y-59910521D01*
X141779616Y-59800176D01*
X141657388Y-59720951D01*
X141517837Y-59679217D01*
X141508861Y-59679162D01*
X141508860Y-59679162D01*
X141447547Y-59678788D01*
X141372182Y-59678327D01*
X141232132Y-59718354D01*
X141224545Y-59723141D01*
X141224543Y-59723142D01*
X141198185Y-59739773D01*
X141108945Y-59796079D01*
X141012525Y-59905254D01*
X140950622Y-60037103D01*
X140949242Y-60045968D01*
X140949241Y-60045970D01*
X140947902Y-60054573D01*
X140928212Y-60181027D01*
X136705001Y-60181027D01*
X135693448Y-59169474D01*
X135686022Y-59161370D01*
X135668436Y-59140412D01*
X135668433Y-59140410D01*
X135661349Y-59131967D01*
X135628125Y-59112784D01*
X135618854Y-59106879D01*
X135591304Y-59087588D01*
X135568122Y-59066623D01*
X135518368Y-59008881D01*
X135512507Y-59002079D01*
X135390279Y-58922854D01*
X135250728Y-58881120D01*
X135241752Y-58881065D01*
X135241751Y-58881065D01*
X135180438Y-58880691D01*
X135105073Y-58880230D01*
X134965023Y-58920257D01*
X134957436Y-58925044D01*
X134957434Y-58925045D01*
X134935076Y-58939152D01*
X134841836Y-58997982D01*
X134745416Y-59107157D01*
X134741602Y-59115280D01*
X134741601Y-59115282D01*
X134695727Y-59212991D01*
X134683513Y-59239006D01*
X134682133Y-59247871D01*
X134682132Y-59247873D01*
X134662719Y-59372554D01*
X134661103Y-59382930D01*
X134662267Y-59391832D01*
X134662267Y-59391836D01*
X134671487Y-59462345D01*
X134660486Y-59532484D01*
X134613312Y-59585541D01*
X134544941Y-59604671D01*
X134477081Y-59583800D01*
X134457460Y-59567779D01*
X133818705Y-58929025D01*
X133784679Y-58866713D01*
X133781800Y-58839930D01*
X133781800Y-58607006D01*
X133801802Y-58538885D01*
X133814385Y-58522451D01*
X133870973Y-58459934D01*
X133870974Y-58459932D01*
X133877001Y-58453274D01*
X133883722Y-58439403D01*
X133936595Y-58330272D01*
X133936595Y-58330271D01*
X133940510Y-58322191D01*
X133964676Y-58178552D01*
X133964829Y-58166000D01*
X133947146Y-58042522D01*
X133945454Y-58030706D01*
X133945453Y-58030703D01*
X133944180Y-58021813D01*
X133940462Y-58013635D01*
X133887608Y-57897390D01*
X133887607Y-57897388D01*
X133883892Y-57889218D01*
X133788813Y-57778873D01*
X133666585Y-57699648D01*
X133527034Y-57657914D01*
X133518058Y-57657859D01*
X133518057Y-57657859D01*
X133456744Y-57657485D01*
X133381379Y-57657024D01*
X133241329Y-57697051D01*
X133118142Y-57774776D01*
X133021722Y-57883951D01*
X132959819Y-58015800D01*
X132958439Y-58024665D01*
X132958438Y-58024667D01*
X132957532Y-58030487D01*
X132937409Y-58159724D01*
X132938574Y-58168632D01*
X132938538Y-58171567D01*
X132917707Y-58239439D01*
X132863488Y-58285274D01*
X132795857Y-58294386D01*
X132790934Y-58292914D01*
X132781961Y-58292859D01*
X132781960Y-58292859D01*
X132716909Y-58292462D01*
X132645279Y-58292024D01*
X132505229Y-58332051D01*
X132382042Y-58409776D01*
X132285622Y-58518951D01*
X132281808Y-58527074D01*
X132281807Y-58527076D01*
X132229845Y-58637752D01*
X132223719Y-58650800D01*
X132222339Y-58659665D01*
X132222338Y-58659667D01*
X132219400Y-58678540D01*
X132201309Y-58794724D01*
X130235747Y-58794724D01*
X130304795Y-58673179D01*
X130349468Y-58538885D01*
X130368125Y-58482801D01*
X130368126Y-58482798D01*
X130370070Y-58476953D01*
X130395989Y-58271786D01*
X130396402Y-58242200D01*
X130376222Y-58036389D01*
X130316451Y-57838417D01*
X130267908Y-57747121D01*
X130222259Y-57661267D01*
X130222257Y-57661264D01*
X130219365Y-57655825D01*
X130215474Y-57651055D01*
X130215472Y-57651051D01*
X130092558Y-57500343D01*
X130092555Y-57500340D01*
X130088663Y-57495568D01*
X130081766Y-57489862D01*
X129934071Y-57367678D01*
X129934066Y-57367675D01*
X129929322Y-57363750D01*
X129923903Y-57360820D01*
X129923900Y-57360818D01*
X129752832Y-57268322D01*
X129752827Y-57268320D01*
X129747412Y-57265392D01*
X129549863Y-57204240D01*
X129543738Y-57203596D01*
X129543737Y-57203596D01*
X129350326Y-57183268D01*
X129350324Y-57183268D01*
X129344197Y-57182624D01*
X129218029Y-57194106D01*
X129144391Y-57200807D01*
X129144390Y-57200807D01*
X129138250Y-57201366D01*
X128939866Y-57259754D01*
X128934401Y-57262611D01*
X128762061Y-57352708D01*
X128762057Y-57352711D01*
X128756601Y-57355563D01*
X128595435Y-57485143D01*
X128462508Y-57643560D01*
X128362882Y-57824778D01*
X128300353Y-58021896D01*
X128299667Y-58028013D01*
X128299666Y-58028017D01*
X128298727Y-58036389D01*
X128277301Y-58227406D01*
X127254500Y-58227406D01*
X127254500Y-51591267D01*
X127808476Y-51591267D01*
X127818409Y-51628339D01*
X127820785Y-51639057D01*
X127825145Y-51663782D01*
X127827449Y-51676851D01*
X127832960Y-51686396D01*
X127834231Y-51689889D01*
X127835806Y-51693267D01*
X127838660Y-51703916D01*
X127844984Y-51712947D01*
X127844985Y-51712950D01*
X127860673Y-51735355D01*
X127866578Y-51744624D01*
X127885761Y-51777849D01*
X127894204Y-51784933D01*
X127894206Y-51784936D01*
X127915164Y-51802522D01*
X127923268Y-51809948D01*
X128149052Y-52035732D01*
X128156478Y-52043836D01*
X128174063Y-52064793D01*
X128174066Y-52064796D01*
X128181151Y-52073239D01*
X128190698Y-52078751D01*
X128214383Y-52092426D01*
X128223639Y-52098322D01*
X128255083Y-52120340D01*
X128265735Y-52123194D01*
X128269114Y-52124770D01*
X128272603Y-52126040D01*
X128282149Y-52131551D01*
X128319945Y-52138216D01*
X128330661Y-52140591D01*
X128367733Y-52150524D01*
X128378708Y-52149564D01*
X128378709Y-52149564D01*
X128405968Y-52147179D01*
X128416949Y-52146700D01*
X128559077Y-52146700D01*
X128627198Y-52166702D01*
X128673691Y-52220358D01*
X128683795Y-52290632D01*
X128654301Y-52355212D01*
X128638028Y-52370897D01*
X128600239Y-52401279D01*
X128600230Y-52401287D01*
X128595435Y-52405143D01*
X128462508Y-52563560D01*
X128362882Y-52744778D01*
X128300353Y-52941896D01*
X128277301Y-53147406D01*
X128278543Y-53162200D01*
X128293601Y-53341506D01*
X128294606Y-53353478D01*
X128351607Y-53552266D01*
X128354425Y-53557748D01*
X128354426Y-53557752D01*
X128443314Y-53730709D01*
X128443317Y-53730713D01*
X128446134Y-53736195D01*
X128574586Y-53898261D01*
X128579279Y-53902255D01*
X128579280Y-53902256D01*
X128723857Y-54025300D01*
X128732071Y-54032291D01*
X128912589Y-54133180D01*
X129109266Y-54197084D01*
X129314609Y-54221570D01*
X129320744Y-54221098D01*
X129320746Y-54221098D01*
X129436695Y-54212176D01*
X129520798Y-54205704D01*
X129520881Y-54206786D01*
X129585511Y-54213995D01*
X129640614Y-54258764D01*
X129662766Y-54326216D01*
X129662413Y-54331871D01*
X129662800Y-54331876D01*
X129662690Y-54340853D01*
X129661309Y-54349724D01*
X129662473Y-54358626D01*
X129662473Y-54358629D01*
X129679031Y-54485251D01*
X129680195Y-54494152D01*
X129683810Y-54502368D01*
X129684568Y-54505082D01*
X129683622Y-54576072D01*
X129644446Y-54635281D01*
X129579478Y-54663911D01*
X129550008Y-54662862D01*
X129549863Y-54664240D01*
X129350326Y-54643268D01*
X129350324Y-54643268D01*
X129344197Y-54642624D01*
X129219027Y-54654015D01*
X129144391Y-54660807D01*
X129144390Y-54660807D01*
X129138250Y-54661366D01*
X128939866Y-54719754D01*
X128934401Y-54722611D01*
X128762061Y-54812708D01*
X128762057Y-54812711D01*
X128756601Y-54815563D01*
X128595435Y-54945143D01*
X128462508Y-55103560D01*
X128362882Y-55284778D01*
X128300353Y-55481896D01*
X128299667Y-55488013D01*
X128299666Y-55488017D01*
X128290647Y-55568427D01*
X128277301Y-55687406D01*
X128278382Y-55700276D01*
X128291216Y-55853105D01*
X128294606Y-55893478D01*
X128351607Y-56092266D01*
X128354425Y-56097748D01*
X128354426Y-56097752D01*
X128443314Y-56270709D01*
X128443317Y-56270713D01*
X128446134Y-56276195D01*
X128574586Y-56438261D01*
X128732071Y-56572291D01*
X128912589Y-56673180D01*
X129109266Y-56737084D01*
X129314609Y-56761570D01*
X129320744Y-56761098D01*
X129320746Y-56761098D01*
X129514656Y-56746177D01*
X129514660Y-56746176D01*
X129520798Y-56745704D01*
X129719978Y-56690092D01*
X129725482Y-56687312D01*
X129725484Y-56687311D01*
X129899062Y-56599631D01*
X129899064Y-56599630D01*
X129904563Y-56596852D01*
X130067522Y-56469534D01*
X130071548Y-56464870D01*
X130071551Y-56464867D01*
X130198619Y-56317657D01*
X130198620Y-56317655D01*
X130202648Y-56312989D01*
X130304795Y-56133179D01*
X130370070Y-55936953D01*
X130381788Y-55844200D01*
X140946027Y-55844200D01*
X140947191Y-55853102D01*
X140947191Y-55853105D01*
X140957356Y-55930834D01*
X140964913Y-55988628D01*
X140968527Y-55996841D01*
X140968528Y-55996845D01*
X141007908Y-56086340D01*
X141023577Y-56121950D01*
X141029352Y-56128820D01*
X141029353Y-56128822D01*
X141037522Y-56138540D01*
X141117301Y-56233449D01*
X141124778Y-56238426D01*
X141231079Y-56309186D01*
X141231081Y-56309187D01*
X141238552Y-56314160D01*
X141377582Y-56357597D01*
X141439143Y-56358725D01*
X141506885Y-56379972D01*
X141525929Y-56395609D01*
X143015395Y-57885075D01*
X143049421Y-57947387D01*
X143052300Y-57974170D01*
X143052300Y-59174751D01*
X143051821Y-59185732D01*
X143049683Y-59210174D01*
X143048476Y-59223967D01*
X143058409Y-59261039D01*
X143060784Y-59271753D01*
X143067449Y-59309551D01*
X143072960Y-59319096D01*
X143074231Y-59322589D01*
X143075806Y-59325967D01*
X143078660Y-59336616D01*
X143084984Y-59345647D01*
X143084985Y-59345650D01*
X143100673Y-59368055D01*
X143106578Y-59377324D01*
X143125761Y-59410549D01*
X143134204Y-59417633D01*
X143134206Y-59417636D01*
X143155164Y-59435222D01*
X143163268Y-59442648D01*
X143712881Y-59992261D01*
X143746907Y-60054573D01*
X143741842Y-60125388D01*
X143720307Y-60162348D01*
X143706468Y-60178840D01*
X143706466Y-60178844D01*
X143702508Y-60183560D01*
X143602882Y-60364778D01*
X143540353Y-60561896D01*
X143539667Y-60568013D01*
X143539666Y-60568017D01*
X143525487Y-60694424D01*
X143517301Y-60767406D01*
X143534606Y-60973478D01*
X143591607Y-61172266D01*
X143594425Y-61177748D01*
X143594426Y-61177752D01*
X143683314Y-61350709D01*
X143683317Y-61350713D01*
X143686134Y-61356195D01*
X143814586Y-61518261D01*
X143972071Y-61652291D01*
X144152589Y-61753180D01*
X144349266Y-61817084D01*
X144554609Y-61841570D01*
X144560744Y-61841098D01*
X144560746Y-61841098D01*
X144754656Y-61826177D01*
X144754660Y-61826176D01*
X144760798Y-61825704D01*
X144959978Y-61770092D01*
X144965482Y-61767312D01*
X144965484Y-61767311D01*
X145139062Y-61679631D01*
X145139064Y-61679630D01*
X145144563Y-61676852D01*
X145307522Y-61549534D01*
X145311548Y-61544870D01*
X145311551Y-61544867D01*
X145438619Y-61397657D01*
X145438620Y-61397655D01*
X145442648Y-61392989D01*
X145544795Y-61213179D01*
X145610070Y-61016953D01*
X145635989Y-60811786D01*
X145636402Y-60782200D01*
X145616222Y-60576389D01*
X145556451Y-60378417D01*
X145507908Y-60287121D01*
X145462259Y-60201267D01*
X145462257Y-60201264D01*
X145459365Y-60195825D01*
X145455474Y-60191055D01*
X145455472Y-60191051D01*
X145332558Y-60040343D01*
X145332555Y-60040340D01*
X145328663Y-60035568D01*
X145321766Y-60029862D01*
X145174071Y-59907678D01*
X145174066Y-59907675D01*
X145169322Y-59903750D01*
X145163903Y-59900820D01*
X145163900Y-59900818D01*
X144992832Y-59808322D01*
X144992827Y-59808320D01*
X144987412Y-59805392D01*
X144789863Y-59744240D01*
X144783738Y-59743596D01*
X144783737Y-59743596D01*
X144590326Y-59723268D01*
X144590324Y-59723268D01*
X144584197Y-59722624D01*
X144454532Y-59734424D01*
X144384879Y-59720678D01*
X144354018Y-59698038D01*
X144103852Y-59447872D01*
X144069826Y-59385560D01*
X144074891Y-59314745D01*
X144117438Y-59257909D01*
X144183958Y-59233098D01*
X144231883Y-59238944D01*
X144349266Y-59277084D01*
X144554609Y-59301570D01*
X144560744Y-59301098D01*
X144560746Y-59301098D01*
X144754656Y-59286177D01*
X144754660Y-59286176D01*
X144760798Y-59285704D01*
X144959978Y-59230092D01*
X144965482Y-59227312D01*
X144965484Y-59227311D01*
X145139062Y-59139631D01*
X145139064Y-59139630D01*
X145144563Y-59136852D01*
X145307522Y-59009534D01*
X145311548Y-59004870D01*
X145311551Y-59004867D01*
X145438619Y-58857657D01*
X145438620Y-58857655D01*
X145442648Y-58852989D01*
X145544795Y-58673179D01*
X145589468Y-58538885D01*
X145608125Y-58482801D01*
X145608126Y-58482798D01*
X145610070Y-58476953D01*
X145635989Y-58271786D01*
X145636402Y-58242200D01*
X145616222Y-58036389D01*
X145556451Y-57838417D01*
X145507908Y-57747121D01*
X145462259Y-57661267D01*
X145462257Y-57661264D01*
X145459365Y-57655825D01*
X145455474Y-57651055D01*
X145455472Y-57651051D01*
X145332558Y-57500343D01*
X145332555Y-57500340D01*
X145328663Y-57495568D01*
X145321766Y-57489862D01*
X145174071Y-57367678D01*
X145174066Y-57367675D01*
X145169322Y-57363750D01*
X145163903Y-57360820D01*
X145163900Y-57360818D01*
X144992832Y-57268322D01*
X144992827Y-57268320D01*
X144987412Y-57265392D01*
X144789863Y-57204240D01*
X144783738Y-57203596D01*
X144783737Y-57203596D01*
X144590326Y-57183268D01*
X144590324Y-57183268D01*
X144584197Y-57182624D01*
X144458029Y-57194106D01*
X144384391Y-57200807D01*
X144384390Y-57200807D01*
X144378250Y-57201366D01*
X144179866Y-57259754D01*
X144174407Y-57262608D01*
X144173721Y-57262885D01*
X144103067Y-57269854D01*
X144037432Y-57235152D01*
X142078889Y-55276609D01*
X142044863Y-55214297D01*
X142042490Y-55197411D01*
X142042529Y-55194200D01*
X142030322Y-55108961D01*
X142023154Y-55058906D01*
X142023153Y-55058903D01*
X142021880Y-55050013D01*
X142018162Y-55041835D01*
X141965308Y-54925590D01*
X141965307Y-54925588D01*
X141961592Y-54917418D01*
X141866513Y-54807073D01*
X141744285Y-54727848D01*
X141604734Y-54686114D01*
X141595758Y-54686059D01*
X141595757Y-54686059D01*
X141534444Y-54685685D01*
X141459079Y-54685224D01*
X141319029Y-54725251D01*
X141311442Y-54730038D01*
X141311440Y-54730039D01*
X141245177Y-54771848D01*
X141195842Y-54802976D01*
X141189900Y-54809704D01*
X141181086Y-54819684D01*
X141099422Y-54912151D01*
X141095608Y-54920274D01*
X141095607Y-54920276D01*
X141076796Y-54960343D01*
X141037519Y-55044000D01*
X141036139Y-55052865D01*
X141036138Y-55052867D01*
X141027079Y-55111051D01*
X141015109Y-55187924D01*
X141016273Y-55196826D01*
X141016273Y-55196829D01*
X141021303Y-55235294D01*
X141033995Y-55332352D01*
X141037610Y-55340567D01*
X141037610Y-55340568D01*
X141069659Y-55413403D01*
X141078787Y-55483810D01*
X141048771Y-55547558D01*
X141030340Y-55568427D01*
X140968437Y-55700276D01*
X140967057Y-55709141D01*
X140967056Y-55709143D01*
X140963531Y-55731786D01*
X140946027Y-55844200D01*
X130381788Y-55844200D01*
X130395989Y-55731786D01*
X130396402Y-55702200D01*
X130376222Y-55496389D01*
X130316451Y-55298417D01*
X130262436Y-55196829D01*
X130222259Y-55121267D01*
X130222257Y-55121264D01*
X130219365Y-55115825D01*
X130215474Y-55111055D01*
X130215472Y-55111051D01*
X130178528Y-55065754D01*
X130150974Y-55000322D01*
X130163169Y-54930381D01*
X130211242Y-54878136D01*
X130243028Y-54864555D01*
X130274726Y-54855913D01*
X130379026Y-54827477D01*
X130391719Y-54819684D01*
X130495506Y-54755959D01*
X130495507Y-54755958D01*
X130503154Y-54751263D01*
X130524080Y-54728144D01*
X130584622Y-54691064D01*
X130617495Y-54686700D01*
X131312733Y-54686700D01*
X131350063Y-54695151D01*
X131350834Y-54692684D01*
X131489864Y-54736121D01*
X131635498Y-54738790D01*
X131710760Y-54718271D01*
X131767363Y-54702839D01*
X131767364Y-54702839D01*
X131776026Y-54700477D01*
X131784701Y-54695151D01*
X131841396Y-54660340D01*
X131900154Y-54624263D01*
X131910133Y-54613239D01*
X131991873Y-54522934D01*
X131991874Y-54522933D01*
X131997901Y-54516274D01*
X132003324Y-54505082D01*
X132057495Y-54393272D01*
X132057495Y-54393271D01*
X132061410Y-54385191D01*
X132083535Y-54253685D01*
X132084770Y-54246344D01*
X132084770Y-54246341D01*
X132085576Y-54241552D01*
X132085729Y-54229000D01*
X132065080Y-54084813D01*
X132065031Y-54084706D01*
X132065108Y-54018168D01*
X132103559Y-53958485D01*
X132168174Y-53929066D01*
X132177758Y-53928806D01*
X132177733Y-53928524D01*
X132215968Y-53925179D01*
X132226949Y-53924700D01*
X133400244Y-53924700D01*
X133468365Y-53944702D01*
X133515572Y-53999951D01*
X133519534Y-54008954D01*
X133523459Y-54017874D01*
X133529234Y-54024744D01*
X133529235Y-54024746D01*
X133611403Y-54122497D01*
X133617183Y-54129373D01*
X133625650Y-54135009D01*
X133730961Y-54205110D01*
X133730963Y-54205111D01*
X133738434Y-54210084D01*
X133877464Y-54253521D01*
X134023098Y-54256190D01*
X134135750Y-54225477D01*
X134154963Y-54220239D01*
X134154964Y-54220239D01*
X134163626Y-54217877D01*
X134171959Y-54212761D01*
X134260073Y-54158659D01*
X134287754Y-54141663D01*
X134345710Y-54077635D01*
X134406250Y-54040556D01*
X134476697Y-54041925D01*
X134556555Y-54066875D01*
X134702189Y-54069544D01*
X134710853Y-54067182D01*
X134756776Y-54054662D01*
X134827759Y-54056042D01*
X134886369Y-54095150D01*
X134919320Y-54134350D01*
X134925474Y-54141671D01*
X134932951Y-54146648D01*
X135039252Y-54217408D01*
X135039254Y-54217409D01*
X135046725Y-54222382D01*
X135185755Y-54265819D01*
X135331389Y-54268488D01*
X135412611Y-54246344D01*
X135463254Y-54232537D01*
X135463255Y-54232537D01*
X135471917Y-54230175D01*
X135480250Y-54225059D01*
X135556965Y-54177956D01*
X135596045Y-54153961D01*
X135656794Y-54086846D01*
X135717333Y-54049768D01*
X135787780Y-54051137D01*
X135812349Y-54058813D01*
X135957983Y-54061482D01*
X136048617Y-54036772D01*
X136119599Y-54038151D01*
X136178208Y-54077260D01*
X136192406Y-54094150D01*
X136199883Y-54099127D01*
X136306184Y-54169887D01*
X136306186Y-54169888D01*
X136313657Y-54174861D01*
X136452687Y-54218298D01*
X136598321Y-54220967D01*
X136668585Y-54201811D01*
X136730186Y-54185016D01*
X136730187Y-54185016D01*
X136738849Y-54182654D01*
X136747182Y-54177538D01*
X136816796Y-54134795D01*
X136862977Y-54106440D01*
X136869597Y-54099127D01*
X136954696Y-54005111D01*
X136954697Y-54005110D01*
X136960724Y-53998451D01*
X136966637Y-53986248D01*
X137020318Y-53875449D01*
X137020318Y-53875448D01*
X137024233Y-53867368D01*
X137048399Y-53723729D01*
X137048552Y-53711177D01*
X137027903Y-53566990D01*
X137023703Y-53557752D01*
X136971331Y-53442567D01*
X136971330Y-53442565D01*
X136967615Y-53434395D01*
X136872536Y-53324050D01*
X136796455Y-53274736D01*
X136757839Y-53249706D01*
X136757837Y-53249705D01*
X136750308Y-53244825D01*
X136746629Y-53243725D01*
X136713789Y-53220815D01*
X135597241Y-52104268D01*
X135589815Y-52096164D01*
X135572229Y-52075206D01*
X135572226Y-52075204D01*
X135565142Y-52066761D01*
X135531918Y-52047578D01*
X135522648Y-52041673D01*
X135500243Y-52025985D01*
X135500240Y-52025984D01*
X135491209Y-52019660D01*
X135480560Y-52016806D01*
X135477182Y-52015231D01*
X135473689Y-52013960D01*
X135464144Y-52008449D01*
X135453291Y-52006535D01*
X135453290Y-52006535D01*
X135442193Y-52004578D01*
X135426346Y-52001784D01*
X135415632Y-51999409D01*
X135378560Y-51989476D01*
X135367585Y-51990436D01*
X135367584Y-51990436D01*
X135340325Y-51992821D01*
X135329344Y-51993300D01*
X132850380Y-51993300D01*
X132782259Y-51973298D01*
X132761285Y-51956396D01*
X131939605Y-51134717D01*
X131905580Y-51072404D01*
X131902700Y-51045621D01*
X131902700Y-50030951D01*
X131922702Y-49962830D01*
X131976358Y-49916337D01*
X132046632Y-49906233D01*
X132111212Y-49935727D01*
X132135843Y-49964645D01*
X132136791Y-49966177D01*
X132145824Y-49977574D01*
X132256429Y-50087986D01*
X132267840Y-50096998D01*
X132400880Y-50179004D01*
X132414061Y-50185151D01*
X132562814Y-50234491D01*
X132576190Y-50237358D01*
X132667097Y-50246672D01*
X132673513Y-50247000D01*
X132696885Y-50247000D01*
X132712124Y-50242525D01*
X132713329Y-50241135D01*
X132715000Y-50233452D01*
X132715000Y-50228885D01*
X133223000Y-50228885D01*
X133227475Y-50244124D01*
X133228865Y-50245329D01*
X133236548Y-50247000D01*
X133264438Y-50247000D01*
X133270953Y-50246663D01*
X133363057Y-50237106D01*
X133376456Y-50234212D01*
X133525107Y-50184619D01*
X133538286Y-50178445D01*
X133671173Y-50096212D01*
X133682574Y-50087176D01*
X133792986Y-49976571D01*
X133801998Y-49965160D01*
X133884004Y-49832120D01*
X133890151Y-49818939D01*
X133939491Y-49670186D01*
X133942358Y-49656810D01*
X133951672Y-49565903D01*
X133951929Y-49560874D01*
X133947525Y-49545876D01*
X133946135Y-49544671D01*
X133938452Y-49543000D01*
X133241115Y-49543000D01*
X133225876Y-49547475D01*
X133224671Y-49548865D01*
X133223000Y-49556548D01*
X133223000Y-50228885D01*
X132715000Y-50228885D01*
X132715000Y-49161000D01*
X132735002Y-49092879D01*
X132788658Y-49046386D01*
X132841000Y-49035000D01*
X133933885Y-49035000D01*
X133949124Y-49030525D01*
X133950329Y-49029135D01*
X133952000Y-49021452D01*
X133952000Y-49018562D01*
X133951663Y-49012047D01*
X133942106Y-48919943D01*
X133939212Y-48906544D01*
X133889619Y-48757893D01*
X133883445Y-48744714D01*
X133801212Y-48611827D01*
X133792176Y-48600426D01*
X133681571Y-48490014D01*
X133670160Y-48481002D01*
X133623898Y-48452486D01*
X133576405Y-48399714D01*
X133564981Y-48329642D01*
X133589188Y-48269661D01*
X133638532Y-48203821D01*
X133638534Y-48203818D01*
X133643917Y-48196635D01*
X133692130Y-48068024D01*
X133698500Y-48009389D01*
X133698499Y-47468612D01*
X133698130Y-47465212D01*
X133692984Y-47417834D01*
X133692983Y-47417830D01*
X133692130Y-47409976D01*
X133656667Y-47315376D01*
X133647068Y-47289770D01*
X133647067Y-47289769D01*
X133643917Y-47281365D01*
X133638537Y-47274186D01*
X133638535Y-47274183D01*
X133566923Y-47178633D01*
X133561544Y-47171456D01*
X133554367Y-47166077D01*
X133458817Y-47094465D01*
X133458814Y-47094463D01*
X133451635Y-47089083D01*
X133443230Y-47085932D01*
X133330419Y-47043642D01*
X133330418Y-47043642D01*
X133323024Y-47040870D01*
X133315174Y-47040017D01*
X133315173Y-47040017D01*
X133267786Y-47034869D01*
X133267785Y-47034869D01*
X133264389Y-47034500D01*
X132970974Y-47034500D01*
X132902853Y-47014498D01*
X132856360Y-46960842D01*
X132846256Y-46890568D01*
X132875750Y-46825988D01*
X132881879Y-46819405D01*
X133939846Y-45761438D01*
X139110000Y-45761438D01*
X139110337Y-45767953D01*
X139119894Y-45860057D01*
X139122788Y-45873456D01*
X139172381Y-46022107D01*
X139178555Y-46035286D01*
X139260788Y-46168173D01*
X139269824Y-46179574D01*
X139380429Y-46289986D01*
X139391840Y-46298998D01*
X139524880Y-46381004D01*
X139538061Y-46387151D01*
X139686814Y-46436491D01*
X139700190Y-46439358D01*
X139791097Y-46448672D01*
X139796126Y-46448929D01*
X139811124Y-46444525D01*
X139812329Y-46443135D01*
X139814000Y-46435452D01*
X139814000Y-45738115D01*
X139809525Y-45722876D01*
X139808135Y-45721671D01*
X139800452Y-45720000D01*
X139128115Y-45720000D01*
X139112876Y-45724475D01*
X139111671Y-45725865D01*
X139110000Y-45733548D01*
X139110000Y-45761438D01*
X133939846Y-45761438D01*
X134507399Y-45193885D01*
X139110000Y-45193885D01*
X139114475Y-45209124D01*
X139115865Y-45210329D01*
X139123548Y-45212000D01*
X139795885Y-45212000D01*
X139811124Y-45207525D01*
X139812329Y-45206135D01*
X139814000Y-45198452D01*
X139814000Y-44501115D01*
X139809525Y-44485876D01*
X139808135Y-44484671D01*
X139800452Y-44483000D01*
X139797562Y-44483000D01*
X139791047Y-44483337D01*
X139698943Y-44492894D01*
X139685544Y-44495788D01*
X139536893Y-44545381D01*
X139523714Y-44551555D01*
X139390827Y-44633788D01*
X139379426Y-44642824D01*
X139269014Y-44753429D01*
X139260002Y-44764840D01*
X139177996Y-44897880D01*
X139171849Y-44911061D01*
X139122509Y-45059814D01*
X139119642Y-45073190D01*
X139110328Y-45164097D01*
X139110000Y-45170514D01*
X139110000Y-45193885D01*
X134507399Y-45193885D01*
X134843988Y-44857296D01*
X134852092Y-44849870D01*
X134873050Y-44832284D01*
X134873052Y-44832281D01*
X134881495Y-44825197D01*
X134900678Y-44791972D01*
X134906583Y-44782703D01*
X134922271Y-44760298D01*
X134922272Y-44760295D01*
X134928596Y-44751264D01*
X134931450Y-44740615D01*
X134933025Y-44737237D01*
X134934296Y-44733744D01*
X134939807Y-44724199D01*
X134946472Y-44686401D01*
X134948847Y-44675687D01*
X134958780Y-44638615D01*
X134955435Y-44600380D01*
X134954956Y-44589399D01*
X134954956Y-43585205D01*
X134955435Y-43574224D01*
X134957820Y-43546965D01*
X134957820Y-43546964D01*
X134958780Y-43535989D01*
X134948847Y-43498917D01*
X134946471Y-43488199D01*
X134941721Y-43461259D01*
X134941721Y-43461258D01*
X134939807Y-43450405D01*
X134934296Y-43440860D01*
X134933025Y-43437367D01*
X134931450Y-43433989D01*
X134928596Y-43423340D01*
X134922272Y-43414309D01*
X134922271Y-43414306D01*
X134906583Y-43391901D01*
X134900677Y-43382631D01*
X134887006Y-43358952D01*
X134887005Y-43358951D01*
X134881495Y-43349407D01*
X134852103Y-43324744D01*
X134844000Y-43317319D01*
X134537223Y-43010543D01*
X134529797Y-43002439D01*
X134512213Y-42981483D01*
X134512212Y-42981482D01*
X134505129Y-42973041D01*
X134471905Y-42953858D01*
X134462635Y-42947953D01*
X134440230Y-42932265D01*
X134440227Y-42932264D01*
X134431196Y-42925940D01*
X134420547Y-42923086D01*
X134417169Y-42921511D01*
X134413676Y-42920240D01*
X134404131Y-42914729D01*
X134393278Y-42912815D01*
X134393277Y-42912815D01*
X134382180Y-42910858D01*
X134366333Y-42908064D01*
X134355619Y-42905689D01*
X134318547Y-42895756D01*
X134307572Y-42896716D01*
X134307571Y-42896716D01*
X134280312Y-42899101D01*
X134269331Y-42899580D01*
X132811669Y-42899580D01*
X132800688Y-42899101D01*
X132773429Y-42896716D01*
X132773428Y-42896716D01*
X132762453Y-42895756D01*
X132725381Y-42905689D01*
X132714667Y-42908064D01*
X132698820Y-42910858D01*
X132687723Y-42912815D01*
X132687722Y-42912815D01*
X132676869Y-42914729D01*
X132667324Y-42920240D01*
X132663831Y-42921511D01*
X132660453Y-42923086D01*
X132649804Y-42925940D01*
X132640773Y-42932264D01*
X132640770Y-42932265D01*
X132618365Y-42947953D01*
X132609095Y-42953858D01*
X132575871Y-42973041D01*
X132568787Y-42981484D01*
X132568784Y-42981486D01*
X132551198Y-43002444D01*
X132543772Y-43010548D01*
X132157847Y-43396473D01*
X132095535Y-43430499D01*
X132067983Y-43433376D01*
X132032360Y-43433159D01*
X132010279Y-43433024D01*
X131870229Y-43473051D01*
X131862642Y-43477838D01*
X131862640Y-43477839D01*
X131797396Y-43519005D01*
X131747042Y-43550776D01*
X131650622Y-43659951D01*
X131646808Y-43668074D01*
X131646807Y-43668076D01*
X131592533Y-43783676D01*
X131588719Y-43791800D01*
X131587339Y-43800665D01*
X131587338Y-43800667D01*
X131572362Y-43896852D01*
X131566309Y-43935724D01*
X131567473Y-43944626D01*
X131567473Y-43944629D01*
X131573418Y-43990092D01*
X131585195Y-44080152D01*
X131588809Y-44088365D01*
X131588810Y-44088369D01*
X131628567Y-44178722D01*
X131643859Y-44213474D01*
X131737583Y-44324973D01*
X131745060Y-44329950D01*
X131851361Y-44400710D01*
X131851363Y-44400711D01*
X131858834Y-44405684D01*
X131997864Y-44449121D01*
X132143498Y-44451790D01*
X132179896Y-44441867D01*
X132231081Y-44427912D01*
X132302064Y-44429292D01*
X132361033Y-44468829D01*
X132389265Y-44533970D01*
X132378278Y-44603023D01*
X132370942Y-44618648D01*
X132337919Y-44688986D01*
X132333835Y-44697684D01*
X132332455Y-44706549D01*
X132332454Y-44706551D01*
X132312877Y-44832284D01*
X132311425Y-44841608D01*
X132312589Y-44850510D01*
X132312589Y-44850513D01*
X132324110Y-44938618D01*
X132313109Y-45008757D01*
X132288269Y-45044051D01*
X131609795Y-45722524D01*
X131547483Y-45756549D01*
X131476667Y-45751484D01*
X131419832Y-45708937D01*
X131395021Y-45642417D01*
X131394700Y-45633428D01*
X131394700Y-45526006D01*
X131414702Y-45457885D01*
X131427285Y-45441451D01*
X131483873Y-45378934D01*
X131483874Y-45378932D01*
X131489901Y-45372274D01*
X131495951Y-45359788D01*
X131549495Y-45249272D01*
X131549495Y-45249271D01*
X131553410Y-45241191D01*
X131572007Y-45130651D01*
X131576770Y-45102344D01*
X131576770Y-45102341D01*
X131577576Y-45097552D01*
X131577729Y-45085000D01*
X131564861Y-44995143D01*
X131558354Y-44949706D01*
X131558353Y-44949703D01*
X131557080Y-44940813D01*
X131553362Y-44932635D01*
X131500508Y-44816390D01*
X131500507Y-44816388D01*
X131496792Y-44808218D01*
X131401713Y-44697873D01*
X131279485Y-44618648D01*
X131139934Y-44576914D01*
X131130958Y-44576859D01*
X131130957Y-44576859D01*
X131069644Y-44576485D01*
X130994279Y-44576024D01*
X130854229Y-44616051D01*
X130846642Y-44620838D01*
X130846640Y-44620839D01*
X130796131Y-44652708D01*
X130731042Y-44693776D01*
X130725100Y-44700504D01*
X130713759Y-44713345D01*
X130634622Y-44802951D01*
X130630808Y-44811074D01*
X130630807Y-44811076D01*
X130576533Y-44926676D01*
X130572719Y-44934800D01*
X130571339Y-44943665D01*
X130571338Y-44943667D01*
X130569544Y-44955190D01*
X130550309Y-45078724D01*
X130550526Y-45080387D01*
X130530774Y-45144745D01*
X130476556Y-45190580D01*
X130406164Y-45199827D01*
X130341947Y-45169549D01*
X130314363Y-45134490D01*
X130222259Y-44961267D01*
X130222257Y-44961264D01*
X130219365Y-44955825D01*
X130215474Y-44951055D01*
X130215472Y-44951051D01*
X130092558Y-44800343D01*
X130092555Y-44800340D01*
X130088663Y-44795568D01*
X130081766Y-44789862D01*
X129934071Y-44667678D01*
X129934066Y-44667675D01*
X129929322Y-44663750D01*
X129923903Y-44660820D01*
X129923900Y-44660818D01*
X129752832Y-44568322D01*
X129752827Y-44568320D01*
X129747412Y-44565392D01*
X129549863Y-44504240D01*
X129543738Y-44503596D01*
X129543737Y-44503596D01*
X129350326Y-44483268D01*
X129350324Y-44483268D01*
X129344197Y-44482624D01*
X129254443Y-44490792D01*
X129144391Y-44500807D01*
X129144390Y-44500807D01*
X129138250Y-44501366D01*
X128939866Y-44559754D01*
X128934401Y-44562611D01*
X128762061Y-44652708D01*
X128762057Y-44652711D01*
X128756601Y-44655563D01*
X128595435Y-44785143D01*
X128462508Y-44943560D01*
X128362882Y-45124778D01*
X128361019Y-45130651D01*
X128323391Y-45249272D01*
X128300353Y-45321896D01*
X128299667Y-45328013D01*
X128299666Y-45328017D01*
X128279054Y-45511775D01*
X128277301Y-45527406D01*
X128278543Y-45542200D01*
X128293967Y-45725865D01*
X128294606Y-45733478D01*
X128351607Y-45932266D01*
X128354425Y-45937748D01*
X128354426Y-45937752D01*
X128443314Y-46110709D01*
X128443317Y-46110713D01*
X128446134Y-46116195D01*
X128574586Y-46278261D01*
X128579279Y-46282255D01*
X128579280Y-46282256D01*
X128661341Y-46352095D01*
X128700254Y-46411478D01*
X128700885Y-46482471D01*
X128663033Y-46542536D01*
X128640010Y-46557608D01*
X128636084Y-46558660D01*
X128627053Y-46564984D01*
X128627050Y-46564985D01*
X128604645Y-46580673D01*
X128595375Y-46586579D01*
X128562151Y-46605761D01*
X128555068Y-46614202D01*
X128555067Y-46614203D01*
X128537488Y-46635153D01*
X128530063Y-46643256D01*
X127923263Y-47250057D01*
X127915159Y-47257483D01*
X127885761Y-47282151D01*
X127878945Y-47293957D01*
X127866578Y-47315376D01*
X127860673Y-47324645D01*
X127844985Y-47347050D01*
X127844984Y-47347053D01*
X127838660Y-47356084D01*
X127835806Y-47366733D01*
X127834231Y-47370111D01*
X127832960Y-47373604D01*
X127827449Y-47383149D01*
X127825535Y-47394002D01*
X127825535Y-47394003D01*
X127820785Y-47420943D01*
X127818409Y-47431661D01*
X127808476Y-47468733D01*
X127809436Y-47479708D01*
X127809436Y-47479709D01*
X127811821Y-47506968D01*
X127812300Y-47517949D01*
X127812300Y-51542051D01*
X127811821Y-51553032D01*
X127809685Y-51577453D01*
X127808476Y-51591267D01*
X127254500Y-51591267D01*
X127254500Y-39913396D01*
X127274502Y-39845275D01*
X127328158Y-39798782D01*
X127398432Y-39788678D01*
X127463012Y-39818172D01*
X127469595Y-39824301D01*
X127648395Y-40003101D01*
X127682421Y-40065413D01*
X127685300Y-40092196D01*
X127685300Y-41255051D01*
X127684821Y-41266032D01*
X127681476Y-41304267D01*
X127691409Y-41341339D01*
X127693785Y-41352057D01*
X127698473Y-41378642D01*
X127700449Y-41389851D01*
X127705960Y-41399396D01*
X127707231Y-41402889D01*
X127708806Y-41406267D01*
X127711660Y-41416916D01*
X127717984Y-41425947D01*
X127717985Y-41425950D01*
X127733673Y-41448355D01*
X127739578Y-41457624D01*
X127758761Y-41490849D01*
X127767204Y-41497933D01*
X127767206Y-41497936D01*
X127788164Y-41515522D01*
X127796268Y-41522948D01*
X128149052Y-41875732D01*
X128156478Y-41883836D01*
X128174063Y-41904793D01*
X128174066Y-41904796D01*
X128181151Y-41913239D01*
X128190698Y-41918751D01*
X128214383Y-41932426D01*
X128223639Y-41938322D01*
X128255083Y-41960340D01*
X128265735Y-41963194D01*
X128269114Y-41964770D01*
X128272604Y-41966040D01*
X128282149Y-41971551D01*
X128293002Y-41973465D01*
X128293003Y-41973465D01*
X128319953Y-41978217D01*
X128330682Y-41980596D01*
X128353464Y-41986700D01*
X128367733Y-41990523D01*
X128378709Y-41989563D01*
X128378710Y-41989563D01*
X128405960Y-41987179D01*
X128416940Y-41986700D01*
X128559077Y-41986700D01*
X128627198Y-42006702D01*
X128673691Y-42060358D01*
X128683795Y-42130632D01*
X128654301Y-42195212D01*
X128638028Y-42210897D01*
X128600239Y-42241279D01*
X128600230Y-42241287D01*
X128595435Y-42245143D01*
X128462508Y-42403560D01*
X128362882Y-42584778D01*
X128300353Y-42781896D01*
X128299667Y-42788013D01*
X128299666Y-42788017D01*
X128281726Y-42947953D01*
X128277301Y-42987406D01*
X128283554Y-43061863D01*
X128293432Y-43179492D01*
X128294606Y-43193478D01*
X128351607Y-43392266D01*
X128354425Y-43397748D01*
X128354426Y-43397752D01*
X128443314Y-43570709D01*
X128443317Y-43570713D01*
X128446134Y-43576195D01*
X128574586Y-43738261D01*
X128579279Y-43742255D01*
X128579280Y-43742256D01*
X128627949Y-43783676D01*
X128732071Y-43872291D01*
X128912589Y-43973180D01*
X129109266Y-44037084D01*
X129314609Y-44061570D01*
X129320744Y-44061098D01*
X129320746Y-44061098D01*
X129514656Y-44046177D01*
X129514660Y-44046176D01*
X129520798Y-44045704D01*
X129719978Y-43990092D01*
X129725482Y-43987312D01*
X129725484Y-43987311D01*
X129899062Y-43899631D01*
X129899064Y-43899630D01*
X129904563Y-43896852D01*
X130067522Y-43769534D01*
X130071548Y-43764870D01*
X130071551Y-43764867D01*
X130198619Y-43617657D01*
X130198620Y-43617655D01*
X130202648Y-43612989D01*
X130256039Y-43519005D01*
X130301750Y-43438540D01*
X130301752Y-43438536D01*
X130304795Y-43433179D01*
X130351379Y-43293142D01*
X130368125Y-43242801D01*
X130368126Y-43242798D01*
X130370070Y-43236953D01*
X130395989Y-43031786D01*
X130396402Y-43002200D01*
X130376222Y-42796389D01*
X130316451Y-42598417D01*
X130235980Y-42447073D01*
X130222259Y-42421267D01*
X130222257Y-42421264D01*
X130219365Y-42415825D01*
X130215471Y-42411050D01*
X130215468Y-42411046D01*
X130133971Y-42311120D01*
X130106417Y-42245689D01*
X130118613Y-42175747D01*
X130166685Y-42123502D01*
X130235372Y-42105541D01*
X130302866Y-42127566D01*
X130320708Y-42142389D01*
X130689063Y-42510744D01*
X130696488Y-42518847D01*
X130721151Y-42548239D01*
X130730695Y-42553749D01*
X130730696Y-42553750D01*
X130754375Y-42567421D01*
X130763645Y-42573327D01*
X130786050Y-42589015D01*
X130786053Y-42589016D01*
X130795084Y-42595340D01*
X130805733Y-42598194D01*
X130809111Y-42599769D01*
X130812604Y-42601040D01*
X130822149Y-42606551D01*
X130833002Y-42608465D01*
X130833003Y-42608465D01*
X130844100Y-42610422D01*
X130859947Y-42613216D01*
X130870661Y-42615591D01*
X130907733Y-42625524D01*
X130918708Y-42624564D01*
X130918709Y-42624564D01*
X130945968Y-42622179D01*
X130956949Y-42621700D01*
X131863078Y-42621700D01*
X131874059Y-42622179D01*
X131901318Y-42624564D01*
X131901319Y-42624564D01*
X131912294Y-42625524D01*
X131926338Y-42621761D01*
X131975379Y-42619277D01*
X131978698Y-42620314D01*
X132124332Y-42622983D01*
X132194596Y-42603827D01*
X132256197Y-42587032D01*
X132256198Y-42587032D01*
X132264860Y-42584670D01*
X132299260Y-42563549D01*
X132337944Y-42539797D01*
X132388988Y-42508456D01*
X132395314Y-42501468D01*
X132480707Y-42407127D01*
X132480708Y-42407126D01*
X132486735Y-42400467D01*
X132514695Y-42342757D01*
X132562397Y-42290174D01*
X132630395Y-42271716D01*
X132683587Y-42272691D01*
X132778978Y-42246684D01*
X132815452Y-42236740D01*
X132815453Y-42236740D01*
X132824115Y-42234378D01*
X132904341Y-42185119D01*
X132972857Y-42166523D01*
X133040085Y-42187608D01*
X133128834Y-42246684D01*
X133267864Y-42290121D01*
X133413498Y-42292790D01*
X133542454Y-42257632D01*
X133545363Y-42256839D01*
X133545364Y-42256839D01*
X133554026Y-42254477D01*
X133562359Y-42249361D01*
X133625004Y-42210897D01*
X133678154Y-42178263D01*
X133686247Y-42169323D01*
X134665044Y-42169323D01*
X134666208Y-42178225D01*
X134666208Y-42178228D01*
X134675030Y-42245689D01*
X134683930Y-42313751D01*
X134687544Y-42321964D01*
X134687545Y-42321968D01*
X134725017Y-42407127D01*
X134742594Y-42447073D01*
X134748369Y-42453943D01*
X134748370Y-42453945D01*
X134820536Y-42539797D01*
X134836318Y-42558572D01*
X134843795Y-42563549D01*
X134950096Y-42634309D01*
X134950098Y-42634310D01*
X134957569Y-42639283D01*
X134966133Y-42641959D01*
X134966138Y-42641961D01*
X135093690Y-42681811D01*
X135156943Y-42726514D01*
X135170456Y-42744544D01*
X135177633Y-42749923D01*
X135273183Y-42821535D01*
X135273186Y-42821537D01*
X135280365Y-42826917D01*
X135288769Y-42830067D01*
X135288770Y-42830068D01*
X135401581Y-42872358D01*
X135401582Y-42872358D01*
X135408976Y-42875130D01*
X135416826Y-42875983D01*
X135416827Y-42875983D01*
X135464205Y-42881130D01*
X135467611Y-42881500D01*
X135762956Y-42881500D01*
X136058388Y-42881499D01*
X136061782Y-42881130D01*
X136061788Y-42881130D01*
X136109166Y-42875984D01*
X136109170Y-42875983D01*
X136117024Y-42875130D01*
X136245635Y-42826917D01*
X136252814Y-42821537D01*
X136252817Y-42821535D01*
X136348367Y-42749923D01*
X136355544Y-42744544D01*
X136371453Y-42723317D01*
X136432535Y-42641817D01*
X136432537Y-42641814D01*
X136437917Y-42634635D01*
X136441068Y-42626230D01*
X136483358Y-42513419D01*
X136483358Y-42513418D01*
X136486130Y-42506024D01*
X136492500Y-42447389D01*
X136492499Y-41906612D01*
X136492185Y-41903724D01*
X137789309Y-41903724D01*
X137790473Y-41912626D01*
X137790473Y-41912629D01*
X137799050Y-41978217D01*
X137808195Y-42048152D01*
X137811809Y-42056365D01*
X137811810Y-42056369D01*
X137843300Y-42127933D01*
X137866859Y-42181474D01*
X137872634Y-42188344D01*
X137872635Y-42188346D01*
X137943534Y-42272691D01*
X137960583Y-42292973D01*
X137968060Y-42297950D01*
X138074361Y-42368710D01*
X138074363Y-42368711D01*
X138081834Y-42373684D01*
X138220864Y-42417121D01*
X138366498Y-42419790D01*
X138366457Y-42422040D01*
X138424264Y-42431465D01*
X138477035Y-42478959D01*
X138495752Y-42547444D01*
X138483829Y-42598621D01*
X138471355Y-42625190D01*
X138471354Y-42625194D01*
X138467540Y-42633317D01*
X138466160Y-42642182D01*
X138466159Y-42642184D01*
X138449384Y-42749923D01*
X138445130Y-42777241D01*
X138446294Y-42786143D01*
X138446294Y-42786146D01*
X138449564Y-42811149D01*
X138464016Y-42921669D01*
X138467630Y-42929882D01*
X138467631Y-42929886D01*
X138492941Y-42987406D01*
X138522680Y-43054991D01*
X138616404Y-43166490D01*
X138623881Y-43171467D01*
X138730182Y-43242227D01*
X138730184Y-43242228D01*
X138737655Y-43247201D01*
X138876685Y-43290638D01*
X139022319Y-43293307D01*
X139049008Y-43286031D01*
X139075640Y-43278770D01*
X139146623Y-43280150D01*
X139205592Y-43319687D01*
X139233717Y-43383994D01*
X139249013Y-43500966D01*
X139252627Y-43509179D01*
X139252628Y-43509183D01*
X139279701Y-43570709D01*
X139307677Y-43634288D01*
X139313452Y-43641158D01*
X139313453Y-43641160D01*
X139391014Y-43733430D01*
X139401401Y-43745787D01*
X139408878Y-43750764D01*
X139515179Y-43821524D01*
X139515181Y-43821525D01*
X139522652Y-43826498D01*
X139661682Y-43869935D01*
X139807316Y-43872604D01*
X139877580Y-43853447D01*
X139939181Y-43836653D01*
X139939182Y-43836653D01*
X139947844Y-43834291D01*
X139956177Y-43829175D01*
X140064320Y-43762775D01*
X140071972Y-43758077D01*
X140078592Y-43750764D01*
X140163691Y-43656748D01*
X140163692Y-43656747D01*
X140169719Y-43650088D01*
X140233228Y-43519005D01*
X140234123Y-43513683D01*
X140263944Y-43464736D01*
X140511275Y-43217405D01*
X140573587Y-43183379D01*
X140600370Y-43180500D01*
X142228630Y-43180500D01*
X142296751Y-43200502D01*
X142317725Y-43217405D01*
X142380395Y-43280075D01*
X142414421Y-43342387D01*
X142417300Y-43369170D01*
X142417300Y-44804468D01*
X142397298Y-44872589D01*
X142343642Y-44919082D01*
X142273368Y-44929186D01*
X142208788Y-44899692D01*
X142192518Y-44882228D01*
X142190923Y-44880633D01*
X142185544Y-44873456D01*
X142178367Y-44868077D01*
X142178364Y-44868074D01*
X142145938Y-44843772D01*
X142103423Y-44786912D01*
X142098397Y-44716094D01*
X142108111Y-44688008D01*
X142126427Y-44650204D01*
X142126427Y-44650203D01*
X142130342Y-44642123D01*
X142146618Y-44545381D01*
X142153702Y-44503276D01*
X142153702Y-44503273D01*
X142154508Y-44498484D01*
X142154661Y-44485932D01*
X142142948Y-44404141D01*
X142135286Y-44350638D01*
X142135285Y-44350635D01*
X142134012Y-44341745D01*
X142128649Y-44329950D01*
X142077440Y-44217322D01*
X142077439Y-44217320D01*
X142073724Y-44209150D01*
X141978645Y-44098805D01*
X141856417Y-44019580D01*
X141716866Y-43977846D01*
X141707890Y-43977791D01*
X141707889Y-43977791D01*
X141646576Y-43977417D01*
X141571211Y-43976956D01*
X141431161Y-44016983D01*
X141423574Y-44021770D01*
X141423572Y-44021771D01*
X141385641Y-44045704D01*
X141307974Y-44094708D01*
X141211554Y-44203883D01*
X141207740Y-44212006D01*
X141207739Y-44212008D01*
X141154702Y-44324973D01*
X141149651Y-44335732D01*
X141148271Y-44344597D01*
X141148270Y-44344599D01*
X141128927Y-44468829D01*
X141127241Y-44479656D01*
X141128405Y-44488558D01*
X141128405Y-44488561D01*
X141138214Y-44563570D01*
X141146127Y-44624084D01*
X141149743Y-44632301D01*
X141152157Y-44640949D01*
X141151390Y-44641163D01*
X141160000Y-44682108D01*
X141160000Y-44728330D01*
X141139998Y-44796451D01*
X141109565Y-44829156D01*
X141104788Y-44832736D01*
X141087306Y-44845838D01*
X141020799Y-44870685D01*
X140951417Y-44855631D01*
X140904598Y-44811314D01*
X140875212Y-44763827D01*
X140866176Y-44752426D01*
X140755571Y-44642014D01*
X140744160Y-44633002D01*
X140611120Y-44550996D01*
X140597939Y-44544849D01*
X140449186Y-44495509D01*
X140435810Y-44492642D01*
X140344903Y-44483328D01*
X140339874Y-44483071D01*
X140324876Y-44487475D01*
X140323671Y-44488865D01*
X140322000Y-44496548D01*
X140322000Y-46430885D01*
X140326475Y-46446124D01*
X140327865Y-46447329D01*
X140335548Y-46449000D01*
X140338438Y-46449000D01*
X140344953Y-46448663D01*
X140437057Y-46439106D01*
X140450456Y-46436212D01*
X140599107Y-46386619D01*
X140612286Y-46380445D01*
X140745173Y-46298212D01*
X140756574Y-46289176D01*
X140866986Y-46178571D01*
X140875998Y-46167160D01*
X140904515Y-46120897D01*
X140957288Y-46073403D01*
X141027359Y-46061980D01*
X141087338Y-46086186D01*
X141109567Y-46102846D01*
X141152080Y-46159704D01*
X141160000Y-46203670D01*
X141160000Y-48768913D01*
X141139998Y-48837034D01*
X141086342Y-48883527D01*
X141033230Y-48894911D01*
X140888079Y-48894024D01*
X140748029Y-48934051D01*
X140740442Y-48938838D01*
X140740440Y-48938839D01*
X140704029Y-48961813D01*
X140624842Y-49011776D01*
X140618900Y-49018504D01*
X140590930Y-49050174D01*
X140528422Y-49120951D01*
X140524608Y-49129074D01*
X140524607Y-49129076D01*
X140498065Y-49185609D01*
X140466519Y-49252800D01*
X140444109Y-49396724D01*
X140462995Y-49541152D01*
X140466609Y-49549365D01*
X140466610Y-49549369D01*
X140481456Y-49583107D01*
X140521659Y-49674474D01*
X140527434Y-49681344D01*
X140527435Y-49681346D01*
X140597551Y-49764759D01*
X140626072Y-49829775D01*
X140627100Y-49845834D01*
X140627100Y-51402851D01*
X140626621Y-51413832D01*
X140625113Y-51431074D01*
X140623276Y-51452067D01*
X140633209Y-51489139D01*
X140635584Y-51499853D01*
X140642249Y-51537651D01*
X140647760Y-51547196D01*
X140649031Y-51550689D01*
X140650606Y-51554067D01*
X140653460Y-51564716D01*
X140659784Y-51573747D01*
X140659785Y-51573750D01*
X140675473Y-51596155D01*
X140681378Y-51605424D01*
X140700561Y-51638649D01*
X140709004Y-51645733D01*
X140709006Y-51645736D01*
X140729964Y-51663322D01*
X140738068Y-51670748D01*
X143643052Y-54575732D01*
X143650478Y-54583836D01*
X143668064Y-54604794D01*
X143668067Y-54604796D01*
X143675151Y-54613239D01*
X143694245Y-54624263D01*
X143708376Y-54632422D01*
X143717645Y-54638327D01*
X143740050Y-54654015D01*
X143740053Y-54654016D01*
X143749084Y-54660340D01*
X143759733Y-54663194D01*
X143763111Y-54664769D01*
X143766604Y-54666040D01*
X143776149Y-54671551D01*
X143787002Y-54673465D01*
X143787003Y-54673465D01*
X143798100Y-54675422D01*
X143813947Y-54678216D01*
X143824664Y-54680592D01*
X143839639Y-54684604D01*
X143900260Y-54721558D01*
X143931280Y-54785419D01*
X143922849Y-54855913D01*
X143885976Y-54904507D01*
X143878376Y-54910618D01*
X143835435Y-54945143D01*
X143702508Y-55103560D01*
X143602882Y-55284778D01*
X143540353Y-55481896D01*
X143539667Y-55488013D01*
X143539666Y-55488017D01*
X143530647Y-55568427D01*
X143517301Y-55687406D01*
X143518382Y-55700276D01*
X143531216Y-55853105D01*
X143534606Y-55893478D01*
X143591607Y-56092266D01*
X143594425Y-56097748D01*
X143594426Y-56097752D01*
X143683314Y-56270709D01*
X143683317Y-56270713D01*
X143686134Y-56276195D01*
X143814586Y-56438261D01*
X143972071Y-56572291D01*
X144152589Y-56673180D01*
X144349266Y-56737084D01*
X144554609Y-56761570D01*
X144560744Y-56761098D01*
X144560746Y-56761098D01*
X144754656Y-56746177D01*
X144754660Y-56746176D01*
X144760798Y-56745704D01*
X144959978Y-56690092D01*
X144965482Y-56687312D01*
X144965484Y-56687311D01*
X145139062Y-56599631D01*
X145139064Y-56599630D01*
X145144563Y-56596852D01*
X145307522Y-56469534D01*
X145311548Y-56464870D01*
X145311551Y-56464867D01*
X145438619Y-56317657D01*
X145438620Y-56317655D01*
X145442648Y-56312989D01*
X145544795Y-56133179D01*
X145610070Y-55936953D01*
X145635989Y-55731786D01*
X145636402Y-55702200D01*
X145616222Y-55496389D01*
X145556451Y-55298417D01*
X145502436Y-55196829D01*
X145462259Y-55121267D01*
X145462257Y-55121264D01*
X145459365Y-55115825D01*
X145455474Y-55111055D01*
X145455472Y-55111051D01*
X145332558Y-54960343D01*
X145332555Y-54960340D01*
X145328663Y-54955568D01*
X145316062Y-54945143D01*
X145271973Y-54908670D01*
X145232234Y-54849836D01*
X145230612Y-54778858D01*
X145267622Y-54718271D01*
X145319674Y-54689879D01*
X145354344Y-54680590D01*
X145365053Y-54678216D01*
X145380900Y-54675422D01*
X145391997Y-54673465D01*
X145391998Y-54673465D01*
X145402851Y-54671551D01*
X145412396Y-54666040D01*
X145415889Y-54664769D01*
X145419267Y-54663194D01*
X145429916Y-54660340D01*
X145438947Y-54654016D01*
X145438950Y-54654015D01*
X145461355Y-54638327D01*
X145470624Y-54632422D01*
X145484755Y-54624263D01*
X145503849Y-54613239D01*
X145510933Y-54604796D01*
X145510936Y-54604794D01*
X145528522Y-54583836D01*
X145535948Y-54575732D01*
X145992335Y-54119345D01*
X146000439Y-54111919D01*
X146021397Y-54094333D01*
X146021399Y-54094330D01*
X146029842Y-54087246D01*
X146049025Y-54054021D01*
X146054930Y-54044752D01*
X146070618Y-54022347D01*
X146070619Y-54022344D01*
X146076943Y-54013313D01*
X146079797Y-54002664D01*
X146081372Y-53999286D01*
X146082643Y-53995793D01*
X146088154Y-53986248D01*
X146094819Y-53948450D01*
X146097194Y-53937736D01*
X146107127Y-53900664D01*
X146106164Y-53889648D01*
X146103782Y-53862429D01*
X146103303Y-53851448D01*
X146103303Y-49185609D01*
X146123305Y-49117488D01*
X146135888Y-49101054D01*
X146192476Y-49038537D01*
X146192477Y-49038535D01*
X146198504Y-49031877D01*
X146221105Y-48985230D01*
X146258098Y-48908875D01*
X146258098Y-48908874D01*
X146262013Y-48900794D01*
X146286179Y-48757155D01*
X146286332Y-48744603D01*
X146278652Y-48690975D01*
X146266957Y-48609309D01*
X146266956Y-48609306D01*
X146265683Y-48600416D01*
X146261965Y-48592238D01*
X146209111Y-48475993D01*
X146209110Y-48475991D01*
X146205395Y-48467821D01*
X146110316Y-48357476D01*
X145988088Y-48278251D01*
X145848537Y-48236517D01*
X145839561Y-48236462D01*
X145839560Y-48236462D01*
X145813938Y-48236306D01*
X145761257Y-48235984D01*
X145693260Y-48215566D01*
X145647096Y-48161627D01*
X145636039Y-48108229D01*
X145636353Y-48085707D01*
X145636402Y-48082200D01*
X145635012Y-48068024D01*
X145623380Y-47949386D01*
X145636640Y-47879639D01*
X145659684Y-47847996D01*
X146396732Y-47110948D01*
X146404836Y-47103522D01*
X146425794Y-47085936D01*
X146425796Y-47085933D01*
X146434239Y-47078849D01*
X146453422Y-47045624D01*
X146459327Y-47036355D01*
X146475015Y-47013950D01*
X146475016Y-47013947D01*
X146481340Y-47004916D01*
X146484194Y-46994267D01*
X146485769Y-46990889D01*
X146487040Y-46987396D01*
X146492551Y-46977851D01*
X146499216Y-46940053D01*
X146501591Y-46929339D01*
X146511524Y-46892267D01*
X146508179Y-46854032D01*
X146507700Y-46843051D01*
X146507700Y-42564949D01*
X146508179Y-42553968D01*
X146510564Y-42526709D01*
X146510564Y-42526708D01*
X146511524Y-42515733D01*
X146501591Y-42478661D01*
X146499215Y-42467943D01*
X146494465Y-42441003D01*
X146494465Y-42441002D01*
X146492551Y-42430149D01*
X146487040Y-42420604D01*
X146485769Y-42417111D01*
X146484194Y-42413733D01*
X146481340Y-42403084D01*
X146475016Y-42394053D01*
X146475015Y-42394050D01*
X146459327Y-42371645D01*
X146453421Y-42362375D01*
X146439750Y-42338696D01*
X146439749Y-42338695D01*
X146434239Y-42329151D01*
X146404847Y-42304488D01*
X146396744Y-42297063D01*
X145662943Y-41563263D01*
X145655517Y-41555159D01*
X145637933Y-41534203D01*
X145637932Y-41534202D01*
X145630849Y-41525761D01*
X145597625Y-41506578D01*
X145588355Y-41500673D01*
X145565950Y-41484985D01*
X145565947Y-41484984D01*
X145556916Y-41478660D01*
X145546267Y-41475806D01*
X145542889Y-41474231D01*
X145539396Y-41472960D01*
X145529851Y-41467449D01*
X145518998Y-41465535D01*
X145518997Y-41465535D01*
X145507900Y-41463578D01*
X145492053Y-41460784D01*
X145481339Y-41458409D01*
X145444267Y-41448476D01*
X145433292Y-41449436D01*
X145433291Y-41449436D01*
X145406032Y-41451821D01*
X145395051Y-41452300D01*
X145387745Y-41452300D01*
X145319624Y-41432298D01*
X145273131Y-41378642D01*
X145263027Y-41308368D01*
X145292521Y-41243788D01*
X145300852Y-41235055D01*
X145302663Y-41233330D01*
X145307522Y-41229534D01*
X145379932Y-41145646D01*
X145438619Y-41077657D01*
X145438620Y-41077655D01*
X145442648Y-41072989D01*
X145505564Y-40962237D01*
X145541750Y-40898540D01*
X145541752Y-40898536D01*
X145544795Y-40893179D01*
X145594462Y-40743873D01*
X145608125Y-40702801D01*
X145608126Y-40702798D01*
X145610070Y-40696953D01*
X145635989Y-40491786D01*
X145636402Y-40462200D01*
X145616222Y-40256389D01*
X145556451Y-40058417D01*
X145479342Y-39913396D01*
X145462259Y-39881267D01*
X145462257Y-39881264D01*
X145459365Y-39875825D01*
X145455474Y-39871055D01*
X145455472Y-39871051D01*
X145332558Y-39720343D01*
X145332555Y-39720340D01*
X145328663Y-39715568D01*
X145321766Y-39709862D01*
X145174071Y-39587678D01*
X145174066Y-39587675D01*
X145169322Y-39583750D01*
X145163903Y-39580820D01*
X145163900Y-39580818D01*
X144992832Y-39488322D01*
X144992827Y-39488320D01*
X144987412Y-39485392D01*
X144789863Y-39424240D01*
X144783738Y-39423596D01*
X144783737Y-39423596D01*
X144590326Y-39403268D01*
X144590324Y-39403268D01*
X144584197Y-39402624D01*
X144458029Y-39414106D01*
X144384391Y-39420807D01*
X144384390Y-39420807D01*
X144378250Y-39421366D01*
X144179866Y-39479754D01*
X144174401Y-39482611D01*
X144002061Y-39572708D01*
X144002057Y-39572711D01*
X143996601Y-39575563D01*
X143835435Y-39705143D01*
X143702508Y-39863560D01*
X143602882Y-40044778D01*
X143601019Y-40050651D01*
X143599094Y-40055142D01*
X143553871Y-40109872D01*
X143483285Y-40131500D01*
X142564749Y-40131500D01*
X142553768Y-40131021D01*
X142526509Y-40128636D01*
X142526508Y-40128636D01*
X142515533Y-40127676D01*
X142478461Y-40137609D01*
X142467747Y-40139984D01*
X142451900Y-40142778D01*
X142440803Y-40144735D01*
X142440802Y-40144735D01*
X142429949Y-40146649D01*
X142420404Y-40152160D01*
X142416911Y-40153431D01*
X142413533Y-40155006D01*
X142402884Y-40157860D01*
X142393853Y-40164184D01*
X142393850Y-40164185D01*
X142371445Y-40179873D01*
X142362175Y-40185778D01*
X142328951Y-40204961D01*
X142321867Y-40213404D01*
X142321864Y-40213406D01*
X142304278Y-40234364D01*
X142296852Y-40242468D01*
X141301725Y-41237595D01*
X141239413Y-41271621D01*
X141212630Y-41274500D01*
X138627749Y-41274500D01*
X138616768Y-41274021D01*
X138589509Y-41271636D01*
X138589508Y-41271636D01*
X138578533Y-41270676D01*
X138541461Y-41280609D01*
X138530745Y-41282984D01*
X138492949Y-41289649D01*
X138483403Y-41295160D01*
X138479914Y-41296430D01*
X138476535Y-41298006D01*
X138465883Y-41300860D01*
X138434439Y-41322878D01*
X138425183Y-41328774D01*
X138419092Y-41332291D01*
X138391951Y-41347961D01*
X138384865Y-41356405D01*
X138376422Y-41363490D01*
X138375619Y-41362533D01*
X138325805Y-41395675D01*
X138287621Y-41401356D01*
X138233279Y-41401024D01*
X138093229Y-41441051D01*
X138085642Y-41445838D01*
X138085640Y-41445839D01*
X138042800Y-41472869D01*
X137970042Y-41518776D01*
X137964100Y-41525504D01*
X137957952Y-41532465D01*
X137873622Y-41627951D01*
X137869808Y-41636074D01*
X137869807Y-41636076D01*
X137815533Y-41751676D01*
X137811719Y-41759800D01*
X137810339Y-41768665D01*
X137810338Y-41768667D01*
X137791941Y-41886822D01*
X137789309Y-41903724D01*
X136492185Y-41903724D01*
X136491222Y-41894852D01*
X136486984Y-41855834D01*
X136486983Y-41855830D01*
X136486130Y-41847976D01*
X136437917Y-41719365D01*
X136432537Y-41712186D01*
X136432535Y-41712183D01*
X136360923Y-41616633D01*
X136355544Y-41609456D01*
X136330995Y-41591057D01*
X136252817Y-41532465D01*
X136252814Y-41532463D01*
X136245635Y-41527083D01*
X136222702Y-41518486D01*
X136124419Y-41481642D01*
X136124418Y-41481642D01*
X136117024Y-41478870D01*
X136109174Y-41478017D01*
X136109173Y-41478017D01*
X136061786Y-41472869D01*
X136061785Y-41472869D01*
X136058389Y-41472500D01*
X135763044Y-41472500D01*
X135467612Y-41472501D01*
X135464218Y-41472870D01*
X135464212Y-41472870D01*
X135416834Y-41478016D01*
X135416830Y-41478017D01*
X135408976Y-41478870D01*
X135280365Y-41527083D01*
X135273186Y-41532463D01*
X135273183Y-41532465D01*
X135230340Y-41564575D01*
X135170456Y-41609456D01*
X135165072Y-41616640D01*
X135158109Y-41625930D01*
X135101249Y-41668443D01*
X135091910Y-41671511D01*
X135023977Y-41690927D01*
X134968964Y-41706650D01*
X134961377Y-41711437D01*
X134961375Y-41711438D01*
X134935473Y-41727781D01*
X134845777Y-41784375D01*
X134749357Y-41893550D01*
X134745543Y-41901673D01*
X134745542Y-41901675D01*
X134711837Y-41973465D01*
X134687454Y-42025399D01*
X134686074Y-42034264D01*
X134686073Y-42034266D01*
X134666782Y-42158164D01*
X134665044Y-42169323D01*
X133686247Y-42169323D01*
X133689279Y-42165973D01*
X133769873Y-42076934D01*
X133769874Y-42076933D01*
X133775901Y-42070274D01*
X133780706Y-42060358D01*
X133835495Y-41947272D01*
X133835495Y-41947271D01*
X133839410Y-41939191D01*
X133863576Y-41795552D01*
X133863729Y-41783000D01*
X133852442Y-41704184D01*
X133844354Y-41647706D01*
X133844353Y-41647703D01*
X133843080Y-41638813D01*
X133839362Y-41630635D01*
X133786508Y-41514390D01*
X133786507Y-41514388D01*
X133782792Y-41506218D01*
X133776932Y-41499417D01*
X133776930Y-41499414D01*
X133713705Y-41426037D01*
X133684391Y-41361375D01*
X133683701Y-41335241D01*
X133683563Y-41333659D01*
X133684523Y-41322681D01*
X133680567Y-41307913D01*
X133674596Y-41285630D01*
X133672217Y-41274901D01*
X133667465Y-41247951D01*
X133667465Y-41247950D01*
X133665551Y-41237097D01*
X133660040Y-41227552D01*
X133658770Y-41224062D01*
X133657194Y-41220683D01*
X133654340Y-41210031D01*
X133632322Y-41178587D01*
X133626426Y-41169331D01*
X133612751Y-41145646D01*
X133607239Y-41136099D01*
X133598796Y-41129014D01*
X133598793Y-41129011D01*
X133577836Y-41111426D01*
X133569732Y-41104000D01*
X133209605Y-40743873D01*
X133175579Y-40681561D01*
X133172700Y-40654778D01*
X133172700Y-39304383D01*
X133192702Y-39236262D01*
X133205285Y-39219828D01*
X133275013Y-39142794D01*
X133275014Y-39142793D01*
X133281041Y-39136134D01*
X133308622Y-39079208D01*
X133340635Y-39013132D01*
X133340635Y-39013131D01*
X133344550Y-39005051D01*
X133364087Y-38888925D01*
X133367910Y-38866204D01*
X133367910Y-38866201D01*
X133368716Y-38861412D01*
X133368869Y-38848860D01*
X133348220Y-38704673D01*
X133343062Y-38693328D01*
X133291648Y-38580250D01*
X133291647Y-38580248D01*
X133287932Y-38572078D01*
X133192853Y-38461733D01*
X133070625Y-38382508D01*
X132931074Y-38340774D01*
X132922098Y-38340719D01*
X132922097Y-38340719D01*
X132860784Y-38340345D01*
X132785419Y-38339884D01*
X132645369Y-38379911D01*
X132637782Y-38384698D01*
X132637780Y-38384699D01*
X132633517Y-38387389D01*
X132522182Y-38457636D01*
X132425762Y-38566811D01*
X132421948Y-38574934D01*
X132421947Y-38574936D01*
X132367673Y-38690536D01*
X132363859Y-38698660D01*
X132362479Y-38707525D01*
X132362478Y-38707527D01*
X132343936Y-38826613D01*
X132341449Y-38842584D01*
X132342613Y-38851486D01*
X132342613Y-38851489D01*
X132350565Y-38912300D01*
X132360335Y-38987012D01*
X132363949Y-38995225D01*
X132363950Y-38995229D01*
X132364377Y-38996199D01*
X132418999Y-39120334D01*
X132424774Y-39127204D01*
X132424775Y-39127206D01*
X132481751Y-39194987D01*
X132510272Y-39260003D01*
X132511300Y-39276062D01*
X132511300Y-40172429D01*
X132491298Y-40240550D01*
X132437642Y-40287043D01*
X132367368Y-40297147D01*
X132302788Y-40267653D01*
X132296205Y-40261524D01*
X130923605Y-38888925D01*
X130889580Y-38826613D01*
X130886700Y-38799830D01*
X130886700Y-37652006D01*
X130906702Y-37583885D01*
X130919285Y-37567451D01*
X130975873Y-37504934D01*
X130975874Y-37504932D01*
X130981901Y-37498274D01*
X131045410Y-37367191D01*
X131069576Y-37223552D01*
X131069729Y-37211000D01*
X131049080Y-37066813D01*
X131038594Y-37043750D01*
X130992508Y-36942390D01*
X130992507Y-36942388D01*
X130988792Y-36934218D01*
X130893713Y-36823873D01*
X130771485Y-36744648D01*
X130631934Y-36702914D01*
X130622958Y-36702859D01*
X130622957Y-36702859D01*
X130561644Y-36702485D01*
X130486279Y-36702024D01*
X130346229Y-36742051D01*
X130338642Y-36746838D01*
X130338640Y-36746839D01*
X130334377Y-36749529D01*
X130223042Y-36819776D01*
X130126622Y-36928951D01*
X130122808Y-36937074D01*
X130122807Y-36937076D01*
X130100366Y-36984874D01*
X130053309Y-37038036D01*
X129984981Y-37057318D01*
X129926384Y-37042162D01*
X129747412Y-36945392D01*
X129549863Y-36884240D01*
X129543738Y-36883596D01*
X129543737Y-36883596D01*
X129350326Y-36863268D01*
X129350324Y-36863268D01*
X129344197Y-36862624D01*
X129218029Y-36874106D01*
X129144391Y-36880807D01*
X129144390Y-36880807D01*
X129138250Y-36881366D01*
X129092749Y-36894758D01*
X128945780Y-36938013D01*
X128945776Y-36938014D01*
X128939866Y-36939754D01*
X128938728Y-36940349D01*
X128869757Y-36947156D01*
X128806550Y-36914824D01*
X128770857Y-36853452D01*
X128768956Y-36802454D01*
X128782769Y-36720347D01*
X128783576Y-36715552D01*
X128783729Y-36703000D01*
X128768139Y-36594137D01*
X128764354Y-36567706D01*
X128764353Y-36567703D01*
X128763080Y-36558813D01*
X128745011Y-36519073D01*
X128735025Y-36448782D01*
X128764626Y-36384251D01*
X128824416Y-36345967D01*
X128895412Y-36346085D01*
X128908304Y-36350785D01*
X128912589Y-36353180D01*
X128918449Y-36355084D01*
X128918454Y-36355086D01*
X129008216Y-36384251D01*
X129109266Y-36417084D01*
X129314609Y-36441570D01*
X129320744Y-36441098D01*
X129320746Y-36441098D01*
X129514656Y-36426177D01*
X129514660Y-36426176D01*
X129520798Y-36425704D01*
X129719978Y-36370092D01*
X129725482Y-36367312D01*
X129725484Y-36367311D01*
X129899062Y-36279631D01*
X129899064Y-36279630D01*
X129904563Y-36276852D01*
X130067522Y-36149534D01*
X130071548Y-36144870D01*
X130071551Y-36144867D01*
X130198619Y-35997657D01*
X130198620Y-35997655D01*
X130202648Y-35992989D01*
X130291998Y-35835706D01*
X130301750Y-35818540D01*
X130301752Y-35818536D01*
X130304795Y-35813179D01*
X130354409Y-35664033D01*
X130368125Y-35622801D01*
X130368126Y-35622798D01*
X130370070Y-35616953D01*
X130395989Y-35411786D01*
X130396402Y-35382200D01*
X130388315Y-35299724D01*
X132328309Y-35299724D01*
X132329473Y-35308626D01*
X132329473Y-35308629D01*
X132339906Y-35388409D01*
X132347195Y-35444152D01*
X132350809Y-35452365D01*
X132350810Y-35452369D01*
X132373277Y-35503428D01*
X132405859Y-35577474D01*
X132411634Y-35584344D01*
X132411635Y-35584346D01*
X132493803Y-35682097D01*
X132499583Y-35688973D01*
X132507060Y-35693950D01*
X132613361Y-35764710D01*
X132613363Y-35764711D01*
X132620834Y-35769684D01*
X132759864Y-35813121D01*
X132905498Y-35815790D01*
X133002107Y-35789451D01*
X133037363Y-35779839D01*
X133037364Y-35779839D01*
X133046026Y-35777477D01*
X133054359Y-35772361D01*
X133162502Y-35705961D01*
X133170154Y-35701263D01*
X133176774Y-35693950D01*
X133261873Y-35599934D01*
X133261874Y-35599933D01*
X133267901Y-35593274D01*
X133274622Y-35579403D01*
X133299886Y-35527257D01*
X133347588Y-35474674D01*
X133416147Y-35456228D01*
X133483794Y-35477775D01*
X133528607Y-35531449D01*
X133548859Y-35577474D01*
X133554634Y-35584344D01*
X133554635Y-35584346D01*
X133636803Y-35682097D01*
X133642583Y-35688973D01*
X133650060Y-35693950D01*
X133756361Y-35764710D01*
X133756363Y-35764711D01*
X133763834Y-35769684D01*
X133902864Y-35813121D01*
X133975878Y-35814459D01*
X134043619Y-35835706D01*
X134062663Y-35851343D01*
X134125395Y-35914075D01*
X134159421Y-35976387D01*
X134162300Y-36003170D01*
X134162300Y-36556051D01*
X134161821Y-36567032D01*
X134159450Y-36594137D01*
X134158476Y-36605267D01*
X134168409Y-36642339D01*
X134170785Y-36653057D01*
X134174521Y-36674243D01*
X134177449Y-36690851D01*
X134182960Y-36700396D01*
X134184231Y-36703889D01*
X134185806Y-36707267D01*
X134188660Y-36717916D01*
X134194984Y-36726947D01*
X134194985Y-36726950D01*
X134210673Y-36749355D01*
X134216578Y-36758624D01*
X134235761Y-36791849D01*
X134244202Y-36798932D01*
X134244203Y-36798933D01*
X134265159Y-36816517D01*
X134273263Y-36823943D01*
X135007063Y-37557744D01*
X135014483Y-37565841D01*
X135039151Y-37595239D01*
X135041189Y-37596416D01*
X135077557Y-37651077D01*
X135078684Y-37722065D01*
X135040318Y-37783221D01*
X134957739Y-37855642D01*
X134957735Y-37855647D01*
X134953392Y-37859455D01*
X134827720Y-38018869D01*
X134825031Y-38023980D01*
X134825029Y-38023983D01*
X134812073Y-38048609D01*
X134733203Y-38198515D01*
X134673007Y-38392378D01*
X134649148Y-38593964D01*
X134662424Y-38796522D01*
X134663845Y-38802118D01*
X134663846Y-38802123D01*
X134709236Y-38980841D01*
X134712392Y-38993269D01*
X134714809Y-38998512D01*
X134751385Y-39077852D01*
X134797377Y-39177616D01*
X134800710Y-39182332D01*
X134880301Y-39294951D01*
X134914533Y-39343389D01*
X134918675Y-39347424D01*
X134994579Y-39421366D01*
X135059938Y-39485035D01*
X135228720Y-39597812D01*
X135234023Y-39600090D01*
X135234026Y-39600092D01*
X135362010Y-39655078D01*
X135415228Y-39677942D01*
X135488244Y-39694464D01*
X135607579Y-39721467D01*
X135607584Y-39721468D01*
X135613216Y-39722742D01*
X135618987Y-39722969D01*
X135618989Y-39722969D01*
X135674983Y-39725169D01*
X135816053Y-39730712D01*
X135920499Y-39715568D01*
X136011231Y-39702413D01*
X136011236Y-39702412D01*
X136016945Y-39701584D01*
X136022409Y-39699729D01*
X136022414Y-39699728D01*
X136203693Y-39638192D01*
X136203698Y-39638190D01*
X136209165Y-39636334D01*
X136386276Y-39537147D01*
X136444982Y-39488322D01*
X136537913Y-39411031D01*
X136542345Y-39407345D01*
X136664889Y-39260003D01*
X136668453Y-39255718D01*
X136668455Y-39255715D01*
X136672147Y-39251276D01*
X136771334Y-39074165D01*
X136773190Y-39068698D01*
X136773192Y-39068693D01*
X136834728Y-38887414D01*
X136834729Y-38887409D01*
X136836584Y-38881945D01*
X136837412Y-38876236D01*
X136837413Y-38876231D01*
X136865179Y-38684727D01*
X136865712Y-38681053D01*
X136867232Y-38623000D01*
X136848658Y-38420859D01*
X136847090Y-38415299D01*
X136795125Y-38231046D01*
X136795124Y-38231044D01*
X136793557Y-38225487D01*
X136782978Y-38204033D01*
X136706331Y-38048609D01*
X136703776Y-38043428D01*
X136606791Y-37913549D01*
X136602204Y-37907406D01*
X143517301Y-37907406D01*
X143518543Y-37922200D01*
X143529159Y-38048609D01*
X143534606Y-38113478D01*
X143591607Y-38312266D01*
X143594425Y-38317748D01*
X143594426Y-38317752D01*
X143683314Y-38490709D01*
X143683317Y-38490713D01*
X143686134Y-38496195D01*
X143814586Y-38658261D01*
X143819279Y-38662255D01*
X143819280Y-38662256D01*
X143845684Y-38684727D01*
X143972071Y-38792291D01*
X144152589Y-38893180D01*
X144349266Y-38957084D01*
X144554609Y-38981570D01*
X144560744Y-38981098D01*
X144560746Y-38981098D01*
X144754656Y-38966177D01*
X144754660Y-38966176D01*
X144760798Y-38965704D01*
X144959978Y-38910092D01*
X144965482Y-38907312D01*
X144965484Y-38907311D01*
X145139062Y-38819631D01*
X145139064Y-38819630D01*
X145144563Y-38816852D01*
X145307522Y-38689534D01*
X145311548Y-38684870D01*
X145311551Y-38684867D01*
X145438619Y-38537657D01*
X145438620Y-38537655D01*
X145442648Y-38532989D01*
X145528134Y-38382508D01*
X145541750Y-38358540D01*
X145541752Y-38358536D01*
X145544795Y-38353179D01*
X145594409Y-38204033D01*
X145608125Y-38162801D01*
X145608126Y-38162798D01*
X145610070Y-38156953D01*
X145635989Y-37951786D01*
X145636402Y-37922200D01*
X145616222Y-37716389D01*
X145556451Y-37518417D01*
X145507908Y-37427121D01*
X145462259Y-37341267D01*
X145462257Y-37341264D01*
X145459365Y-37335825D01*
X145455474Y-37331055D01*
X145455472Y-37331051D01*
X145332558Y-37180343D01*
X145332555Y-37180340D01*
X145328663Y-37175568D01*
X145321766Y-37169862D01*
X145174071Y-37047678D01*
X145174066Y-37047675D01*
X145169322Y-37043750D01*
X145163903Y-37040820D01*
X145163900Y-37040818D01*
X144992832Y-36948322D01*
X144992827Y-36948320D01*
X144987412Y-36945392D01*
X144789863Y-36884240D01*
X144783738Y-36883596D01*
X144783737Y-36883596D01*
X144590326Y-36863268D01*
X144590324Y-36863268D01*
X144584197Y-36862624D01*
X144458029Y-36874106D01*
X144384391Y-36880807D01*
X144384390Y-36880807D01*
X144378250Y-36881366D01*
X144179866Y-36939754D01*
X144174401Y-36942611D01*
X144002061Y-37032708D01*
X144002057Y-37032711D01*
X143996601Y-37035563D01*
X143835435Y-37165143D01*
X143702508Y-37323560D01*
X143602882Y-37504778D01*
X143540353Y-37701896D01*
X143539667Y-37708013D01*
X143539666Y-37708017D01*
X143517988Y-37901281D01*
X143517301Y-37907406D01*
X136602204Y-37907406D01*
X136585777Y-37885408D01*
X136585775Y-37885406D01*
X136582320Y-37880779D01*
X136579707Y-37878363D01*
X136549299Y-37815007D01*
X136558061Y-37744553D01*
X136603522Y-37690021D01*
X136673652Y-37668700D01*
X139299051Y-37668700D01*
X139310032Y-37669179D01*
X139337291Y-37671564D01*
X139337292Y-37671564D01*
X139348267Y-37672524D01*
X139385339Y-37662591D01*
X139396053Y-37660216D01*
X139411900Y-37657422D01*
X139422997Y-37655465D01*
X139422998Y-37655465D01*
X139433851Y-37653551D01*
X139443396Y-37648040D01*
X139446889Y-37646769D01*
X139450267Y-37645194D01*
X139460916Y-37642340D01*
X139469947Y-37636016D01*
X139469950Y-37636015D01*
X139492355Y-37620327D01*
X139501624Y-37614422D01*
X139503017Y-37613618D01*
X139534849Y-37595239D01*
X139559517Y-37565841D01*
X139566943Y-37557737D01*
X140173744Y-36950937D01*
X140181847Y-36943512D01*
X140202797Y-36925933D01*
X140202798Y-36925932D01*
X140211239Y-36918849D01*
X140230169Y-36886062D01*
X140230421Y-36885625D01*
X140236327Y-36876355D01*
X140252015Y-36853950D01*
X140252016Y-36853947D01*
X140258340Y-36844916D01*
X140261194Y-36834267D01*
X140262769Y-36830889D01*
X140264040Y-36827396D01*
X140269551Y-36817851D01*
X140276216Y-36780053D01*
X140278591Y-36769339D01*
X140288524Y-36732267D01*
X140287269Y-36717916D01*
X140285179Y-36694032D01*
X140284700Y-36683051D01*
X140284700Y-35874006D01*
X140304702Y-35805885D01*
X140317285Y-35789451D01*
X140373873Y-35726934D01*
X140373874Y-35726932D01*
X140379901Y-35720274D01*
X140407150Y-35664033D01*
X140439495Y-35597272D01*
X140439495Y-35597271D01*
X140443410Y-35589191D01*
X140462448Y-35476033D01*
X140466770Y-35450344D01*
X140466770Y-35450341D01*
X140467576Y-35445552D01*
X140467729Y-35433000D01*
X140457458Y-35361281D01*
X140448354Y-35297706D01*
X140448353Y-35297703D01*
X140447080Y-35288813D01*
X140440803Y-35275007D01*
X140390508Y-35164390D01*
X140390507Y-35164388D01*
X140386792Y-35156218D01*
X140291713Y-35045873D01*
X140169485Y-34966648D01*
X140029934Y-34924914D01*
X140020958Y-34924859D01*
X140020957Y-34924859D01*
X139959644Y-34924485D01*
X139884279Y-34924024D01*
X139744229Y-34964051D01*
X139736642Y-34968838D01*
X139736640Y-34968839D01*
X139717412Y-34980971D01*
X139621042Y-35041776D01*
X139524622Y-35150951D01*
X139520808Y-35159074D01*
X139520807Y-35159076D01*
X139467493Y-35272632D01*
X139462719Y-35282800D01*
X139461338Y-35291667D01*
X139461338Y-35291668D01*
X139442633Y-35411800D01*
X139412389Y-35476033D01*
X139352219Y-35513717D01*
X139281227Y-35512889D01*
X139221953Y-35473811D01*
X139217175Y-35467804D01*
X139150646Y-35378712D01*
X139122320Y-35340779D01*
X138973258Y-35202987D01*
X138968375Y-35199906D01*
X138968371Y-35199903D01*
X138806464Y-35097748D01*
X138801581Y-35094667D01*
X138613039Y-35019446D01*
X138607379Y-35018320D01*
X138607375Y-35018319D01*
X138419613Y-34980971D01*
X138419610Y-34980971D01*
X138413946Y-34979844D01*
X138408171Y-34979768D01*
X138408167Y-34979768D01*
X138306793Y-34978441D01*
X138210971Y-34977187D01*
X138147178Y-34988149D01*
X138076654Y-34979972D01*
X138036744Y-34953064D01*
X137909778Y-34826098D01*
X137875752Y-34763786D01*
X137880817Y-34692971D01*
X137923364Y-34636135D01*
X137989884Y-34611324D01*
X138026680Y-34614110D01*
X138049866Y-34619356D01*
X138147579Y-34641467D01*
X138147584Y-34641468D01*
X138153216Y-34642742D01*
X138158987Y-34642969D01*
X138158989Y-34642969D01*
X138218756Y-34645317D01*
X138356053Y-34650712D01*
X138460499Y-34635568D01*
X138551231Y-34622413D01*
X138551236Y-34622412D01*
X138556945Y-34621584D01*
X138562409Y-34619729D01*
X138562414Y-34619728D01*
X138743693Y-34558192D01*
X138743698Y-34558190D01*
X138749165Y-34556334D01*
X138926276Y-34457147D01*
X138938119Y-34447298D01*
X139077913Y-34331031D01*
X139082345Y-34327345D01*
X139139462Y-34258670D01*
X139208453Y-34175718D01*
X139208455Y-34175715D01*
X139212147Y-34171276D01*
X139271845Y-34064677D01*
X139308510Y-33999208D01*
X139308511Y-33999206D01*
X139311334Y-33994165D01*
X139313190Y-33988698D01*
X139313192Y-33988693D01*
X139374728Y-33807414D01*
X139374729Y-33807409D01*
X139376584Y-33801945D01*
X139377412Y-33796236D01*
X139377413Y-33796231D01*
X139397674Y-33656491D01*
X139405712Y-33601053D01*
X139407232Y-33543000D01*
X139388658Y-33340859D01*
X139382241Y-33318107D01*
X139335125Y-33151046D01*
X139335124Y-33151044D01*
X139333557Y-33145487D01*
X139299944Y-33077325D01*
X139246331Y-32968609D01*
X139243776Y-32963428D01*
X139142203Y-32827406D01*
X143517301Y-32827406D01*
X143518543Y-32842200D01*
X143529159Y-32968609D01*
X143534606Y-33033478D01*
X143591607Y-33232266D01*
X143594425Y-33237748D01*
X143594426Y-33237752D01*
X143683314Y-33410709D01*
X143683317Y-33410713D01*
X143686134Y-33416195D01*
X143814586Y-33578261D01*
X143819279Y-33582255D01*
X143819280Y-33582256D01*
X143959426Y-33701529D01*
X143972071Y-33712291D01*
X144152589Y-33813180D01*
X144349266Y-33877084D01*
X144554609Y-33901570D01*
X144560744Y-33901098D01*
X144560746Y-33901098D01*
X144754656Y-33886177D01*
X144754660Y-33886176D01*
X144760798Y-33885704D01*
X144959978Y-33830092D01*
X144965482Y-33827312D01*
X144965484Y-33827311D01*
X145139062Y-33739631D01*
X145139064Y-33739630D01*
X145144563Y-33736852D01*
X145307522Y-33609534D01*
X145311548Y-33604870D01*
X145311551Y-33604867D01*
X145438619Y-33457657D01*
X145438620Y-33457655D01*
X145442648Y-33452989D01*
X145544795Y-33273179D01*
X145610070Y-33076953D01*
X145635989Y-32871786D01*
X145636402Y-32842200D01*
X145616222Y-32636389D01*
X145556451Y-32438417D01*
X145459365Y-32255825D01*
X145455474Y-32251055D01*
X145455472Y-32251051D01*
X145332558Y-32100343D01*
X145332555Y-32100340D01*
X145328663Y-32095568D01*
X145321766Y-32089862D01*
X145174071Y-31967678D01*
X145174066Y-31967675D01*
X145169322Y-31963750D01*
X145163903Y-31960820D01*
X145163900Y-31960818D01*
X144992832Y-31868322D01*
X144992827Y-31868320D01*
X144987412Y-31865392D01*
X144789863Y-31804240D01*
X144783738Y-31803596D01*
X144783737Y-31803596D01*
X144590326Y-31783268D01*
X144590324Y-31783268D01*
X144584197Y-31782624D01*
X144458029Y-31794106D01*
X144384391Y-31800807D01*
X144384390Y-31800807D01*
X144378250Y-31801366D01*
X144179866Y-31859754D01*
X144174401Y-31862611D01*
X144002061Y-31952708D01*
X144002057Y-31952711D01*
X143996601Y-31955563D01*
X143835435Y-32085143D01*
X143702508Y-32243560D01*
X143602882Y-32424778D01*
X143540353Y-32621896D01*
X143539667Y-32628013D01*
X143539666Y-32628017D01*
X143525959Y-32750219D01*
X143517301Y-32827406D01*
X139142203Y-32827406D01*
X139122320Y-32800779D01*
X138991881Y-32680202D01*
X138977503Y-32666911D01*
X138973258Y-32662987D01*
X138968375Y-32659906D01*
X138968371Y-32659903D01*
X138806464Y-32557748D01*
X138801581Y-32554667D01*
X138613039Y-32479446D01*
X138607379Y-32478320D01*
X138607375Y-32478319D01*
X138419613Y-32440971D01*
X138419610Y-32440971D01*
X138413946Y-32439844D01*
X138408171Y-32439768D01*
X138408167Y-32439768D01*
X138306793Y-32438441D01*
X138210971Y-32437187D01*
X138205274Y-32438166D01*
X138205273Y-32438166D01*
X138099694Y-32456308D01*
X138010910Y-32471564D01*
X137973338Y-32485425D01*
X137902506Y-32490237D01*
X137840633Y-32456308D01*
X137224627Y-31840302D01*
X137214772Y-31829213D01*
X137199895Y-31810342D01*
X137194064Y-31802945D01*
X137186317Y-31797590D01*
X137186315Y-31797589D01*
X137146419Y-31770016D01*
X137143196Y-31767713D01*
X137104160Y-31738880D01*
X137096581Y-31733282D01*
X137089850Y-31730918D01*
X137083984Y-31726864D01*
X137028766Y-31709401D01*
X137025025Y-31708153D01*
X136979214Y-31692065D01*
X136979209Y-31692064D01*
X136970327Y-31688945D01*
X136963198Y-31688665D01*
X136956400Y-31686515D01*
X136949857Y-31686000D01*
X136897841Y-31686000D01*
X136892895Y-31685903D01*
X136892633Y-31685893D01*
X136836616Y-31683692D01*
X136829581Y-31685557D01*
X136821535Y-31686000D01*
X133637887Y-31686000D01*
X133623077Y-31685127D01*
X133589864Y-31681196D01*
X133532859Y-31691607D01*
X133528966Y-31692255D01*
X133512758Y-31694692D01*
X133471674Y-31700868D01*
X133465243Y-31703956D01*
X133458229Y-31705237D01*
X133414251Y-31728082D01*
X133406816Y-31731944D01*
X133403275Y-31733713D01*
X133359544Y-31754712D01*
X133359543Y-31754713D01*
X133351048Y-31758792D01*
X133345810Y-31763634D01*
X133339482Y-31766921D01*
X133334491Y-31771184D01*
X133297712Y-31807963D01*
X133294146Y-31811392D01*
X133262872Y-31840302D01*
X133252786Y-31849625D01*
X133249130Y-31855919D01*
X133243753Y-31861922D01*
X132551302Y-32554373D01*
X132540213Y-32564228D01*
X132513945Y-32584936D01*
X132508590Y-32592683D01*
X132508589Y-32592685D01*
X132481016Y-32632581D01*
X132478713Y-32635804D01*
X132444282Y-32682419D01*
X132441918Y-32689150D01*
X132437864Y-32695016D01*
X132435024Y-32703997D01*
X132420406Y-32750219D01*
X132419153Y-32753975D01*
X132403065Y-32799786D01*
X132403064Y-32799791D01*
X132399945Y-32808673D01*
X132399665Y-32815802D01*
X132397515Y-32822600D01*
X132397000Y-32829143D01*
X132397000Y-32881159D01*
X132396903Y-32886105D01*
X132394692Y-32942384D01*
X132396557Y-32949419D01*
X132397000Y-32957465D01*
X132397000Y-35029118D01*
X132385055Y-35082667D01*
X132359669Y-35136738D01*
X132350719Y-35155800D01*
X132349339Y-35164665D01*
X132349338Y-35164667D01*
X132330008Y-35288813D01*
X132328309Y-35299724D01*
X130388315Y-35299724D01*
X130376222Y-35176389D01*
X130316451Y-34978417D01*
X130243632Y-34841464D01*
X130222259Y-34801267D01*
X130222257Y-34801264D01*
X130219365Y-34795825D01*
X130215474Y-34791055D01*
X130215472Y-34791051D01*
X130092558Y-34640343D01*
X130092555Y-34640340D01*
X130088663Y-34635568D01*
X130077924Y-34626684D01*
X129934071Y-34507678D01*
X129934066Y-34507675D01*
X129929322Y-34503750D01*
X129923903Y-34500820D01*
X129923900Y-34500818D01*
X129752832Y-34408322D01*
X129752827Y-34408320D01*
X129747412Y-34405392D01*
X129549863Y-34344240D01*
X129543738Y-34343596D01*
X129543737Y-34343596D01*
X129350326Y-34323268D01*
X129350324Y-34323268D01*
X129344197Y-34322624D01*
X129218029Y-34334106D01*
X129144391Y-34340807D01*
X129144390Y-34340807D01*
X129138250Y-34341366D01*
X128939866Y-34399754D01*
X128934401Y-34402611D01*
X128762061Y-34492708D01*
X128762057Y-34492711D01*
X128756601Y-34495563D01*
X128595435Y-34625143D01*
X128462508Y-34783560D01*
X128362882Y-34964778D01*
X128300353Y-35161896D01*
X128299667Y-35168013D01*
X128299666Y-35168017D01*
X128279768Y-35345409D01*
X128277301Y-35367406D01*
X128278543Y-35382200D01*
X128291077Y-35531449D01*
X128294606Y-35573478D01*
X128351607Y-35772266D01*
X128354425Y-35777748D01*
X128354426Y-35777752D01*
X128443314Y-35950709D01*
X128443317Y-35950713D01*
X128446134Y-35956195D01*
X128449964Y-35961027D01*
X128477206Y-35995398D01*
X128503844Y-36061208D01*
X128490673Y-36130973D01*
X128441876Y-36182541D01*
X128372945Y-36199542D01*
X128359834Y-36198278D01*
X128354533Y-36197486D01*
X128345934Y-36194914D01*
X128336963Y-36194859D01*
X128336962Y-36194859D01*
X128269644Y-36194448D01*
X128200279Y-36194024D01*
X128060229Y-36234051D01*
X128037649Y-36248298D01*
X128031935Y-36251903D01*
X127963650Y-36271337D01*
X127895698Y-36250768D01*
X127849654Y-36196726D01*
X127838700Y-36145341D01*
X127838700Y-31685170D01*
X127858702Y-31617049D01*
X127875605Y-31596075D01*
X128116075Y-31355605D01*
X128178387Y-31321579D01*
X128205170Y-31318700D01*
X145479829Y-31318700D01*
X145547950Y-31338702D01*
X145568925Y-31355605D01*
X145936396Y-31723077D01*
X145970421Y-31785389D01*
X145973300Y-31812172D01*
X145973300Y-33465829D01*
X145953298Y-33533950D01*
X145936395Y-33554924D01*
X145116182Y-34375137D01*
X145053870Y-34409163D01*
X144988118Y-34403112D01*
X144987412Y-34405392D01*
X144789863Y-34344240D01*
X144783738Y-34343596D01*
X144783737Y-34343596D01*
X144590326Y-34323268D01*
X144590324Y-34323268D01*
X144584197Y-34322624D01*
X144458029Y-34334106D01*
X144384391Y-34340807D01*
X144384390Y-34340807D01*
X144378250Y-34341366D01*
X144179866Y-34399754D01*
X144174401Y-34402611D01*
X144002061Y-34492708D01*
X144002057Y-34492711D01*
X143996601Y-34495563D01*
X143835435Y-34625143D01*
X143702508Y-34783560D01*
X143602882Y-34964778D01*
X143540353Y-35161896D01*
X143539667Y-35168013D01*
X143539666Y-35168017D01*
X143519768Y-35345409D01*
X143517301Y-35367406D01*
X143518543Y-35382200D01*
X143531077Y-35531449D01*
X143534606Y-35573478D01*
X143591607Y-35772266D01*
X143594425Y-35777748D01*
X143594426Y-35777752D01*
X143683314Y-35950709D01*
X143683317Y-35950713D01*
X143686134Y-35956195D01*
X143814586Y-36118261D01*
X143819279Y-36122255D01*
X143819280Y-36122256D01*
X143953691Y-36236648D01*
X143972071Y-36252291D01*
X144152589Y-36353180D01*
X144349266Y-36417084D01*
X144554609Y-36441570D01*
X144560744Y-36441098D01*
X144560746Y-36441098D01*
X144754656Y-36426177D01*
X144754660Y-36426176D01*
X144760798Y-36425704D01*
X144959978Y-36370092D01*
X144965482Y-36367312D01*
X144965484Y-36367311D01*
X145139062Y-36279631D01*
X145139064Y-36279630D01*
X145144563Y-36276852D01*
X145307522Y-36149534D01*
X145311548Y-36144870D01*
X145311551Y-36144867D01*
X145438619Y-35997657D01*
X145438620Y-35997655D01*
X145442648Y-35992989D01*
X145531998Y-35835706D01*
X145541750Y-35818540D01*
X145541752Y-35818536D01*
X145544795Y-35813179D01*
X145594409Y-35664033D01*
X145608125Y-35622801D01*
X145608126Y-35622798D01*
X145610070Y-35616953D01*
X145635989Y-35411786D01*
X145636402Y-35382200D01*
X145616222Y-35176389D01*
X145585665Y-35075180D01*
X145558234Y-34984322D01*
X145558232Y-34984316D01*
X145556451Y-34978417D01*
X145556227Y-34977995D01*
X145548970Y-34909352D01*
X145583832Y-34842848D01*
X146523750Y-33902931D01*
X146531841Y-33895517D01*
X146552797Y-33877933D01*
X146552798Y-33877932D01*
X146561239Y-33870849D01*
X146580421Y-33837625D01*
X146586327Y-33828355D01*
X146602015Y-33805950D01*
X146602016Y-33805947D01*
X146608340Y-33796916D01*
X146611194Y-33786267D01*
X146612769Y-33782889D01*
X146614040Y-33779396D01*
X146619551Y-33769851D01*
X146626216Y-33732053D01*
X146628591Y-33721339D01*
X146638524Y-33684267D01*
X146635179Y-33646032D01*
X146634700Y-33635051D01*
X146634700Y-31642949D01*
X146635179Y-31631968D01*
X146637564Y-31604709D01*
X146637564Y-31604708D01*
X146638524Y-31593733D01*
X146628591Y-31556661D01*
X146626215Y-31545943D01*
X146621465Y-31519003D01*
X146621465Y-31519002D01*
X146619551Y-31508149D01*
X146614040Y-31498604D01*
X146612769Y-31495111D01*
X146611194Y-31491733D01*
X146608340Y-31481084D01*
X146602016Y-31472053D01*
X146602015Y-31472050D01*
X146586327Y-31449645D01*
X146580421Y-31440375D01*
X146566750Y-31416696D01*
X146566749Y-31416695D01*
X146561239Y-31407151D01*
X146531847Y-31382488D01*
X146523744Y-31375063D01*
X146098276Y-30949596D01*
X146064251Y-30887283D01*
X146069315Y-30816468D01*
X146111862Y-30759632D01*
X146178382Y-30734821D01*
X146187371Y-30734500D01*
X146939500Y-30734500D01*
X147007621Y-30754502D01*
G37*
%TD.AperFunction*%
%TD*%
M02*
