%TF.GenerationSoftware,KiCad,Pcbnew,6.0.11-2627ca5db0~126~ubuntu22.04.1*%
%TF.CreationDate,2024-02-09T08:46:32-05:00*%
%TF.ProjectId,HP8656B_fractional-n_microprocessor,48503836-3536-4425-9f66-72616374696f,rev?*%
%TF.SameCoordinates,Original*%
%TF.FileFunction,Soldermask,Bot*%
%TF.FilePolarity,Negative*%
%FSLAX46Y46*%
G04 Gerber Fmt 4.6, Leading zero omitted, Abs format (unit mm)*
G04 Created by KiCad (PCBNEW 6.0.11-2627ca5db0~126~ubuntu22.04.1) date 2024-02-09 08:46:32*
%MOMM*%
%LPD*%
G01*
G04 APERTURE LIST*
G04 Aperture macros list*
%AMRoundRect*
0 Rectangle with rounded corners*
0 $1 Rounding radius*
0 $2 $3 $4 $5 $6 $7 $8 $9 X,Y pos of 4 corners*
0 Add a 4 corners polygon primitive as box body*
4,1,4,$2,$3,$4,$5,$6,$7,$8,$9,$2,$3,0*
0 Add four circle primitives for the rounded corners*
1,1,$1+$1,$2,$3*
1,1,$1+$1,$4,$5*
1,1,$1+$1,$6,$7*
1,1,$1+$1,$8,$9*
0 Add four rect primitives between the rounded corners*
20,1,$1+$1,$2,$3,$4,$5,0*
20,1,$1+$1,$4,$5,$6,$7,0*
20,1,$1+$1,$6,$7,$8,$9,0*
20,1,$1+$1,$8,$9,$2,$3,0*%
G04 Aperture macros list end*
%ADD10R,1.600000X1.600000*%
%ADD11O,1.600000X1.600000*%
%ADD12R,1.700000X1.700000*%
%ADD13O,1.700000X1.700000*%
%ADD14C,1.000000*%
%ADD15RoundRect,0.225000X0.250000X-0.225000X0.250000X0.225000X-0.250000X0.225000X-0.250000X-0.225000X0*%
%ADD16RoundRect,0.225000X0.225000X0.250000X-0.225000X0.250000X-0.225000X-0.250000X0.225000X-0.250000X0*%
%ADD17RoundRect,0.225000X-0.250000X0.225000X-0.250000X-0.225000X0.250000X-0.225000X0.250000X0.225000X0*%
G04 APERTURE END LIST*
D10*
%TO.C,U2*%
X129336800Y-32842200D03*
D11*
X129336800Y-35382200D03*
X129336800Y-37922200D03*
X129336800Y-40462200D03*
X129336800Y-43002200D03*
X129336800Y-45542200D03*
X129336800Y-48082200D03*
X129336800Y-50622200D03*
X129336800Y-53162200D03*
X129336800Y-55702200D03*
X129336800Y-58242200D03*
X129336800Y-60782200D03*
X129336800Y-63322200D03*
X129336800Y-65862200D03*
X144576800Y-65862200D03*
X144576800Y-63322200D03*
X144576800Y-60782200D03*
X144576800Y-58242200D03*
X144576800Y-55702200D03*
X144576800Y-53162200D03*
X144576800Y-50622200D03*
X144576800Y-48082200D03*
X144576800Y-45542200D03*
X144576800Y-43002200D03*
X144576800Y-40462200D03*
X144576800Y-37922200D03*
X144576800Y-35382200D03*
X144576800Y-32842200D03*
%TD*%
D12*
%TO.C,J1*%
X135758000Y-33543000D03*
D13*
X138298000Y-33543000D03*
X135758000Y-36083000D03*
X138298000Y-36083000D03*
X135758000Y-38623000D03*
X138298000Y-38623000D03*
%TD*%
D14*
%TO.C,TP3*%
X137160000Y-63119000D03*
%TD*%
D15*
%TO.C,C3*%
X135763000Y-42177000D03*
X135763000Y-40627000D03*
%TD*%
D14*
%TO.C,TP4*%
X137160000Y-65913000D03*
%TD*%
%TO.C,TP2*%
X139700000Y-65913000D03*
%TD*%
D16*
%TO.C,C1*%
X141618000Y-45466000D03*
X140068000Y-45466000D03*
%TD*%
D14*
%TO.C,TP1*%
X139700000Y-63119000D03*
%TD*%
D17*
%TO.C,C2*%
X132969000Y-47739000D03*
X132969000Y-49289000D03*
%TD*%
M02*
