M48
; DRILL file {KiCad 6.0.11-2627ca5db0~126~ubuntu22.04.1} date Fri 09 Feb 2024 08:46:29 AM EST
; FORMAT={-:-/ absolute / inch / decimal}
; #@! TF.CreationDate,2024-02-09T08:46:29-05:00
; #@! TF.GenerationSoftware,Kicad,Pcbnew,6.0.11-2627ca5db0~126~ubuntu22.04.1
; #@! TF.FileFunction,Plated,1,2,PTH
FMAT,2
INCH
; #@! TA.AperFunction,Plated,PTH,ViaDrill
T1C0.0100
; #@! TA.AperFunction,Plated,PTH,ComponentDrill
T2C0.0315
; #@! TA.AperFunction,Plated,PTH,ComponentDrill
T3C0.0394
%
G90
G05
T1
X5.05Y-1.445
X5.125Y-2.14
X5.14Y-1.465
X5.16Y-1.775
X5.178Y-1.643
X5.18Y-2.135
X5.1992Y-1.658
X5.2Y-1.73
X5.2087Y-1.885
X5.2091Y-1.9291
X5.2213Y-1.6442
X5.225Y-2.315
X5.2293Y-1.7657
X5.23Y-1.39
X5.2305Y-1.5295
X5.2337Y-1.7277
X5.25Y-1.645
X5.254Y-2.29
X5.2692Y-1.733
X5.274Y-2.116
X5.275Y-1.345
X5.275Y-1.39
X5.3007Y-2.1087
X5.3218Y-2.3382
X5.322Y-1.6605
X5.3255Y-2.1165
X5.3259Y-2.3691
X5.3502Y-2.1083
X5.365Y-2.045
X5.3754Y-2.1146
X5.3761Y-1.6353
X5.445Y-1.65
X5.4708Y-1.6844
X5.4716Y-1.6584
X5.495Y-1.98
X5.5017Y-1.7072
X5.505Y-1.681
X5.51Y-1.395
X5.5399Y-1.7546
X5.5495Y-1.945
X5.5686Y-2.3696
X5.5693Y-2.1988
X5.571Y-2.015
X5.572Y-2.173
X5.5764Y-1.7514
X5.607Y-1.6348
X5.7391Y-1.9191
T2
X5.092Y-1.293
X5.092Y-1.393
X5.092Y-1.493
X5.092Y-1.593
X5.092Y-1.693
X5.092Y-1.793
X5.092Y-1.893
X5.092Y-1.993
X5.092Y-2.093
X5.092Y-2.193
X5.092Y-2.293
X5.092Y-2.393
X5.092Y-2.493
X5.092Y-2.593
X5.692Y-1.293
X5.692Y-1.393
X5.692Y-1.493
X5.692Y-1.593
X5.692Y-1.693
X5.692Y-1.793
X5.692Y-1.893
X5.692Y-1.993
X5.692Y-2.093
X5.692Y-2.193
X5.692Y-2.293
X5.692Y-2.393
X5.692Y-2.493
X5.692Y-2.593
T3
X5.3448Y-1.3206
X5.3448Y-1.4206
X5.3448Y-1.5206
X5.4448Y-1.3206
X5.4448Y-1.4206
X5.4448Y-1.5206
T0
M30
