%TF.GenerationSoftware,KiCad,Pcbnew,6.0.11-2627ca5db0~126~ubuntu22.04.1*%
%TF.CreationDate,2024-02-09T08:46:32-05:00*%
%TF.ProjectId,HP8656B_fractional-n_microprocessor,48503836-3536-4425-9f66-72616374696f,rev?*%
%TF.SameCoordinates,Original*%
%TF.FileFunction,Copper,L1,Top*%
%TF.FilePolarity,Positive*%
%FSLAX46Y46*%
G04 Gerber Fmt 4.6, Leading zero omitted, Abs format (unit mm)*
G04 Created by KiCad (PCBNEW 6.0.11-2627ca5db0~126~ubuntu22.04.1) date 2024-02-09 08:46:32*
%MOMM*%
%LPD*%
G01*
G04 APERTURE LIST*
G04 Aperture macros list*
%AMRoundRect*
0 Rectangle with rounded corners*
0 $1 Rounding radius*
0 $2 $3 $4 $5 $6 $7 $8 $9 X,Y pos of 4 corners*
0 Add a 4 corners polygon primitive as box body*
4,1,4,$2,$3,$4,$5,$6,$7,$8,$9,$2,$3,0*
0 Add four circle primitives for the rounded corners*
1,1,$1+$1,$2,$3*
1,1,$1+$1,$4,$5*
1,1,$1+$1,$6,$7*
1,1,$1+$1,$8,$9*
0 Add four rect primitives between the rounded corners*
20,1,$1+$1,$2,$3,$4,$5,0*
20,1,$1+$1,$4,$5,$6,$7,0*
20,1,$1+$1,$6,$7,$8,$9,0*
20,1,$1+$1,$8,$9,$2,$3,0*%
%AMRotRect*
0 Rectangle, with rotation*
0 The origin of the aperture is its center*
0 $1 length*
0 $2 width*
0 $3 Rotation angle, in degrees counterclockwise*
0 Add horizontal line*
21,1,$1,$2,0,0,$3*%
G04 Aperture macros list end*
%TA.AperFunction,ComponentPad*%
%ADD10R,1.600000X1.600000*%
%TD*%
%TA.AperFunction,ComponentPad*%
%ADD11O,1.600000X1.600000*%
%TD*%
%TA.AperFunction,ComponentPad*%
%ADD12R,1.700000X1.700000*%
%TD*%
%TA.AperFunction,ComponentPad*%
%ADD13O,1.700000X1.700000*%
%TD*%
%TA.AperFunction,SMDPad,CuDef*%
%ADD14RoundRect,0.062500X0.380070X-0.291682X-0.291682X0.380070X-0.380070X0.291682X0.291682X-0.380070X0*%
%TD*%
%TA.AperFunction,SMDPad,CuDef*%
%ADD15RoundRect,0.062500X0.380070X0.291682X0.291682X0.380070X-0.380070X-0.291682X-0.291682X-0.380070X0*%
%TD*%
%TA.AperFunction,SMDPad,CuDef*%
%ADD16RotRect,5.200000X5.200000X135.000000*%
%TD*%
%TA.AperFunction,ViaPad*%
%ADD17C,0.508000*%
%TD*%
%TA.AperFunction,Conductor*%
%ADD18C,0.152400*%
%TD*%
%TA.AperFunction,Conductor*%
%ADD19C,0.381000*%
%TD*%
%TA.AperFunction,Conductor*%
%ADD20C,0.254000*%
%TD*%
G04 APERTURE END LIST*
D10*
%TO.P,U2,1,GND*%
%TO.N,GND*%
X129336800Y-32842200D03*
D11*
%TO.P,U2,2,INT*%
%TO.N,/SERIAL_CLK*%
X129336800Y-35382200D03*
%TO.P,U2,3,VCC*%
%TO.N,+5V*%
X129336800Y-37922200D03*
%TO.P,U2,4,EXTAL*%
%TO.N,/EXTAL*%
X129336800Y-40462200D03*
%TO.P,U2,5,XTAL*%
%TO.N,/XTAL*%
X129336800Y-43002200D03*
%TO.P,U2,6,VPROG*%
%TO.N,unconnected-(U2-Pad6)*%
X129336800Y-45542200D03*
%TO.P,U2,7,TIMER*%
%TO.N,+5V*%
X129336800Y-48082200D03*
%TO.P,U2,8,PC0*%
%TO.N,/PC0*%
X129336800Y-50622200D03*
%TO.P,U2,9,PC1*%
%TO.N,/SERIAL_DATA*%
X129336800Y-53162200D03*
%TO.P,U2,10,PC2*%
%TO.N,/T26*%
X129336800Y-55702200D03*
%TO.P,U2,11,PC3*%
%TO.N,/OUT_OF_LOCK*%
X129336800Y-58242200D03*
%TO.P,U2,12,PB0*%
%TO.N,/FM_ENABLE*%
X129336800Y-60782200D03*
%TO.P,U2,13,PB1*%
%TO.N,/B+C (H)*%
X129336800Y-63322200D03*
%TO.P,U2,14,PB2*%
%TO.N,/S (L)*%
X129336800Y-65862200D03*
%TO.P,U2,15,PB3*%
%TO.N,/FM_CAL_ADD_CYCL*%
X144576800Y-65862200D03*
%TO.P,U2,16,PB4*%
%TO.N,/TEST_NO_FM_CAL*%
X144576800Y-63322200D03*
%TO.P,U2,17,PB5*%
%TO.N,/TEST_LF_LOOP_FIXED*%
X144576800Y-60782200D03*
%TO.P,U2,18,PB6*%
%TO.N,/TEST_SIG_ANALYSIS*%
X144576800Y-58242200D03*
%TO.P,U2,19,PB7*%
%TO.N,/TEST_UNUSED*%
X144576800Y-55702200D03*
%TO.P,U2,20,PA0*%
%TO.N,/DATA_BIT1*%
X144576800Y-53162200D03*
%TO.P,U2,21,PA1*%
%TO.N,/DATA_BIT2*%
X144576800Y-50622200D03*
%TO.P,U2,22,PA2*%
%TO.N,/DATA_BIT4*%
X144576800Y-48082200D03*
%TO.P,U2,23,PA3*%
%TO.N,/DATA_BIT8*%
X144576800Y-45542200D03*
%TO.P,U2,24,PA4*%
%TO.N,/DATA_CLK*%
X144576800Y-43002200D03*
%TO.P,U2,25,PA5*%
%TO.N,/DATA_VALID*%
X144576800Y-40462200D03*
%TO.P,U2,26,PA6*%
%TO.N,/FM_DC_ENABLE*%
X144576800Y-37922200D03*
%TO.P,U2,27,PA7*%
%TO.N,/FM_OFF*%
X144576800Y-35382200D03*
%TO.P,U2,28,RESET*%
%TO.N,/RESET*%
X144576800Y-32842200D03*
%TD*%
D12*
%TO.P,J1,1,Pin_1*%
%TO.N,/FM_CAL_ADD_CYCL*%
X135758000Y-33543000D03*
D13*
%TO.P,J1,2,Pin_2*%
%TO.N,+5V*%
X138298000Y-33543000D03*
%TO.P,J1,3,Pin_3*%
%TO.N,/B+C (H)*%
X135758000Y-36083000D03*
%TO.P,J1,4,Pin_4*%
%TO.N,/S (L)*%
X138298000Y-36083000D03*
%TO.P,J1,5,Pin_5*%
%TO.N,/RESET*%
X135758000Y-38623000D03*
%TO.P,J1,6,Pin_6*%
%TO.N,GND*%
X138298000Y-38623000D03*
%TD*%
D14*
%TO.P,U1,1,PE6*%
%TO.N,/PE6*%
X137528441Y-50990736D03*
%TO.P,U1,2,UVCC*%
%TO.N,unconnected-(U1-Pad2)*%
X137881994Y-50637182D03*
%TO.P,U1,3,D-*%
%TO.N,unconnected-(U1-Pad3)*%
X138235548Y-50283629D03*
%TO.P,U1,4,D+*%
%TO.N,unconnected-(U1-Pad4)*%
X138589101Y-49930076D03*
%TO.P,U1,5,UGND*%
%TO.N,GND*%
X138942654Y-49576522D03*
%TO.P,U1,6,UCAP*%
%TO.N,unconnected-(U1-Pad6)*%
X139296208Y-49222969D03*
%TO.P,U1,7,VBUS*%
%TO.N,unconnected-(U1-Pad7)*%
X139649761Y-48869415D03*
%TO.P,U1,8,PB0*%
%TO.N,/FM_ENABLE*%
X140003315Y-48515862D03*
%TO.P,U1,9,PB1*%
%TO.N,/B+C (H)*%
X140356868Y-48162309D03*
%TO.P,U1,10,PB2*%
%TO.N,/S (L)*%
X140710421Y-47808755D03*
%TO.P,U1,11,PB3*%
%TO.N,/FM_CAL_ADD_CYCL*%
X141063975Y-47455202D03*
D15*
%TO.P,U1,12,PB7*%
%TO.N,/TEST_UNUSED*%
X141063975Y-46270798D03*
%TO.P,U1,13,~{RESET}*%
%TO.N,/RESET*%
X140710421Y-45917245D03*
%TO.P,U1,14,VCC*%
%TO.N,+5V*%
X140356868Y-45563691D03*
%TO.P,U1,15,GND*%
%TO.N,GND*%
X140003315Y-45210138D03*
%TO.P,U1,16,XTAL2*%
%TO.N,/EXTAL*%
X139649761Y-44856585D03*
%TO.P,U1,17,XTAL1*%
%TO.N,/XTAL*%
X139296208Y-44503031D03*
%TO.P,U1,18,PD0*%
%TO.N,/DATA_BIT1*%
X138942654Y-44149478D03*
%TO.P,U1,19,PD1*%
%TO.N,/DATA_BIT2*%
X138589101Y-43795924D03*
%TO.P,U1,20,PD2*%
%TO.N,/DATA_BIT4*%
X138235548Y-43442371D03*
%TO.P,U1,21,PD3*%
%TO.N,/DATA_BIT8*%
X137881994Y-43088818D03*
%TO.P,U1,22,PD5*%
%TO.N,/DATA_VALID*%
X137528441Y-42735264D03*
D14*
%TO.P,U1,23,GND*%
%TO.N,GND*%
X136344037Y-42735264D03*
%TO.P,U1,24,AVCC*%
%TO.N,+5V*%
X135990484Y-43088818D03*
%TO.P,U1,25,PD4*%
%TO.N,/DATA_CLK*%
X135636930Y-43442371D03*
%TO.P,U1,26,PD6*%
%TO.N,/FM_DC_ENABLE*%
X135283377Y-43795924D03*
%TO.P,U1,27,PD7*%
%TO.N,/FM_OFF*%
X134929824Y-44149478D03*
%TO.P,U1,28,PB4*%
%TO.N,/TEST_NO_FM_CAL*%
X134576270Y-44503031D03*
%TO.P,U1,29,PB5*%
%TO.N,/TEST_LF_LOOP_FIXED*%
X134222717Y-44856585D03*
%TO.P,U1,30,PB6*%
%TO.N,/TEST_SIG_ANALYSIS*%
X133869163Y-45210138D03*
%TO.P,U1,31,PC6*%
%TO.N,/PC6*%
X133515610Y-45563691D03*
%TO.P,U1,32,PC7*%
%TO.N,/SERIAL_CLK*%
X133162057Y-45917245D03*
%TO.P,U1,33,~{HWB}/PE2*%
%TO.N,/PE2*%
X132808503Y-46270798D03*
D15*
%TO.P,U1,34,VCC*%
%TO.N,+5V*%
X132808503Y-47455202D03*
%TO.P,U1,35,GND*%
%TO.N,GND*%
X133162057Y-47808755D03*
%TO.P,U1,36,PF7*%
%TO.N,/OUT_OF_LOCK*%
X133515610Y-48162309D03*
%TO.P,U1,37,PF6*%
%TO.N,/T26*%
X133869163Y-48515862D03*
%TO.P,U1,38,PF5*%
%TO.N,/SERIAL_DATA*%
X134222717Y-48869415D03*
%TO.P,U1,39,PF4*%
%TO.N,/PC0*%
X134576270Y-49222969D03*
%TO.P,U1,40,PF1*%
%TO.N,/PF1*%
X134929824Y-49576522D03*
%TO.P,U1,41,PF0*%
%TO.N,/PF0*%
X135283377Y-49930076D03*
%TO.P,U1,42,AREF*%
%TO.N,unconnected-(U1-Pad42)*%
X135636930Y-50283629D03*
%TO.P,U1,43,GND*%
%TO.N,GND*%
X135990484Y-50637182D03*
%TO.P,U1,44,AVCC*%
%TO.N,+5V*%
X136344037Y-50990736D03*
D16*
%TO.P,U1,45,GND*%
%TO.N,GND*%
X136936239Y-46863000D03*
%TD*%
D17*
%TO.N,/SERIAL_CLK*%
X131521890Y-41732390D03*
X128270000Y-36703000D03*
%TO.N,/SERIAL_DATA*%
X131572000Y-54229000D03*
X130175000Y-54356000D03*
%TO.N,/B+C (H)*%
X140957800Y-49403000D03*
X145772603Y-48744603D03*
%TO.N,/S (L)*%
X133985000Y-34163000D03*
%TO.N,/TEST_NO_FM_CAL*%
X133836856Y-44017680D03*
X141441903Y-60187303D03*
X135267891Y-53758698D03*
%TO.N,/TEST_LF_LOOP_FIXED*%
X141459718Y-55850476D03*
X132935841Y-43883184D03*
X135894485Y-53551692D03*
%TO.N,/TEST_SIG_ANALYSIS*%
X132080000Y-43942000D03*
X136534823Y-53711177D03*
X141528800Y-55194200D03*
%TO.N,/DATA_BIT1*%
X139743818Y-43362814D03*
%TO.N,/DATA_BIT2*%
X139827000Y-42696900D03*
%TO.N,/DATA_CLK*%
X133350000Y-41783000D03*
X132855140Y-38848860D03*
%TO.N,/DATA_VALID*%
X138303000Y-41910000D03*
%TO.N,/FM_DC_ENABLE*%
X130556000Y-37211000D03*
X132620089Y-41762901D03*
X139954000Y-35433000D03*
X133985000Y-35306000D03*
%TO.N,/FM_OFF*%
X132060834Y-42113193D03*
%TO.N,GND*%
X132310603Y-48998603D03*
X136271000Y-51943000D03*
X140714522Y-44566775D03*
X139573000Y-50292000D03*
X136553437Y-41536495D03*
%TO.N,+5V*%
X132302112Y-47879000D03*
X141640932Y-44485932D03*
X135178735Y-42175599D03*
X141503900Y-51181000D03*
X132842000Y-35306000D03*
%TO.N,/DATA_BIT8*%
X138978103Y-42123897D03*
X142417800Y-41524994D03*
%TO.N,/DATA_BIT4*%
X138958821Y-42783517D03*
%TO.N,/PC6*%
X132825116Y-44847884D03*
X135174794Y-59389206D03*
X134638691Y-53559754D03*
%TO.N,/PE2*%
X133959600Y-53746400D03*
X131064000Y-45085000D03*
X135278397Y-60174603D03*
%TO.N,/PF0*%
X133451100Y-58166000D03*
%TO.N,/PF1*%
X132715000Y-58801000D03*
%TD*%
D18*
%TO.N,/FM_ENABLE*%
X129336800Y-60782200D02*
X130149600Y-61595000D01*
X130149600Y-61595000D02*
X141732000Y-61595000D01*
X141732000Y-61595000D02*
X142036800Y-61290200D01*
X142036800Y-61290200D02*
X142036800Y-50596800D01*
X142036800Y-50596800D02*
X141732000Y-50292000D01*
X141732000Y-50292000D02*
X140843000Y-50292000D01*
X140843000Y-50292000D02*
X140462000Y-49911000D01*
X140462000Y-49911000D02*
X140462000Y-48974547D01*
X140462000Y-48974547D02*
X140003315Y-48515862D01*
%TO.N,/B+C (H)*%
X129336800Y-63322200D02*
X130225800Y-63322200D01*
X131648200Y-61899800D02*
X141858252Y-61899800D01*
X141858252Y-61899800D02*
X142341600Y-61416452D01*
X130225800Y-63322200D02*
X131648200Y-61899800D01*
X142341600Y-61416452D02*
X142341600Y-50147041D01*
X142341600Y-50147041D02*
X141283780Y-49089220D01*
%TO.N,/S (L)*%
X140710421Y-47808755D02*
X140772755Y-47808755D01*
X141984504Y-62204600D02*
X132613400Y-62204600D01*
X140772755Y-47808755D02*
X142646400Y-49682400D01*
X142646400Y-49682400D02*
X142646400Y-61542704D01*
X142646400Y-61542704D02*
X141984504Y-62204600D01*
X132613400Y-62204600D02*
X129336800Y-65481200D01*
X129336800Y-65481200D02*
X129336800Y-65862200D01*
D19*
%TO.N,+5V*%
X135178735Y-42175599D02*
X134517849Y-41514713D01*
X131330700Y-41008300D02*
X130810000Y-41529000D01*
X134517849Y-41514713D02*
X133997700Y-41514713D01*
X133997700Y-41514713D02*
X133491287Y-41008300D01*
X133491287Y-41008300D02*
X131330700Y-41008300D01*
X130810000Y-41529000D02*
X130810000Y-43561000D01*
X130810000Y-43561000D02*
X130175000Y-44196000D01*
X130175000Y-44196000D02*
X127762000Y-44196000D01*
X127762000Y-46507400D02*
X127762000Y-44196000D01*
X127762000Y-44196000D02*
X127762000Y-38735000D01*
X129336800Y-48082200D02*
X127762000Y-46507400D01*
X127762000Y-38735000D02*
X128574800Y-37922200D01*
X131637822Y-47843222D02*
X131398844Y-48082200D01*
X131398844Y-48082200D02*
X129336800Y-48082200D01*
D18*
%TO.N,/SERIAL_CLK*%
X128270000Y-36703000D02*
X128270000Y-36449000D01*
X128270000Y-36449000D02*
X129336800Y-35382200D01*
X131521890Y-41732390D02*
X131444500Y-41809780D01*
X131444500Y-44199688D02*
X133162057Y-45917245D01*
X131444500Y-41809780D02*
X131444500Y-44199688D01*
%TO.N,/EXTAL*%
X133812178Y-40233600D02*
X129565400Y-40233600D01*
X139649761Y-44856585D02*
X139649761Y-44754239D01*
X140970000Y-42037000D02*
X139649200Y-40716200D01*
X129565400Y-40233600D02*
X129336800Y-40462200D01*
X140970000Y-43434000D02*
X140970000Y-42037000D01*
X139649761Y-44754239D02*
X140970000Y-43434000D01*
X139649200Y-40716200D02*
X134294778Y-40716200D01*
X134294778Y-40716200D02*
X133812178Y-40233600D01*
%TO.N,/XTAL*%
X129336800Y-42240200D02*
X131038600Y-40538400D01*
X131038600Y-40538400D02*
X133685926Y-40538400D01*
X133685926Y-40538400D02*
X134168526Y-41021000D01*
X140665200Y-42163252D02*
X140665200Y-43134039D01*
X134168526Y-41021000D02*
X139522948Y-41021000D01*
X140665200Y-43134039D02*
X139296208Y-44503031D01*
X139522948Y-41021000D02*
X140665200Y-42163252D01*
X129336800Y-43002200D02*
X129336800Y-42240200D01*
%TO.N,/SERIAL_DATA*%
X131368800Y-54025800D02*
X131368800Y-51723332D01*
X131368800Y-51723332D02*
X134222717Y-48869415D01*
X129336800Y-53162200D02*
X129336800Y-53517800D01*
X129336800Y-53517800D02*
X130175000Y-54356000D01*
X131572000Y-54229000D02*
X131368800Y-54025800D01*
%TO.N,/T26*%
X133350000Y-49022000D02*
X133350000Y-49149000D01*
X128016000Y-58801000D02*
X128016000Y-57023000D01*
X133869163Y-48515862D02*
X133856138Y-48515862D01*
X128016000Y-57023000D02*
X129336800Y-55702200D01*
X133350000Y-49149000D02*
X131064000Y-51435000D01*
X128600200Y-59385200D02*
X128016000Y-58801000D01*
X131064000Y-58293000D02*
X129971800Y-59385200D01*
X131064000Y-51435000D02*
X131064000Y-58293000D01*
X133856138Y-48515862D02*
X133350000Y-49022000D01*
X129971800Y-59385200D02*
X128600200Y-59385200D01*
%TO.N,/OUT_OF_LOCK*%
X130759200Y-56819800D02*
X130759200Y-51231800D01*
X129336800Y-58242200D02*
X130759200Y-56819800D01*
X130759200Y-51231800D02*
X132842000Y-49149000D01*
X132842000Y-48835919D02*
X133515610Y-48162309D01*
X132842000Y-49149000D02*
X132842000Y-48835919D01*
%TO.N,/B+C (H)*%
X141283780Y-49089220D02*
X140356868Y-48162309D01*
X145542000Y-41783000D02*
X144018000Y-41783000D01*
X145772603Y-48744603D02*
X145796000Y-48721206D01*
X137013000Y-37338000D02*
X135758000Y-36083000D01*
X145796000Y-42037000D02*
X145542000Y-41783000D01*
X139573000Y-37338000D02*
X137013000Y-37338000D01*
X140970000Y-49403000D02*
X140957800Y-49403000D01*
X145796000Y-48721206D02*
X145796000Y-42037000D01*
X141283780Y-49089220D02*
X140970000Y-49403000D01*
X144018000Y-41783000D02*
X139573000Y-37338000D01*
%TO.N,/S (L)*%
X127292100Y-35394900D02*
X128524000Y-34163000D01*
X127292100Y-63817500D02*
X127292100Y-35394900D01*
X129336800Y-65862200D02*
X127292100Y-63817500D01*
X128524000Y-34163000D02*
X133985000Y-34163000D01*
%TO.N,/FM_CAL_ADD_CYCL*%
X135758000Y-32771000D02*
X136906000Y-31623000D01*
X145923000Y-31623000D02*
X146685000Y-32385000D01*
X142951200Y-64211200D02*
X144576800Y-65836800D01*
X142951200Y-49342427D02*
X142951200Y-64211200D01*
X146685000Y-63754000D02*
X144576800Y-65862200D01*
X136906000Y-31623000D02*
X145923000Y-31623000D01*
X141063975Y-47455202D02*
X142951200Y-49342427D01*
X135758000Y-33543000D02*
X135758000Y-32771000D01*
X144576800Y-65836800D02*
X144576800Y-65862200D01*
X146685000Y-32385000D02*
X146685000Y-63754000D01*
%TO.N,/TEST_NO_FM_CAL*%
X135267891Y-54114891D02*
X136779000Y-55626000D01*
X135267891Y-53758698D02*
X135267891Y-54114891D01*
X134090919Y-44017680D02*
X134576270Y-44503031D01*
X141732000Y-59897206D02*
X141441903Y-60187303D01*
X140258616Y-55626000D02*
X141732000Y-57099384D01*
X136779000Y-55626000D02*
X140258616Y-55626000D01*
X133836856Y-44017680D02*
X134090919Y-44017680D01*
X141732000Y-57099384D02*
X141732000Y-59897206D01*
%TO.N,/TEST_LF_LOOP_FIXED*%
X133113141Y-44060484D02*
X133197160Y-44060484D01*
X140854242Y-55245000D02*
X141459718Y-55850476D01*
X137033000Y-55245000D02*
X140854242Y-55245000D01*
X133905099Y-44538967D02*
X134222717Y-44856585D01*
X132935841Y-43883184D02*
X133113141Y-44060484D01*
X135894485Y-53551692D02*
X135894485Y-54106485D01*
X135894485Y-54106485D02*
X137033000Y-55245000D01*
X133675643Y-44538967D02*
X133905099Y-44538967D01*
X133197160Y-44060484D02*
X133675643Y-44538967D01*
%TO.N,/TEST_SIG_ANALYSIS*%
X136534823Y-53711177D02*
X136534823Y-54111823D01*
X132503284Y-44365284D02*
X133024309Y-44365284D01*
X132080000Y-43942000D02*
X132503284Y-44365284D01*
X137287000Y-54864000D02*
X141198600Y-54864000D01*
X133024309Y-44365284D02*
X133869163Y-45210138D01*
X136534823Y-54111823D02*
X137287000Y-54864000D01*
X141198600Y-54864000D02*
X141528800Y-55194200D01*
%TO.N,/TEST_UNUSED*%
X142113000Y-47319823D02*
X141063975Y-46270798D01*
X142113000Y-48006000D02*
X142113000Y-47319823D01*
X143256000Y-54381400D02*
X143256000Y-49149000D01*
X144576800Y-55702200D02*
X143256000Y-54381400D01*
X143256000Y-49149000D02*
X142113000Y-48006000D01*
%TO.N,/DATA_BIT1*%
X138942654Y-44149478D02*
X138957154Y-44149478D01*
X138957154Y-44149478D02*
X139743818Y-43362814D01*
%TO.N,/DATA_BIT2*%
X139827000Y-42696900D02*
X139548100Y-42696900D01*
X139446000Y-42978838D02*
X138628914Y-43795924D01*
X139548100Y-42696900D02*
X139446000Y-42799000D01*
X139446000Y-42799000D02*
X139446000Y-42978838D01*
X138628914Y-43795924D02*
X138589101Y-43795924D01*
%TO.N,/DATA_CLK*%
X142468600Y-40894000D02*
X144576800Y-43002200D01*
X140262939Y-39776400D02*
X141380539Y-40894000D01*
X134201456Y-39293800D02*
X134684056Y-39776400D01*
X141380539Y-40894000D02*
X142468600Y-40894000D01*
X133604000Y-42037000D02*
X134231559Y-42037000D01*
X133300080Y-39293800D02*
X134201456Y-39293800D01*
X132855140Y-38848860D02*
X133300080Y-39293800D01*
X133350000Y-41783000D02*
X133604000Y-42037000D01*
X134231559Y-42037000D02*
X135636930Y-43442371D01*
X134684056Y-39776400D02*
X140262939Y-39776400D01*
%TO.N,/DATA_VALID*%
X137528441Y-42684559D02*
X138303000Y-41910000D01*
X137528441Y-42735264D02*
X137528441Y-42684559D01*
%TO.N,/FM_DC_ENABLE*%
X133275188Y-42418000D02*
X133905453Y-42418000D01*
X133934200Y-35255200D02*
X133985000Y-35306000D01*
X131978400Y-34772600D02*
X133451600Y-34772600D01*
X130556000Y-37211000D02*
X130556000Y-36195000D01*
X133905453Y-42418000D02*
X135283377Y-43795924D01*
X130556000Y-36195000D02*
X131978400Y-34772600D01*
X132620089Y-41762901D02*
X133275188Y-42418000D01*
X133451600Y-34772600D02*
X133934200Y-35255200D01*
X139954000Y-35433000D02*
X142443200Y-37922200D01*
X142443200Y-37922200D02*
X144576800Y-37922200D01*
%TO.N,/FM_OFF*%
X133706346Y-42926000D02*
X134929824Y-44149478D01*
X132060834Y-42113193D02*
X132873641Y-42926000D01*
X132873641Y-42926000D02*
X133706346Y-42926000D01*
%TO.N,/RESET*%
X140710421Y-45917245D02*
X141076791Y-45550875D01*
X142621000Y-47955948D02*
X143941052Y-49276000D01*
X142621000Y-34798000D02*
X134874000Y-34798000D01*
X141213102Y-45550875D02*
X141297977Y-45466000D01*
X142621000Y-46482000D02*
X142621000Y-47955948D01*
X134874000Y-34798000D02*
X134493000Y-35179000D01*
X146304000Y-48895000D02*
X146304000Y-34569400D01*
X145923000Y-49276000D02*
X146304000Y-48895000D01*
X141297977Y-45466000D02*
X141605000Y-45466000D01*
X146304000Y-34569400D02*
X144576800Y-32842200D01*
X134493000Y-37358000D02*
X135758000Y-38623000D01*
X141076791Y-45550875D02*
X141213102Y-45550875D01*
X144576800Y-32842200D02*
X142621000Y-34798000D01*
X141605000Y-45466000D02*
X142621000Y-46482000D01*
X143941052Y-49276000D02*
X145923000Y-49276000D01*
X134493000Y-35179000D02*
X134493000Y-37358000D01*
%TO.N,GND*%
X136936239Y-46863000D02*
X136936239Y-43327466D01*
X138350453Y-46863000D02*
X140003315Y-45210138D01*
D20*
X132310603Y-48725803D02*
X133162057Y-47874349D01*
X136015514Y-51943000D02*
X135509000Y-51436486D01*
D18*
X140646678Y-44566775D02*
X140587767Y-44625686D01*
D20*
X136271000Y-51943000D02*
X136015514Y-51943000D01*
D18*
X136936239Y-49691427D02*
X135990484Y-50637182D01*
X134107812Y-46863000D02*
X133162057Y-47808755D01*
D20*
X135890000Y-42281227D02*
X136344037Y-42735264D01*
D18*
X136936239Y-43327466D02*
X136344037Y-42735264D01*
D20*
X138942654Y-49576522D02*
X139573000Y-50206868D01*
X135509000Y-51436486D02*
X135509000Y-51118666D01*
X135890000Y-42199932D02*
X135890000Y-42281227D01*
X140587767Y-44625686D02*
X140003315Y-45210138D01*
D18*
X136936239Y-46863000D02*
X136936239Y-47570107D01*
D20*
X133162057Y-47874349D02*
X133162057Y-47808755D01*
X132310603Y-48998603D02*
X132310603Y-48725803D01*
X139573000Y-50206868D02*
X139573000Y-50292000D01*
D18*
X136936239Y-46863000D02*
X136936239Y-49691427D01*
X136936239Y-46863000D02*
X134107812Y-46863000D01*
D20*
X136553437Y-41536495D02*
X135890000Y-42199932D01*
D18*
X136936239Y-46863000D02*
X138350453Y-46863000D01*
D20*
X135509000Y-51118666D02*
X135990484Y-50637182D01*
D18*
X140714522Y-44566775D02*
X140646678Y-44566775D01*
X136936239Y-47570107D02*
X138942654Y-49576522D01*
D20*
%TO.N,+5V*%
X135128000Y-42226334D02*
X135990484Y-43088818D01*
D19*
X132080000Y-36068000D02*
X132080000Y-38989000D01*
X132302112Y-47879000D02*
X131637822Y-47843222D01*
D20*
X129336800Y-37922200D02*
X128574800Y-37922200D01*
X141044766Y-45144475D02*
X140798007Y-45144475D01*
D19*
X136793273Y-51449273D02*
X136793273Y-51439972D01*
D20*
X132302112Y-47879000D02*
X132384705Y-47879000D01*
D19*
X141640932Y-41818932D02*
X141640932Y-44414068D01*
D20*
X141640932Y-44548309D02*
X141044766Y-45144475D01*
X141640932Y-44414068D02*
X141605000Y-44450000D01*
D18*
X140378791Y-45563691D02*
X140356868Y-45563691D01*
D20*
X140798007Y-45144475D02*
X140378791Y-45563691D01*
D19*
X137171006Y-51827006D02*
X136793273Y-51449273D01*
X140068300Y-40246300D02*
X141640932Y-41818932D01*
X140857894Y-51827006D02*
X137171006Y-51827006D01*
X134489417Y-40246300D02*
X140068300Y-40246300D01*
X130403600Y-38989000D02*
X131953000Y-38989000D01*
X129336800Y-37922200D02*
X130403600Y-38989000D01*
D20*
X136793273Y-51439972D02*
X136344037Y-50990736D01*
D19*
X132080000Y-38989000D02*
X132854700Y-39763700D01*
X134006817Y-39763700D02*
X134489417Y-40246300D01*
D20*
X132384705Y-47879000D02*
X132808503Y-47455202D01*
D19*
X132842000Y-35306000D02*
X132080000Y-36068000D01*
D20*
X141640932Y-44485932D02*
X141640932Y-44548309D01*
D19*
X132854700Y-39763700D02*
X134006817Y-39763700D01*
X141503900Y-51181000D02*
X140857894Y-51827006D01*
D18*
%TO.N,/DATA_BIT8*%
X137881994Y-43088818D02*
X137886182Y-43088818D01*
X142417800Y-41524994D02*
X142417800Y-43383200D01*
X138851103Y-42123897D02*
X138978103Y-42123897D01*
X137886182Y-43088818D02*
X138851103Y-42123897D01*
X142417800Y-43383200D02*
X144576800Y-45542200D01*
%TO.N,/DATA_BIT4*%
X138235548Y-43442371D02*
X138299967Y-43442371D01*
X138299967Y-43442371D02*
X138958821Y-42783517D01*
%TO.N,/PC6*%
X134441700Y-58656112D02*
X135174794Y-59389206D01*
X133515610Y-45538378D02*
X133515610Y-45563691D01*
X132825116Y-44847884D02*
X133515610Y-45538378D01*
X134638691Y-53559754D02*
X134441700Y-53756745D01*
X134441700Y-53756745D02*
X134441700Y-58656112D01*
%TO.N,/PE2*%
X131622705Y-45085000D02*
X132808503Y-46270798D01*
X133959600Y-58855806D02*
X135278397Y-60174603D01*
X131064000Y-45085000D02*
X131622705Y-45085000D01*
X133959600Y-53746400D02*
X133959600Y-58855806D01*
%TO.N,/PF0*%
X133477000Y-58140100D02*
X133451100Y-58166000D01*
X133477000Y-51736453D02*
X133477000Y-58140100D01*
X135283377Y-49930076D02*
X133477000Y-51736453D01*
%TO.N,/PF1*%
X133096000Y-51435000D02*
X133096000Y-57785000D01*
X134929824Y-49576522D02*
X134929824Y-49601176D01*
X133096000Y-57785000D02*
X132715000Y-58166000D01*
X132715000Y-58166000D02*
X132715000Y-58801000D01*
X134929824Y-49601176D02*
X133096000Y-51435000D01*
%TO.N,/PC0*%
X130517526Y-59690000D02*
X132715000Y-57492526D01*
X132715000Y-51054000D02*
X134546031Y-49222969D01*
X134546031Y-49222969D02*
X134576270Y-49222969D01*
X132715000Y-57492526D02*
X132715000Y-51054000D01*
X128270000Y-59690000D02*
X130517526Y-59690000D01*
X127635000Y-52324000D02*
X127635000Y-59055000D01*
X129336800Y-50622200D02*
X127635000Y-52324000D01*
X127635000Y-59055000D02*
X128270000Y-59690000D01*
%TD*%
M02*
