%TF.GenerationSoftware,KiCad,Pcbnew,6.0.11-2627ca5db0~126~ubuntu22.04.1*%
%TF.CreationDate,2024-02-09T08:46:32-05:00*%
%TF.ProjectId,HP8656B_fractional-n_microprocessor,48503836-3536-4425-9f66-72616374696f,rev?*%
%TF.SameCoordinates,Original*%
%TF.FileFunction,Paste,Top*%
%TF.FilePolarity,Positive*%
%FSLAX46Y46*%
G04 Gerber Fmt 4.6, Leading zero omitted, Abs format (unit mm)*
G04 Created by KiCad (PCBNEW 6.0.11-2627ca5db0~126~ubuntu22.04.1) date 2024-02-09 08:46:32*
%MOMM*%
%LPD*%
G01*
G04 APERTURE LIST*
G04 Aperture macros list*
%AMRoundRect*
0 Rectangle with rounded corners*
0 $1 Rounding radius*
0 $2 $3 $4 $5 $6 $7 $8 $9 X,Y pos of 4 corners*
0 Add a 4 corners polygon primitive as box body*
4,1,4,$2,$3,$4,$5,$6,$7,$8,$9,$2,$3,0*
0 Add four circle primitives for the rounded corners*
1,1,$1+$1,$2,$3*
1,1,$1+$1,$4,$5*
1,1,$1+$1,$6,$7*
1,1,$1+$1,$8,$9*
0 Add four rect primitives between the rounded corners*
20,1,$1+$1,$2,$3,$4,$5,0*
20,1,$1+$1,$4,$5,$6,$7,0*
20,1,$1+$1,$6,$7,$8,$9,0*
20,1,$1+$1,$8,$9,$2,$3,0*%
G04 Aperture macros list end*
%ADD10RoundRect,0.250000X0.388909X0.000000X0.000000X0.388909X-0.388909X0.000000X0.000000X-0.388909X0*%
%ADD11RoundRect,0.062500X0.380070X-0.291682X-0.291682X0.380070X-0.380070X0.291682X0.291682X-0.380070X0*%
%ADD12RoundRect,0.062500X0.380070X0.291682X0.291682X0.380070X-0.380070X-0.291682X-0.291682X-0.380070X0*%
G04 APERTURE END LIST*
D10*
%TO.C,U1*%
X136017000Y-48701478D03*
X138774717Y-45943761D03*
X138774717Y-47782239D03*
X139693955Y-46863000D03*
X136017000Y-46863000D03*
X137855478Y-46863000D03*
X135097761Y-47782239D03*
X136936239Y-47782239D03*
X137855478Y-48701478D03*
X136936239Y-44105284D03*
X136936239Y-49620716D03*
X136017000Y-45024522D03*
X135097761Y-45943761D03*
X136936239Y-45943761D03*
X134178523Y-46863000D03*
X137855478Y-45024522D03*
D11*
X137528441Y-50990736D03*
X137881994Y-50637182D03*
X138235548Y-50283629D03*
X138589101Y-49930076D03*
X138942654Y-49576522D03*
X139296208Y-49222969D03*
X139649761Y-48869415D03*
X140003315Y-48515862D03*
X140356868Y-48162309D03*
X140710421Y-47808755D03*
X141063975Y-47455202D03*
D12*
X141063975Y-46270798D03*
X140710421Y-45917245D03*
X140356868Y-45563691D03*
X140003315Y-45210138D03*
X139649761Y-44856585D03*
X139296208Y-44503031D03*
X138942654Y-44149478D03*
X138589101Y-43795924D03*
X138235548Y-43442371D03*
X137881994Y-43088818D03*
X137528441Y-42735264D03*
D11*
X136344037Y-42735264D03*
X135990484Y-43088818D03*
X135636930Y-43442371D03*
X135283377Y-43795924D03*
X134929824Y-44149478D03*
X134576270Y-44503031D03*
X134222717Y-44856585D03*
X133869163Y-45210138D03*
X133515610Y-45563691D03*
X133162057Y-45917245D03*
X132808503Y-46270798D03*
D12*
X132808503Y-47455202D03*
X133162057Y-47808755D03*
X133515610Y-48162309D03*
X133869163Y-48515862D03*
X134222717Y-48869415D03*
X134576270Y-49222969D03*
X134929824Y-49576522D03*
X135283377Y-49930076D03*
X135636930Y-50283629D03*
X135990484Y-50637182D03*
X136344037Y-50990736D03*
%TD*%
M02*
