%TF.GenerationSoftware,KiCad,Pcbnew,6.0.11-2627ca5db0~126~ubuntu22.04.1*%
%TF.CreationDate,2024-02-09T08:46:32-05:00*%
%TF.ProjectId,HP8656B_fractional-n_microprocessor,48503836-3536-4425-9f66-72616374696f,rev?*%
%TF.SameCoordinates,Original*%
%TF.FileFunction,Legend,Bot*%
%TF.FilePolarity,Positive*%
%FSLAX46Y46*%
G04 Gerber Fmt 4.6, Leading zero omitted, Abs format (unit mm)*
G04 Created by KiCad (PCBNEW 6.0.11-2627ca5db0~126~ubuntu22.04.1) date 2024-02-09 08:46:32*
%MOMM*%
%LPD*%
G01*
G04 APERTURE LIST*
%ADD10C,0.152400*%
%ADD11C,0.127000*%
%ADD12C,0.120000*%
G04 APERTURE END LIST*
D10*
X137976428Y-44377428D02*
X138012714Y-44304857D01*
X138012714Y-44159714D01*
X137976428Y-44087142D01*
X137903857Y-44050857D01*
X137613571Y-44050857D01*
X137541000Y-44087142D01*
X137504714Y-44159714D01*
X137504714Y-44304857D01*
X137541000Y-44377428D01*
X137613571Y-44413714D01*
X137686142Y-44413714D01*
X137758714Y-44050857D01*
X138012714Y-44740285D02*
X137250714Y-44740285D01*
X137722428Y-44812857D02*
X138012714Y-45030571D01*
X137504714Y-45030571D02*
X137795000Y-44740285D01*
X138012714Y-45466000D02*
X137976428Y-45393428D01*
X137940142Y-45357142D01*
X137867571Y-45320857D01*
X137649857Y-45320857D01*
X137577285Y-45357142D01*
X137541000Y-45393428D01*
X137504714Y-45466000D01*
X137504714Y-45574857D01*
X137541000Y-45647428D01*
X137577285Y-45683714D01*
X137649857Y-45720000D01*
X137867571Y-45720000D01*
X137940142Y-45683714D01*
X137976428Y-45647428D01*
X138012714Y-45574857D01*
X138012714Y-45466000D01*
X138012714Y-46155428D02*
X137976428Y-46082857D01*
X137903857Y-46046571D01*
X137250714Y-46046571D01*
X138012714Y-46554571D02*
X137976428Y-46482000D01*
X137940142Y-46445714D01*
X137867571Y-46409428D01*
X137649857Y-46409428D01*
X137577285Y-46445714D01*
X137541000Y-46482000D01*
X137504714Y-46554571D01*
X137504714Y-46663428D01*
X137541000Y-46736000D01*
X137577285Y-46772285D01*
X137649857Y-46808571D01*
X137867571Y-46808571D01*
X137940142Y-46772285D01*
X137976428Y-46736000D01*
X138012714Y-46663428D01*
X138012714Y-46554571D01*
X137976428Y-47098857D02*
X138012714Y-47171428D01*
X138012714Y-47316571D01*
X137976428Y-47389142D01*
X137903857Y-47425428D01*
X137867571Y-47425428D01*
X137795000Y-47389142D01*
X137758714Y-47316571D01*
X137758714Y-47207714D01*
X137722428Y-47135142D01*
X137649857Y-47098857D01*
X137613571Y-47098857D01*
X137541000Y-47135142D01*
X137504714Y-47207714D01*
X137504714Y-47316571D01*
X137541000Y-47389142D01*
X138012714Y-47752000D02*
X137250714Y-47752000D01*
X137722428Y-47824571D02*
X138012714Y-48042285D01*
X137504714Y-48042285D02*
X137795000Y-47752000D01*
X138012714Y-48368857D02*
X137504714Y-48368857D01*
X137250714Y-48368857D02*
X137287000Y-48332571D01*
X137323285Y-48368857D01*
X137287000Y-48405142D01*
X137250714Y-48368857D01*
X137323285Y-48368857D01*
X137649857Y-49203428D02*
X137613571Y-49167142D01*
X137577285Y-49094571D01*
X137577285Y-49022000D01*
X137613571Y-48949428D01*
X137649857Y-48913142D01*
X137722428Y-48876857D01*
X137795000Y-48876857D01*
X137867571Y-48913142D01*
X137903857Y-48949428D01*
X137940142Y-49022000D01*
X137940142Y-49094571D01*
X137903857Y-49167142D01*
X137867571Y-49203428D01*
X137577285Y-49203428D02*
X137867571Y-49203428D01*
X137903857Y-49239714D01*
X137903857Y-49276000D01*
X137867571Y-49348571D01*
X137795000Y-49384857D01*
X137613571Y-49384857D01*
X137504714Y-49312285D01*
X137432142Y-49203428D01*
X137395857Y-49058285D01*
X137432142Y-48913142D01*
X137504714Y-48804285D01*
X137613571Y-48731714D01*
X137758714Y-48695428D01*
X137903857Y-48731714D01*
X138012714Y-48804285D01*
X138085285Y-48913142D01*
X138121571Y-49058285D01*
X138085285Y-49203428D01*
X138012714Y-49312285D01*
X137504714Y-50038000D02*
X138121571Y-50038000D01*
X138194142Y-50001714D01*
X138230428Y-49965428D01*
X138266714Y-49892857D01*
X138266714Y-49784000D01*
X138230428Y-49711428D01*
X137976428Y-50038000D02*
X138012714Y-49965428D01*
X138012714Y-49820285D01*
X137976428Y-49747714D01*
X137940142Y-49711428D01*
X137867571Y-49675142D01*
X137649857Y-49675142D01*
X137577285Y-49711428D01*
X137541000Y-49747714D01*
X137504714Y-49820285D01*
X137504714Y-49965428D01*
X137541000Y-50038000D01*
X138012714Y-50400857D02*
X137504714Y-50400857D01*
X137577285Y-50400857D02*
X137541000Y-50437142D01*
X137504714Y-50509714D01*
X137504714Y-50618571D01*
X137541000Y-50691142D01*
X137613571Y-50727428D01*
X138012714Y-50727428D01*
X137613571Y-50727428D02*
X137541000Y-50763714D01*
X137504714Y-50836285D01*
X137504714Y-50945142D01*
X137541000Y-51017714D01*
X137613571Y-51054000D01*
X138012714Y-51054000D01*
X138012714Y-51743428D02*
X137613571Y-51743428D01*
X137541000Y-51707142D01*
X137504714Y-51634571D01*
X137504714Y-51489428D01*
X137541000Y-51416857D01*
X137976428Y-51743428D02*
X138012714Y-51670857D01*
X138012714Y-51489428D01*
X137976428Y-51416857D01*
X137903857Y-51380571D01*
X137831285Y-51380571D01*
X137758714Y-51416857D01*
X137722428Y-51489428D01*
X137722428Y-51670857D01*
X137686142Y-51743428D01*
X138012714Y-52106285D02*
X137504714Y-52106285D01*
X137250714Y-52106285D02*
X137287000Y-52070000D01*
X137323285Y-52106285D01*
X137287000Y-52142571D01*
X137250714Y-52106285D01*
X137323285Y-52106285D01*
X138012714Y-52578000D02*
X137976428Y-52505428D01*
X137903857Y-52469142D01*
X137250714Y-52469142D01*
X137940142Y-52868285D02*
X137976428Y-52904571D01*
X138012714Y-52868285D01*
X137976428Y-52832000D01*
X137940142Y-52868285D01*
X138012714Y-52868285D01*
X137976428Y-53557714D02*
X138012714Y-53485142D01*
X138012714Y-53340000D01*
X137976428Y-53267428D01*
X137940142Y-53231142D01*
X137867571Y-53194857D01*
X137649857Y-53194857D01*
X137577285Y-53231142D01*
X137541000Y-53267428D01*
X137504714Y-53340000D01*
X137504714Y-53485142D01*
X137541000Y-53557714D01*
X138012714Y-53993142D02*
X137976428Y-53920571D01*
X137940142Y-53884285D01*
X137867571Y-53848000D01*
X137649857Y-53848000D01*
X137577285Y-53884285D01*
X137541000Y-53920571D01*
X137504714Y-53993142D01*
X137504714Y-54102000D01*
X137541000Y-54174571D01*
X137577285Y-54210857D01*
X137649857Y-54247142D01*
X137867571Y-54247142D01*
X137940142Y-54210857D01*
X137976428Y-54174571D01*
X138012714Y-54102000D01*
X138012714Y-53993142D01*
X138012714Y-54573714D02*
X137504714Y-54573714D01*
X137577285Y-54573714D02*
X137541000Y-54610000D01*
X137504714Y-54682571D01*
X137504714Y-54791428D01*
X137541000Y-54864000D01*
X137613571Y-54900285D01*
X138012714Y-54900285D01*
X137613571Y-54900285D02*
X137541000Y-54936571D01*
X137504714Y-55009142D01*
X137504714Y-55118000D01*
X137541000Y-55190571D01*
X137613571Y-55226857D01*
X138012714Y-55226857D01*
X136107714Y-44159714D02*
X136615714Y-44341142D01*
X136107714Y-44522571D01*
X136615714Y-45212000D02*
X136615714Y-44776571D01*
X136615714Y-44994285D02*
X135853714Y-44994285D01*
X135962571Y-44921714D01*
X136035142Y-44849142D01*
X136071428Y-44776571D01*
X136543142Y-45538571D02*
X136579428Y-45574857D01*
X136615714Y-45538571D01*
X136579428Y-45502285D01*
X136543142Y-45538571D01*
X136615714Y-45538571D01*
X135853714Y-46046571D02*
X135853714Y-46119142D01*
X135890000Y-46191714D01*
X135926285Y-46228000D01*
X135998857Y-46264285D01*
X136144000Y-46300571D01*
X136325428Y-46300571D01*
X136470571Y-46264285D01*
X136543142Y-46228000D01*
X136579428Y-46191714D01*
X136615714Y-46119142D01*
X136615714Y-46046571D01*
X136579428Y-45974000D01*
X136543142Y-45937714D01*
X136470571Y-45901428D01*
X136325428Y-45865142D01*
X136144000Y-45865142D01*
X135998857Y-45901428D01*
X135926285Y-45937714D01*
X135890000Y-45974000D01*
X135853714Y-46046571D01*
X136615714Y-47606857D02*
X136615714Y-47171428D01*
X136615714Y-47389142D02*
X135853714Y-47389142D01*
X135962571Y-47316571D01*
X136035142Y-47244000D01*
X136071428Y-47171428D01*
X135817428Y-48477714D02*
X136797142Y-47824571D01*
X135926285Y-48695428D02*
X135890000Y-48731714D01*
X135853714Y-48804285D01*
X135853714Y-48985714D01*
X135890000Y-49058285D01*
X135926285Y-49094571D01*
X135998857Y-49130857D01*
X136071428Y-49130857D01*
X136180285Y-49094571D01*
X136615714Y-48659142D01*
X136615714Y-49130857D01*
X135853714Y-49602571D02*
X135853714Y-49675142D01*
X135890000Y-49747714D01*
X135926285Y-49784000D01*
X135998857Y-49820285D01*
X136144000Y-49856571D01*
X136325428Y-49856571D01*
X136470571Y-49820285D01*
X136543142Y-49784000D01*
X136579428Y-49747714D01*
X136615714Y-49675142D01*
X136615714Y-49602571D01*
X136579428Y-49530000D01*
X136543142Y-49493714D01*
X136470571Y-49457428D01*
X136325428Y-49421142D01*
X136144000Y-49421142D01*
X135998857Y-49457428D01*
X135926285Y-49493714D01*
X135890000Y-49530000D01*
X135853714Y-49602571D01*
X135926285Y-50146857D02*
X135890000Y-50183142D01*
X135853714Y-50255714D01*
X135853714Y-50437142D01*
X135890000Y-50509714D01*
X135926285Y-50545999D01*
X135998857Y-50582285D01*
X136071428Y-50582285D01*
X136180285Y-50545999D01*
X136615714Y-50110571D01*
X136615714Y-50582285D01*
X136107714Y-51235428D02*
X136615714Y-51235428D01*
X135817428Y-51053999D02*
X136361714Y-50872571D01*
X136361714Y-51344285D01*
D11*
%TO.C,TP3*%
X138176000Y-62066714D02*
X138176000Y-61304714D01*
X137885714Y-61304714D01*
X137813142Y-61341000D01*
X137776857Y-61377285D01*
X137740571Y-61449857D01*
X137740571Y-61558714D01*
X137776857Y-61631285D01*
X137813142Y-61667571D01*
X137885714Y-61703857D01*
X138176000Y-61703857D01*
X137160000Y-61667571D02*
X137414000Y-61667571D01*
X137414000Y-62066714D02*
X137414000Y-61304714D01*
X137051142Y-61304714D01*
X136615714Y-61304714D02*
X136543142Y-61304714D01*
X136470571Y-61341000D01*
X136434285Y-61377285D01*
X136398000Y-61449857D01*
X136361714Y-61595000D01*
X136361714Y-61776428D01*
X136398000Y-61921571D01*
X136434285Y-61994142D01*
X136470571Y-62030428D01*
X136543142Y-62066714D01*
X136615714Y-62066714D01*
X136688285Y-62030428D01*
X136724571Y-61994142D01*
X136760857Y-61921571D01*
X136797142Y-61776428D01*
X136797142Y-61595000D01*
X136760857Y-61449857D01*
X136724571Y-61377285D01*
X136688285Y-61341000D01*
X136615714Y-61304714D01*
%TO.C,TP4*%
X138049000Y-67781714D02*
X138049000Y-67019714D01*
X137758714Y-67019714D01*
X137686142Y-67056000D01*
X137649857Y-67092285D01*
X137613571Y-67164857D01*
X137613571Y-67273714D01*
X137649857Y-67346285D01*
X137686142Y-67382571D01*
X137758714Y-67418857D01*
X138049000Y-67418857D01*
X137033000Y-67382571D02*
X137287000Y-67382571D01*
X137287000Y-67781714D02*
X137287000Y-67019714D01*
X136924142Y-67019714D01*
X136234714Y-67781714D02*
X136670142Y-67781714D01*
X136452428Y-67781714D02*
X136452428Y-67019714D01*
X136525000Y-67128571D01*
X136597571Y-67201142D01*
X136670142Y-67237428D01*
%TO.C,TP2*%
X140607142Y-67781714D02*
X140607142Y-67019714D01*
X140316857Y-67019714D01*
X140244285Y-67056000D01*
X140208000Y-67092285D01*
X140171714Y-67164857D01*
X140171714Y-67273714D01*
X140208000Y-67346285D01*
X140244285Y-67382571D01*
X140316857Y-67418857D01*
X140607142Y-67418857D01*
X139845142Y-67382571D02*
X139591142Y-67382571D01*
X139482285Y-67781714D02*
X139845142Y-67781714D01*
X139845142Y-67019714D01*
X139482285Y-67019714D01*
X139192000Y-67092285D02*
X139155714Y-67056000D01*
X139083142Y-67019714D01*
X138901714Y-67019714D01*
X138829142Y-67056000D01*
X138792857Y-67092285D01*
X138756571Y-67164857D01*
X138756571Y-67237428D01*
X138792857Y-67346285D01*
X139228285Y-67781714D01*
X138756571Y-67781714D01*
%TO.C,TP1*%
X140643428Y-62066714D02*
X140643428Y-61304714D01*
X140353142Y-61304714D01*
X140280571Y-61341000D01*
X140244285Y-61377285D01*
X140208000Y-61449857D01*
X140208000Y-61558714D01*
X140244285Y-61631285D01*
X140280571Y-61667571D01*
X140353142Y-61703857D01*
X140643428Y-61703857D01*
X139446000Y-61994142D02*
X139482285Y-62030428D01*
X139591142Y-62066714D01*
X139663714Y-62066714D01*
X139772571Y-62030428D01*
X139845142Y-61957857D01*
X139881428Y-61885285D01*
X139917714Y-61740142D01*
X139917714Y-61631285D01*
X139881428Y-61486142D01*
X139845142Y-61413571D01*
X139772571Y-61341000D01*
X139663714Y-61304714D01*
X139591142Y-61304714D01*
X139482285Y-61341000D01*
X139446000Y-61377285D01*
X138792857Y-61304714D02*
X138938000Y-61304714D01*
X139010571Y-61341000D01*
X139046857Y-61377285D01*
X139119428Y-61486142D01*
X139155714Y-61631285D01*
X139155714Y-61921571D01*
X139119428Y-61994142D01*
X139083142Y-62030428D01*
X139010571Y-62066714D01*
X138865428Y-62066714D01*
X138792857Y-62030428D01*
X138756571Y-61994142D01*
X138720285Y-61921571D01*
X138720285Y-61740142D01*
X138756571Y-61667571D01*
X138792857Y-61631285D01*
X138865428Y-61595000D01*
X139010571Y-61595000D01*
X139083142Y-61631285D01*
X139119428Y-61667571D01*
X139155714Y-61740142D01*
D12*
%TO.C,TP3*%
X137860000Y-63119000D02*
G75*
G03*
X137860000Y-63119000I-700000J0D01*
G01*
%TO.C,C3*%
X136273000Y-41542580D02*
X136273000Y-41261420D01*
X135253000Y-41542580D02*
X135253000Y-41261420D01*
%TO.C,TP4*%
X137860000Y-65913000D02*
G75*
G03*
X137860000Y-65913000I-700000J0D01*
G01*
%TO.C,TP2*%
X140400000Y-65913000D02*
G75*
G03*
X140400000Y-65913000I-700000J0D01*
G01*
%TO.C,C1*%
X140983580Y-44956000D02*
X140702420Y-44956000D01*
X140983580Y-45976000D02*
X140702420Y-45976000D01*
%TO.C,TP1*%
X140400000Y-63119000D02*
G75*
G03*
X140400000Y-63119000I-700000J0D01*
G01*
%TO.C,C2*%
X133479000Y-48373420D02*
X133479000Y-48654580D01*
X132459000Y-48373420D02*
X132459000Y-48654580D01*
%TD*%
M02*
